<?xml version="1.0" standalone="no"?>
<!DOCTYPE svg PUBLIC "-//W3C//DTD SVG 1.1//EN" "http://www.w3.org/Graphics/SVG/1.1/DTD/svg11.dtd" >
<svg xmlns="http://www.w3.org/2000/svg">
<metadata></metadata>
<defs>
<font id="adobe_caslon_probold" horiz-adv-x="1024" >
<font-face units-per-em="2048" ascent="1505" descent="-543" />
<missing-glyph horiz-adv-x="430" />
<glyph unicode="&#xfb03;" horiz-adv-x="1691" d="M43 14v43q0 13 20 13h82q52 0 52 69l-2 615h-132q-17 0 -14 22l8 68q2 12 23 12h115v53q0 236 155 398q154 147 340 147q70 0 134 -29t91 -77l5 -2q83 72 167.5 103.5t200.5 31.5q106 0 174 -43.5t68 -108.5q0 -45 -36.5 -77.5t-86.5 -32.5q-43 0 -74.5 21.5t-68.5 68.5 q-44 65 -103 65q-74 0 -127 -69q-21 -26 -33.5 -63.5t-17 -92.5t-5.5 -92.5t-1 -108.5v-26v-66h274q131 0 197 14q14 1 33 3.5t30.5 4t18.5 1.5q19 0 16 -25q-4 -33 -4 -332v-223q0 -28 -1 -71.5t-1 -68.5t2 -36q0 -53 37 -53h74q20 0 20 -17v-39q0 -20 -16 -20 q-4 0 -33 1.5t-77 3t-99 1.5t-97 -1.5t-74 -3t-34 -1.5q-9 0 -12.5 4t-3.5 16v39q0 17 20 17h41q37 0 37 45q4 33 4 180v334q0 71 -33 98t-122 27h-197v-627q0 -27 12.5 -42t32.5 -15h53q15 0 20 -4t5 -15v-33q0 -24 -17 -24q-2 0 -28 1.5t-69.5 3t-90.5 1.5 q-45 0 -97.5 -1.5t-88 -3t-39.5 -1.5q-17 0 -17 20v43q0 13 21 13h37q51 0 51 69l-2 615h-350v-181q0 -44 -1 -164.5t-0.5 -188t3.5 -93.5q6 -57 57 -57h41q20 0 20 -15v-37q0 -24 -12 -24q-2 0 -30.5 1.5t-78.5 3t-104 1.5q-56 0 -113.5 -1.5t-93 -3t-39.5 -1.5 q-9 0 -12.5 4t-3.5 16zM410 856h350v53q0 191 78 328l-2 4q-46 -1 -87 17.5t-67 48.5q-34 45 -90 45q-43 0 -74 -14t-57 -52q-9 -13 -16.5 -28t-13 -35t-9 -36.5t-6 -42.5t-4 -41t-2 -45t-0.5 -41.5v-43.5v-39v-78z" />
<glyph unicode="&#xfb04;" horiz-adv-x="1681" d="M43 10v47q0 13 20 13h82q52 0 52 69l-2 615h-132q-17 0 -14 20l8 70q2 12 23 12h115v53q0 243 155 398q154 147 340 147q70 0 133.5 -28t94.5 -78h6q147 133 340 133q134 0 241 -35q25 -8 33.5 -18.5t7.5 -32.5q-8 -119 -8 -600v-295q0 -304 4 -365q0 -35 11 -50t38 -15 h78q15 0 20 -4t5 -15v-37q0 -20 -17 -20q-2 0 -32.5 1.5t-84.5 3t-112 1.5q-60 0 -112 -1.5t-81 -3t-32 -1.5q-17 0 -17 20v39q0 17 25 17h45q48 0 51 69q2 29 2 549v66h-352v-627q0 -57 53 -57h49q15 0 20 -4t5 -15v-37q0 -20 -17 -20q-3 0 -29 1.5t-69 3t-86 1.5 q-49 0 -103 -1.5t-90 -3t-40 -1.5q-17 0 -17 16v47q0 13 21 13h37q51 0 51 69l-2 615h-350v-181q0 -56 -1 -167.5t-1 -182.5t2 -96q9 -57 59 -57h41q12 0 16 -4t4 -15v-37q0 -20 -12 -20q-2 0 -30.5 1.5t-78.5 3t-104 1.5q-56 0 -113.5 -1.5t-93 -3t-39.5 -1.5q-16 0 -16 16 zM410 856h350v53q0 205 78 332l-2 4q-45 -3 -86.5 15t-67.5 47q-34 45 -90 45q-43 0 -74 -14t-57 -52q-9 -12 -16.5 -27t-13 -35t-9 -36t-6 -42t-4 -41.5t-2 -45.5t-0.5 -42v-44v-39v-78zM975 856h354q0 233 -2 305q-2 95 -13.5 139t-41.5 64q-48 33 -90 33q-97 0 -146 -60 q-10 -12 -18 -28t-14.5 -30.5t-11 -37.5t-7.5 -39t-5 -45t-3 -45t-1.5 -51.5t-0.5 -51v-56v-56.5v-41z" />
<glyph horiz-adv-x="2048" />
<glyph horiz-adv-x="2048" />
<glyph unicode="&#xd;" horiz-adv-x="2048" />
<glyph unicode=" "  horiz-adv-x="430" />
<glyph unicode="&#x09;" horiz-adv-x="430" />
<glyph unicode="&#xa0;" horiz-adv-x="430" />
<glyph unicode="!" horiz-adv-x="528" d="M129 106q0 19 7.5 39.5t22.5 41t43.5 33.5t65.5 13q56 0 93.5 -38.5t37.5 -96.5q0 -56 -36 -89.5t-97 -33.5q-56 0 -96.5 33t-40.5 98zM135 1243q0 68 32.5 112t94.5 44q64 0 99 -35t32 -104q0 -37 -49 -378t-53 -446q0 -16 -17 -16h-36q-13 0 -13 20q-6 102 -48 432 t-42 371z" />
<glyph unicode="&#x22;" horiz-adv-x="761" d="M102 1374q0 45 30 76t81 31q52 0 79 -30t27 -73q0 -31 -33.5 -219.5t-39.5 -251.5h-70q-4 69 -39 255.5t-35 211.5zM442 1374q0 45 30 76t81 31q52 0 79 -30t27 -73q0 -31 -33.5 -219.5t-39.5 -251.5h-70q-4 69 -39 255.5t-35 211.5z" />
<glyph unicode="#" d="M-20 414l24 118q4 13 25 13h215l63 295h-205q-28 0 -28 12l20 123q6 12 29 12h209l88 391q4 21 16 21h111q12 0 8 -25l-86 -387h205l82 387q4 25 20 25h111q6 1 8.5 -6.5t-0.5 -18.5l-82 -387h215q21 0 21 -12l-25 -123q-3 -8 -8 -10t-21 -2h-209l-63 -295h215 q25 0 25 -17l-25 -122q-4 -9 -29 -9h-215l-86 -403q-6 -25 -20 -25h-111q-14 0 -8 25l86 403h-205l-86 -399q-6 -29 -20 -29h-111q-14 0 -8 29l90 399h-223q-12 0 -12 17zM381 545h201l63 295h-201z" />
<glyph unicode="$" d="M106 123q3 26 16 168.5t17 167.5q0 16 13 16l41 -4q12 0 12 -12q0 -38 1.5 -60t12 -61.5t31.5 -79.5q55 -82 115 -111l16 480q-98 26 -168 90q-98 91 -98 258q0 163 131 270q71 57 151 70l4 115q0 20 13 20h41q16 0 16 -20l-4 -107q41 4 111 -4v111q0 12 3.5 16t12.5 4 h41q12 0 12 -25l-4 -118q48 -9 102 -29q23 -6 37 4l21 25q12 8 28 8q17 0 17 -25q0 -51 2 -172t2 -135q0 -16 -8 -16l-37 -4q-12 0 -12 4q-27 129 -78 184q-39 49 -70 66l-16 -435q144 -38 215.5 -125t71.5 -247q0 -129 -83 -233.5t-225 -131.5v-111q0 -12 -3.5 -16 t-12.5 -4h-37q-16 0 -16 20l4 103q-18 -3 -55.5 -0.5t-55.5 8.5l-4 -111q0 -20 -16 -20h-41q-13 0 -13 20l5 123q-57 15 -132 66q-42 20 -45 20q-14 0 -32 -37q-8 -12 -33 -12q-23 0 -17 29zM287 1036q0 -91 41 -143q17 -21 57 -41l8 385q-56 -28 -81 -83.5t-25 -117.5z M434 119q12 -6 47.5 -8.5t63.5 0.5l12 471q-63 14 -106 28zM455 823q23 -9 106 -24l12 442q-23 10 -53 13.5t-53 -1.5zM614 123q58 21 94.5 76.5t36.5 144.5q0 75 -30 130.5t-88 82.5z" />
<glyph unicode="%" horiz-adv-x="1585" d="M43 952q0 88 18 165.5t55 142t100 102t146 37.5q71 0 126 -28t88 -70.5t54.5 -101.5t30 -112.5t9.5 -111.5q-3 -207 -85.5 -320.5t-234.5 -113.5q-64 0 -115 22t-83 59t-55 80t-34 92t-15.5 86.5t-4.5 71.5zM231 950q0 -161 25 -250q14 -40 44 -65t54 -25q74 0 103 78 q20 66 20 305q0 336 -123 336q-27 0 -51.5 -17t-38.5 -52q-33 -84 -33 -310zM328 23q0 9 14 26l823 1335q7 15 17 15t16 -4l51 -29q13 -8 13 -14q0 -2 -2 -5t-5 -8t-4 -8l-827 -1339q-13 -23 -21 -23q-9 0 -18 6l-43 31q-14 10 -14 17zM915 393q0 88 18.5 165.5t55.5 142 t100 102t146 37.5q71 0 126 -28t87.5 -70.5t54 -101.5t30 -112.5t9.5 -111.5q-3 -207 -85 -320.5t-234 -113.5q-64 0 -115 22t-83.5 59t-55 80t-34 92t-16 86.5t-4.5 71.5zM1104 391q0 -165 24 -250q14 -40 44.5 -65t54.5 -25q73 0 102 78q21 70 21 305q0 336 -123 336 q-61 0 -90 -70q-33 -84 -33 -309z" />
<glyph unicode="&#x26;" horiz-adv-x="1798" d="M74 328q0 105 49 192.5t123 151.5q81 81 221 155q-209 135 -209 275q0 77 57.5 159.5t143.5 135.5t164 53q142 0 236 -88t91 -195q-3 -80 -78 -159.5t-159 -118.5q108 -50 219.5 -156t197.5 -229q52 65 100.5 161.5t51.5 149.5q3 25 -14 43.5t-47 18.5h-33q-12 0 -12 16 v45q0 14 12 14q1 0 84 -3t137 -3q33 0 82 1.5t86.5 3t40.5 1.5q16 0 16 -16v-43q0 -16 -16 -16h-33q-63 0 -90.5 -10.5t-48.5 -43.5q-187 -292 -262 -389q9 -9 72.5 -81.5t91.5 -98.5q122 -135 241 -135q44 0 84.5 19t68.5 48.5t41 46.5t23 33q10 10 17 4l37 -24q8 0 0 -17 q-12 -26 -31 -54.5t-55.5 -67t-80 -68t-108 -50t-135.5 -20.5q-33 0 -64.5 5t-57 12t-53 21.5t-46.5 25.5t-44 32.5t-38.5 34t-36.5 38t-32.5 37t-32 39.5t-29.5 36q-6 -6 -35.5 -39.5t-42.5 -47t-46 -45t-56 -47t-61.5 -38.5t-73 -34.5t-80 -20.5t-93.5 -9q-121 0 -226 49 t-166.5 132t-61.5 178zM311 401q3 -118 98.5 -199t196.5 -81q65 0 121.5 17t102 49.5t71.5 56.5t60 60q7 8 10 11q-89 133 -209.5 264.5t-237.5 198.5q-84 -47 -150 -153t-63 -224zM463 1147q0 -56 56.5 -115t131.5 -102q1 1 14 12.5t17 15.5l16.5 16.5t17.5 21.5t15 24 t14.5 29.5t10.5 33.5t8 41t2 47q0 69 -40 133t-103 64q-73 0 -116.5 -66t-43.5 -155z" />
<glyph unicode="'" horiz-adv-x="413" d="M98 1374q0 45 30 76t81 31q52 0 79 -30t27 -73q0 -31 -33.5 -219.5t-39.5 -251.5h-70q-4 69 -39 255.5t-35 211.5z" />
<glyph unicode="(" horiz-adv-x="671" d="M94 588q0 284 148 561q105 199 286 364q23 17 41 17q11 0 26 -11t15 -18q0 -17 -20 -37q-283 -330 -283 -872q0 -273 75 -498.5t212 -378.5q16 -24 16 -37q0 -9 -14.5 -20.5t-26.5 -11.5q-20 0 -41 16q-194 168 -303 373q-62 115 -96.5 259t-34.5 294z" />
<glyph unicode=")" horiz-adv-x="671" d="M61 -322q0 12 21 33q283 336 283 877q0 270 -75 494.5t-212 377.5q-17 26 -17 37q0 9 14.5 21t26.5 12q18 0 41 -17q87 -76 162 -162.5t141 -209.5q62 -115 97 -259t35 -290q0 -288 -148 -565q-105 -200 -287 -365q-21 -16 -41 -16q-12 0 -26.5 11.5t-14.5 20.5z" />
<glyph unicode="*" horiz-adv-x="671" d="M38 1031.5q6 31.5 38 51.5q21 12 102.5 32.5t126.5 29.5v8q-22 7 -118.5 27.5t-100.5 21.5q-35 9 -46.5 42.5t3.5 60.5q18 35 49 44t58 -8q15 -8 54 -46.5t75 -78t40 -42.5l9 4q0 1 -6.5 18.5t-13.5 39t-16.5 49t-16.5 51t-12 43.5t-5 28q0 34 21 54t57 20q78 0 78 -70 q0 -25 -31 -123t-39 -110l8 -9q8 12 77.5 86.5t86.5 85.5q65 32 102 -28q18 -34 9.5 -62.5t-37.5 -44.5q-17 -8 -119.5 -28.5t-114.5 -20.5v-8q3 -1 58 -12.5t113.5 -26t74.5 -23.5q14 -7 24 -20t12 -35.5t-15 -50.5q-18 -27 -51 -31.5t-60 11.5q-19 13 -87.5 88.5 t-72.5 83.5l-8 -9q0 -1 8.5 -23.5t18 -50t20 -58.5t17 -57.5t6.5 -39.5q0 -32 -19.5 -55t-58.5 -23q-35 0 -56.5 23t-21.5 55q0 21 28 108.5t40 120.5l-9 4q-7 -8 -39.5 -46.5t-64.5 -74t-53 -51.5q-30 -22 -60.5 -16.5t-46.5 31.5q-21 29 -15 60.5z" />
<glyph unicode="+" d="M111 426v135h327v344h148v-344h327v-135h-327v-348h-148v348h-327z" />
<glyph unicode="," horiz-adv-x="548" d="M102 -352q0 11 17 28q55 46 103 114.5t48 143.5q0 23 -13.5 41t-27.5 21l-11 4q-10 4 -15.5 6.5t-18 9t-20.5 13t-18 17t-16 22.5t-10.5 28.5t-4.5 34.5q0 58 36.5 96.5t98.5 38.5q75 0 133.5 -65.5t58.5 -167.5q0 -61 -24 -121t-57 -102.5t-74.5 -81t-69 -57.5 t-49.5 -31q-39 -13 -41 -13q-25 0 -25 21z" />
<glyph unicode="-" horiz-adv-x="823" d="M102 494v106q0 16 17 16h573q25 0 25 -20v-96q0 -19 -25 -19h-573q-17 0 -17 13z" />
<glyph unicode="." horiz-adv-x="548" d="M131 119q0 20 8 42t24 43.5t46.5 35.5t69.5 14q57 0 98 -40t41 -103q0 -60 -39 -98t-96 -38q-61 0 -106.5 37.5t-45.5 106.5z" />
<glyph unicode="/" horiz-adv-x="745" d="M12 12q-13 7 0 33l606 1430q6 18 25 12l86 -37q18 -6 4 -33l-608 -1435q-9 -18 -23 -11z" />
<glyph unicode="0" d="M57 621q0 231 55.5 406.5t161 273.5t246.5 98q100 0 179.5 -44t128.5 -114t81.5 -164.5t45 -187.5t12.5 -191q0 -350 -115.5 -539.5t-327.5 -189.5q-85 0 -156.5 30.5t-121 83t-87.5 118t-59.5 140.5t-32 144.5t-10.5 135.5zM303 653q0 -314 49 -438q32 -89 74.5 -126.5 t97.5 -37.5q113 0 156 139q45 134 45 549q0 165 -22.5 294t-69.5 206.5t-113 77.5q-54 0 -89.5 -32t-61.5 -99q-66 -193 -66 -533z" />
<glyph unicode="1" d="M135 1116q-6 13 12 25l471 245q26 13 37 13q17 0 17 -33q0 -3 -1 -42t-2 -101t-2 -135t-2 -160.5t-1 -161.5v-86q0 -40 2 -258.5t2 -226.5q0 -81 19 -100t104 -19h73q21 0 21 -15v-51q0 -16 -21 -16q-6 0 -157 3t-170 3q-24 0 -181 -3t-159 -3q-17 0 -17 14v53 q0 15 23 15h80q36 0 53.5 0.5t37 4.5t26.5 10t14 19.5t9 31t3 46.5q4 57 4 426v404q0 106 -49 106q-37 0 -86 -16l-123 -37q-14 -7 -20 4z" />
<glyph unicode="2" d="M2 4q-6 23 12 41q6 5 57 53.5t82 78.5t83.5 81.5t101.5 104t94 104.5q110 132 165 254.5t52 247.5q-6 121 -73 193t-173 69q-41 -1 -77.5 -13t-61.5 -28.5t-48.5 -41.5t-37 -44.5t-28.5 -44.5q-10 -20 -25 -12l-33 16q-8 8 0 29q130 307 426 307q153 0 265 -107.5 t112 -263.5q0 -134 -65.5 -262t-217.5 -283q-77 -77 -194 -180.5t-129 -114.5h377q48 0 85.5 12.5t66 39t44 47.5t37.5 57q9 16 15.5 18t21.5 -6q28 -11 20 -32l-139 -353q-1 -3 -3.5 -8l-3 -6t-3.5 -3t-7 -2.5t-12 -0.5q-10 0 -15 2.5t-6.5 4.5t-6.5 13q-9 18 -36 23.5 t-87 5.5h-447q-14 0 -41 -1t-40 -1q-54 -4 -82 -4q-17 0 -25 10z" />
<glyph unicode="3" d="M47 133q0 45 22.5 70t55.5 28q27 0 48.5 -10.5t35.5 -30.5t19 -30t12 -27q32 -78 159 -78q113 0 185.5 83.5t72.5 193.5q0 145 -74 235t-212 121l-22.5 7.5t-11 6t-7 9t-0.5 14.5q0 18 6 24t22 9q116 23 187 96.5t71 187.5q0 84 -51.5 146.5t-136.5 62.5q-92 0 -154 -56 t-96 -148q-10 -25 -24 -25l-37 12q-13 7 -8 33q9 44 28.5 88t53.5 88.5t78 78.5t106.5 55.5t134.5 21.5q67 0 123 -17.5t93.5 -45.5t63.5 -65t38.5 -74.5t13.5 -74.5q0 -60 -20.5 -113.5t-57.5 -96.5t-77 -75t-91 -63q58 -13 113.5 -44t101 -76t73 -105.5t27.5 -124.5 q0 -124 -71.5 -228t-198.5 -165.5t-279 -61.5q-87 0 -152 17t-98.5 44t-49 53t-15.5 50z" />
<glyph unicode="4" d="M16 381q0 25 29 61l705 924q25 33 49 33q15 0 21.5 -15t6.5 -53v-815h144q24 0 24 -20v-127q0 -11 -6 -16t-26 -5h-136v-319q0 -16 -5 -22.5t-23 -6.5h-168q-15 0 -20 5t-5 20v323h-540q-22 0 -36 9t-14 24zM213.5 525q4.5 -13 28.5 -13h364v485q0 22 -12 26.5t-25 -13.5 l-344 -453q-16 -19 -11.5 -32z" />
<glyph unicode="5" d="M49 84q0 30 15.5 48t37.5 18q12 -1 23 -4t24 -8.5t20 -9t23 -12.5t21 -12q66 -34 147 -34q51 0 102.5 19t96 54t72.5 93t28 129q0 98 -42.5 169.5t-122.5 106.5q-115 51 -252 51h-37q-11 0 -17 10t-4 23l74 610q3 20 9 26.5t24 6.5h457q51 0 72.5 20.5t53.5 81.5 q10 20 33 9q14 -7 19 -12.5t2 -16.5l-74 -250q-9 -25 -25 -33t-61 -8h-440l-37 -260q36 3 127.5 -8t146.5 -27q140 -42 218.5 -142.5t78.5 -248.5q2 -139 -71 -255t-201.5 -182.5t-282.5 -66.5q-105 0 -181.5 35.5t-76.5 79.5z" />
<glyph unicode="6" d="M70 485q0 195 77 369t213 303q158 147 357 221q79 21 86 21q9 0 18.5 -8t9.5 -17q0 -31 -32 -41q-63 -26 -133.5 -80t-137 -128.5t-118.5 -173.5t-72 -201l6 -9q41 38 106.5 62t139.5 24t136 -23.5t102.5 -61t68.5 -86.5t40.5 -98t12.5 -97q0 -237 -131 -361 q-68 -68 -140 -99.5t-175 -31.5q-201 0 -303 127q-131 155 -131 389zM311 403q0 -33 2.5 -65.5t9.5 -76.5t22 -80t37 -68.5t57.5 -51t80.5 -18.5q22 0 42.5 4.5t49.5 24t50 53t36 97.5t15 151q0 147 -55.5 245.5t-153.5 98.5q-107 0 -152 -66q-25 -31 -33 -88.5t-8 -159.5z " />
<glyph unicode="7" d="M81.5 1053.5q-1.5 4.5 4.5 19.5l127 357q3 10 9 13t24 3q16 0 21.5 -8t2.5 -29q-3 -23 20 -32t99 -9h598q21 0 21 -20q0 -22 -29 -58q-180 -333 -250 -508q-156 -383 -237 -678q-18 -63 -56 -99t-92 -36q-45 0 -73.5 30t-28.5 75q0 75 77 217q15 27 231.5 402t272.5 474 h-479q-36 0 -63.5 -6t-44.5 -12.5t-36.5 -27t-28.5 -32t-32 -45.5q-13 -18 -41 -4q-15 9 -16.5 13.5z" />
<glyph unicode="8" d="M102 1006q0 65 29.5 132.5t84 126.5t145 96.5t200.5 37.5q150 0 255.5 -83.5t105.5 -189.5q0 -130 -57.5 -214.5t-213.5 -182.5q142 -74 214.5 -164t72.5 -227q0 -62 -30 -127t-82.5 -119t-135 -88.5t-178.5 -34.5q-105 0 -185.5 26.5t-124.5 70t-65.5 92t-21.5 100.5 q0 128 66.5 217t199.5 168q-71 45 -116 79.5t-85.5 78.5t-59 94.5t-18.5 110.5zM283 301q0 -63 22.5 -113.5t57.5 -80t74.5 -45t78.5 -15.5q100 0 156.5 61.5t56.5 178.5q0 97 -65 163t-213 148q-76 -47 -122 -125t-46 -172zM324 1057q0 -90 53.5 -147.5t195.5 -139.5 q71 47 120 123.5t52 169.5q3 105 -55.5 175.5t-152.5 70.5q-97 0 -155 -73.5t-58 -178.5z" />
<glyph unicode="9" d="M74 940q0 85 46 190t105 158q123 111 279 111q119 0 196 -35t142 -115q62 -77 87 -166.5t25 -154.5q0 -218 -84.5 -423.5t-251.5 -346.5q-86 -70 -156 -109t-159 -67q-7 -1 -21 -4.5t-24.5 -6t-15.5 -2.5q-33 0 -33 33q0 20 20 33q54 20 110 57.5t111.5 93.5t101 122.5 t79 150.5t45.5 172l-8 4q-86 -78 -234 -78q-94 0 -166 35.5t-113 93t-61 122.5t-20 132zM303 1004q0 -147 61.5 -246t151.5 -99q108 0 156 78q33 47 33 232q0 356 -193 356q-94 0 -151.5 -84.5t-57.5 -236.5z" />
<glyph unicode=":" horiz-adv-x="548" d="M131 119q0 20 8 42t24 43.5t46.5 35.5t69.5 14q57 0 98 -40t41 -103q0 -60 -39 -98t-96 -38q-61 0 -106.5 37.5t-45.5 106.5zM131 743q0 47 37 91.5t111 44.5q57 0 98 -40.5t41 -103.5q0 -60 -39 -97.5t-96 -37.5q-61 0 -106.5 37t-45.5 106z" />
<glyph unicode=";" horiz-adv-x="548" d="M102 -365q0 12 17 29q151 139 151 258q0 23 -13.5 41t-27.5 21l-11 4q-10 4 -15.5 6.5t-18 9t-20.5 13t-18 17t-16 22.5t-10.5 28.5t-4.5 34.5q0 58 36.5 98.5t98.5 40.5q75 0 133.5 -66.5t58.5 -171.5q0 -61 -24 -121t-57 -102.5t-74.5 -81t-69 -57.5t-49.5 -31 q-36 -12 -41 -12q-25 0 -25 20zM119 743q0 48 36.5 92t110.5 44q57 0 98.5 -40.5t41.5 -103.5q0 -60 -40 -97.5t-100 -37.5q-61 0 -104 37t-43 106z" />
<glyph unicode="&#x3c;" d="M172 455v77l631 373v-151l-438 -250v-8l438 -263v-155z" />
<glyph unicode="=" d="M111 287v135h802v-135h-802zM111 596v135h802v-135h-802z" />
<glyph unicode="&#x3e;" d="M221 78v151l438 250v13l-438 258v155l631 -377v-77z" />
<glyph unicode="?" horiz-adv-x="770" d="M98 1292q0 40 27.5 73.5t83.5 33.5q67 0 153.5 -49.5t162 -125t128 -175.5t52.5 -191q0 -229 -244 -263q-52 -7 -150 -7q-16 0 -16 -17v-188q0 -5 -0.5 -7t-3 -3.5t-8.5 -1.5h-45q-17 0 -17 12v401q0 27 29 21q41 -4 131 -4q32 0 63.5 6.5t64 22t53 47.5t20.5 75 q0 44 -31.5 87t-79.5 69q-61 39 -110.5 54.5t-114.5 15.5q-63 0 -105.5 31.5t-42.5 82.5zM143 94q0 50 36 86.5t100 36.5q53 0 92 -35.5t39 -87.5t-35.5 -85.5t-100.5 -33.5q-61 0 -96 31.5t-35 87.5z" />
<glyph unicode="@" horiz-adv-x="1630" d="M49 543q0 177 80.5 349.5t211 301t305 208t353.5 79.5q283 0 432.5 -145.5t149.5 -401.5q0 -80 -26.5 -161.5t-79 -155.5t-124 -131.5t-169.5 -91.5t-207 -34q-36 0 -61 21t-25 49q0 58 61 225l-8 4q-217 -299 -405 -299q-47 0 -81 33t-34 94q0 97 55.5 215.5 t137.5 216.5t184 165t188 67q91 0 115 -74l28 41q8 12 21 12h115q21 0 12 -28q-18 -29 -68 -159t-67 -185q-74 -195 -74 -271q0 -41 53 -41q29 0 66 19t78 60.5t75.5 99t57 144.5t22.5 187q0 220 -116 331.5t-326 111.5q-122 0 -237.5 -47.5t-206 -129.5t-159.5 -186.5 t-106 -224t-37 -236.5q0 -243 145 -381t372 -135q231 0 368 70q19 9 25 0l16 -37q3 -4 -1 -10.5t-11 -9.5q-66 -44 -186.5 -73.5t-243.5 -29.5q-157 0 -283.5 43t-210.5 119.5t-129 181.5t-45 230zM618 541q0 -66 50 -66q57 0 173.5 139.5t145.5 208.5q49 104 49 160 q0 42 -19 70t-54 28q-57 0 -121 -62.5t-112 -149t-80 -178.5t-32 -150z" />
<glyph unicode="A" horiz-adv-x="1523" d="M-33 20v39q0 17 13 17h61q42 0 72.5 22t58.5 70q16 30 101 242.5t128 334.5q16 46 201 537q1 3 3 13.5t3.5 17t2.5 15t-0.5 15t-4.5 9.5q-12 12 -12 24q0 16 20 21q47 11 115 46.5t88 55.5q21 21 31 21q12 0 24 -37q17 -60 116 -354t118 -363q40 -130 114 -343.5 t95 -252.5q50 -94 131 -94h65q17 0 17 -15v-43q0 -24 -21 -24q-10 0 -40.5 1.5t-97 3t-165.5 1.5q-102 0 -190.5 -3t-95.5 -3q-21 0 -21 24v41q0 17 16 17h54q43 0 56.5 17.5t4.5 58.5q-23 108 -123 411h-475q-118 -348 -127 -395q-4 -16 -4 -43q0 -20 21.5 -34.5 t52.5 -14.5h86q20 0 20 -10v-52q0 -20 -16 -20l-86 3q-86 3 -172 3q-67 0 -116 -1.5t-74.5 -3t-34.5 -1.5q-13 0 -13 26zM459 645h426q-44 131 -172 567q-12 37 -21 37q-17 0 -26 -26q-3 -11 -101 -281.5t-106 -296.5z" />
<glyph unicode="B" horiz-adv-x="1388" d="M61 1391v47q0 18 17 18q7 0 48 -2t108 -4q40 -1 84 0h59q27 0 132.5 3t166.5 3q261 0 360 -55q156 -83 156 -279q0 -122 -66.5 -201t-212.5 -133v-10q181 -47 275 -145t94 -256q0 -88 -45 -180.5t-115 -130.5q-126 -72 -446 -72q-41 0 -149.5 3t-149.5 3q-95 0 -188.5 -3 t-100.5 -3q-14 0 -14 16v51q0 15 14 15h88q44 0 60.5 19.5t21.5 68.5q8 98 8 487v242q0 253 -6 358q-2 44 -9 69.5t-23.5 37t-33 14t-51.5 2.5h-65q-17 0 -17 17zM516 332q0 -147 39.5 -210t136.5 -63q64 0 116.5 16.5t96.5 52.5t69 101.5t25 155.5q0 122 -53 203.5 t-143 116.5q-85 36 -234 36h-53v-127v-282zM516 807q33 -2 94 -2q145 0 217 59q107 84 107 242q0 142 -90 209q-51 36 -115.5 53.5t-118.5 17.5q-45 0 -61 -4q-24 -8 -27 -32q-6 -117 -6 -387v-156z" />
<glyph unicode="C" horiz-adv-x="1536" d="M106 715q0 321 209 549q91 98 225.5 157.5t307.5 59.5q127 0 235.5 -30t178.5 -69q22 -12 30 -12t11 12l16 54q3 9 8 10.5t25 1.5q19 0 23.5 -5.5t4.5 -27.5q0 -45 50 -426q3 -17 -9 -20l-39 -13q-12 -5 -22 21q-52 152 -160 266q-76 72 -160 112t-196 40 q-95 0 -173.5 -33t-131.5 -89.5t-89 -132.5t-52.5 -160t-16.5 -175q0 -54 8.5 -115.5t28 -135.5t58.5 -149t93 -133q91 -96 175.5 -127.5t177.5 -31.5q160 0 289.5 68t199.5 169q17 23 25 15l34 -31q7 -7 7 -14q0 -4 -2 -7q-49 -71 -107.5 -129t-133.5 -108.5t-170 -78.5 t-200 -28q-184 0 -307.5 49t-228.5 144q-107 95 -164.5 250.5t-57.5 302.5z" />
<glyph unicode="D" horiz-adv-x="1712" d="M53 12v51q0 13 17 13h118q59 0 68 51q4 29 9 278.5t5 380.5v156q0 46 -4.5 200t-7.5 175q-3 34 -21 45.5t-53 11.5h-110q-17 0 -17 15v55q0 12 19 12t123 -3t186 -3q51 0 153.5 3t153.5 3q233 0 393.5 -37.5t290.5 -148.5q230 -189 230 -520q0 -171 -48.5 -297.5 t-152.5 -239.5q-57 -62 -134.5 -106t-143 -65t-150 -33t-128 -13.5t-104.5 -1.5q-36 0 -185.5 3t-203.5 3q-79 0 -144.5 -1.5t-101.5 -3t-44 -1.5q-13 0 -13 18zM528 741q0 -8 1 -107t2 -217.5t1 -174.5q0 -63 37 -115q35 -55 181 -55q123 0 237 54t189 153q67 87 107 208.5 t40 257.5q0 121 -46 243.5t-118 203.5q-83 89 -207.5 140.5t-251.5 51.5q-98 0 -131 -20q-37 -20 -37 -90q-4 -86 -4 -385v-148z" />
<glyph unicode="E" horiz-adv-x="1404" d="M86 10v49q0 17 20 17h70q69 0 86 15t17 73v487v201q0 386 -9 451q-6 41 -25 56t-65 15h-78q-12 0 -12 15v53q0 14 12 14q2 0 94 -4q72 -3 149 -2h44h57q45 0 326 2t326 2q19 0 49.5 1t32.5 1q13 0 16 -12q2 -7 25 -88t44 -155t25 -83q5 -16 -6 -22l-37 -17q-9 -3 -18 11 q-12 17 -102.5 113.5t-122.5 115.5q-87 51 -156 53l-311 8l-5 -592q188 0 234 11q35 6 55.5 21.5t38.5 51.5q33 74 33 115q0 17 16 17l54 -5q15 0 12 -16q-4 -33 -4 -221q0 -90 12 -225q0 -12 -16 -15l-45 -8q-11 -3 -17 14q-13 52 -33 103q-14 31 -41 51t-61 23 q-111 12 -238 12l3 -123q6 -333 6 -348q0 -138 82 -160q66 -16 159 -16q90 0 172 8q36 4 84 21.5t84 47.5q25 22 89.5 97t101.5 121q11 14 22 8l33 -21q6 -4 6 -11q0 -4 -2 -9l-98 -307q-10 -31 -45 -31q-3 0 -21 0.5t-61.5 1.5t-99.5 2q-38 0 -261 1t-421 1q-42 0 -100 -1 t-75 -1q-82 -4 -88 -4q-16 0 -16 16z" />
<glyph unicode="F" horiz-adv-x="1286" d="M61 1384v60q0 12 17 12q2 0 38 -1.5t113.5 -3t180.5 -1.5q2 0 312 2t388 2q22 0 50 4l28 4q12 -6 12 -28q1 -5 21.5 -92t38.5 -162t22 -86q1 -4 1 -6q0 -8 -7 -11l-39 -16q-9 -5 -25 16q-35 65 -147 189q-55 75 -139 94q-36 7 -180 12.5t-218 5.5v-655q179 0 220 10 q57 6 108 80q23 38 37 105q4 16 16 16l41 -4q13 0 13 -12q-5 -46 -5 -234q0 -80 13 -213q2 -16 -13 -20l-45 -9q-13 0 -16 17q-2 12 -13 48t-18 48q-40 72 -102 84q-78 12 -236 12v-510q0 -41 13.5 -53t52.5 -12h111q16 0 16 -15v-51q0 -16 -16 -16q-3 0 -38.5 1.5t-106 3 t-159.5 1.5q-81 0 -146.5 -1.5t-100.5 -3t-43 -1.5q-13 0 -13 14v55q0 13 13 13h82q37 0 51.5 8.5t15.5 34.5q6 123 6 651v143q0 53 -2 227t-2 177q0 57 -82 57h-102q-17 0 -17 10z" />
<glyph unicode="G" horiz-adv-x="1710" d="M106 764q0 144 61 282t173 234q226 201 582 201q135 0 247 -34t170 -77q31 -22 50 4l24 33q14 20 29 20q24 0 24 -28l21 -410q0 -26 -8 -28l-49 -9q-15 -2 -21 17q-62 175 -164 282q-136 144 -340 144q-103 0 -186 -35t-162 -125q-76 -86 -122 -209t-46 -254 q0 -183 47.5 -331.5t136.5 -237.5q75 -72 153 -106t175 -34q177 0 279 54q31 17 40 58t9 130v150q0 54 -16.5 74t-57.5 20h-86q-16 0 -16 18v47q0 17 12 17q6 0 45 -1.5t105.5 -3t140.5 -1.5q76 0 136 1.5t91 3t35 1.5q20 0 20 -15v-51q0 -16 -16 -16h-70q-30 0 -45.5 -17 t-15.5 -59v-270q0 -16 4 -38t4 -28q0 -20 -33 -33q-133 -68 -269 -101.5t-312 -33.5q-166 0 -329 60t-261 178q-189 207 -189 557z" />
<glyph unicode="H" horiz-adv-x="1757" d="M57 1393v43q0 20 21 20q11 0 46 -1.5t102 -3t155 -1.5q110 0 203 3l92 3q20 0 20 -18v-43q0 -21 -20 -21h-74q-52 0 -67 -23.5t-17 -88.5q-2 -23 -6 -169t-4 -184v-82q0 -28 24 -28h676q25 0 33 5.5t8 22.5v62q0 53 -4 208.5t-6 174.5q-2 54 -12.5 78t-42.5 24h-94 q-17 0 -17 19v47q0 16 17 16q3 0 97.5 -3t192.5 -3q93 0 181.5 3t89.5 3q24 0 24 -18v-43q0 -21 -24 -21h-74q-43 0 -54.5 -22t-11.5 -82q0 -10 -2 -172.5t-2 -200.5v-221q0 -42 2 -239t2 -259q0 -56 18.5 -79t63.5 -23h82q17 0 17 -15v-47q0 -20 -21 -20q-10 0 -43.5 1.5 t-95.5 3t-139 1.5q-113 0 -209 -3t-107 -3q-16 0 -16 18v47q0 17 16 17h111q23 0 35 13t14.5 29t3.5 50q8 196 8 463v57q0 25 -45 25h-667q-17 0 -23 -6.5t-6 -20.5v-88q0 -171 8 -453q3 -69 70 -69h73q21 0 21 -15v-47q0 -20 -21 -20q-2 0 -88 3t-186 3q-121 0 -212 -3 l-91 -3q-21 0 -21 18v47q0 17 21 17h106q58 0 58 96q0 45 2 219t2 244v262q0 34 -2 184t-2 162q0 78 -15 104.5t-63 26.5h-90q-21 0 -21 19z" />
<glyph unicode="I" horiz-adv-x="794" d="M53 1389v53q0 14 13 14q6 0 48 -1.5t118 -3t165 -1.5q87 0 152.5 1.5t98.5 3t40 1.5q17 0 17 -18v-47q0 -17 -17 -17h-78q-78 0 -78 -55q0 -9 -2 -246t-2 -250v-159q0 -10 2 -256t2 -258q0 -46 20 -60t62 -14h86q17 0 17 -15v-51q0 -16 -21 -16q-6 0 -41.5 1.5t-104 3 t-153.5 1.5q-91 0 -164 -1.5t-110.5 -3t-40.5 -1.5q-16 0 -16 14v55q0 13 16 13h82q26 0 42 3t32 16.5t20 39.5q3 19 5.5 246.5t2.5 335.5v143q0 48 -2.5 237.5t-3.5 207.5q-5 37 -23.5 53t-60.5 16h-106q-17 0 -17 15z" />
<glyph unicode="J" horiz-adv-x="716" d="M-188 -315q0 50 33 84t85 34q118 0 172 -139q34 3 65 37t46 86t22 188.5t7 253t-2 277t-2 174.5v143q0 387 -9 482q-3 37 -20.5 53t-69.5 16h-82q-12 0 -12 10v56q0 16 12 16q5 0 40 -1.5t107.5 -3t168.5 -1.5q85 0 150.5 1.5t100.5 3t44 1.5q16 0 16 -14v-51 q0 -17 -16 -17h-86q-42 0 -58 -12.5t-18 -42.5q-6 -99 -6 -545v-94q0 -113 -2 -228.5t-4 -190t-2 -89.5q0 -96 -17.5 -172.5t-64.5 -155.5q-81 -126 -196.5 -210.5t-254.5 -84.5q-26 0 -58 12.5t-60.5 45.5t-28.5 78z" />
<glyph unicode="K" horiz-adv-x="1474" d="M111 8v55q0 13 12 13h74q52 0 55 39q6 48 6 643v119q0 21 -2 231t-2 217q0 49 -61 49h-62q-16 0 -16 15v55q0 12 16 12q6 0 36 -1.5t89 -3t137 -1.5q70 0 126.5 1.5t88 3t39.5 1.5q17 0 17 -14v-51q0 -17 -17 -17h-65q-32 0 -47 -12.5t-15 -46.5q0 -8 -4 -201t-4 -250 v-90h37q33 0 69 29q25 21 206.5 244t211.5 264q20 31 9 48t-41 17h-31q-10 0 -10 15v49q0 16 12 16q7 0 40.5 -1.5t88 -3t113.5 -1.5q48 0 109.5 3t66.5 3q16 0 16 -14v-51q0 -17 -16 -17h-41q-62 0 -115 -35q-64 -42 -225.5 -221t-237.5 -278q31 -39 279 -357t282 -358 q40 -49 123 -49h45q8 0 12.5 -5t4.5 -10v-51q0 -16 -17 -16q-4 0 -36.5 1.5t-97.5 3t-148 1.5q-76 0 -138.5 -1.5t-97.5 -3t-43 -1.5q-12 0 -12 16v51q0 13 12 13h29q25 0 33.5 20.5t-0.5 32.5q-15 31 -188.5 278t-197.5 271q-29 29 -69 29h-37v-152q0 -339 6 -432 q1 -21 14.5 -33t32.5 -12h78q16 0 16 -10v-56q0 -16 -12 -16q-6 0 -36 1.5t-89 3t-137 1.5t-138 -1.5t-90 -3t-34 -1.5q-12 0 -12 14z" />
<glyph unicode="L" horiz-adv-x="1372" d="M78 3.5v8.5v47q0 7 0.5 10t3 5t8.5 2h82q86 0 86 55q0 8 4 304t4 368v115q0 312 -8 382q-3 43 -15 58.5t-50 15.5h-87q-16 0 -16 19v47q0 16 16 16q4 0 36.5 -1.5t98 -3t148.5 -1.5q98 0 174 2t112.5 3t37.5 1q20 0 20 -18v-47q0 -17 -20 -17h-111q-44 0 -57 -16t-13 -60 l-4 -196q-4 -197 -4 -283v-176q0 -479 8 -567h115q262 0 344 10q40 6 86.5 48.5t84 99.5t64.5 107.5t40 84.5q12 12 24 8l37 -12q4 -4 4 -21q-5 -8 -47.5 -179t-54.5 -228q-159 6 -852 6q-81 0 -145.5 -1.5t-98 -3t-39.5 -1.5t-9 0.5t-5 3.5t-2 5.5z" />
<glyph unicode="M" horiz-adv-x="2039" d="M25 3.5v8.5v51q0 13 12 13h94q82 0 102 145q11 91 21 354.5t10 329.5v350q0 63 -19 91t-81 28h-90q-8 0 -12.5 5t-4.5 10v55q0 4 4.5 8t12.5 4q3 0 32 -1.5t96 -3t163 -1.5q58 0 117.5 3t62.5 3q36 0 49 -35q33 -85 211 -517t211 -523q8 16 49 109.5t96 221t72 165.5 q225 522 231 548q8 25 80 25h99h124q91 2 129.5 4t40.5 2q13 0 13 -18v-43q0 -21 -17 -21h-90q-36 0 -46.5 -20t-12.5 -60q-2 -45 -2 -508v-143q0 -73 2 -261.5t2 -195.5q1 -58 15 -84t42 -26h111q12 0 12 -15v-47q0 -8 -0.5 -11t-4 -6t-11.5 -3q-6 0 -45.5 1.5t-109 3 t-148.5 1.5q-89 0 -158.5 -1.5t-106 -3t-43.5 -1.5q-16 0 -16 18v47q0 17 16 17h127q29 0 42.5 14.5t17.5 56.5q6 60 6 480v114q0 570 -4 578h-8q-9 -16 -149 -337.5t-150 -342.5q-17 -36 -131.5 -298.5t-118.5 -270.5q-23 -45 -45 -45q-21 0 -33 36q-6 8 -141.5 332.5 t-145.5 351.5q-48 122 -141 342t-109 236q-10 -36 -10 -569q0 -395 10 -506q15 -172 99 -172h90q16 0 16 -15v-51q0 -16 -20 -16q-5 0 -31.5 1.5t-80 3t-122.5 1.5q-78 0 -139 -1.5t-92 -3t-35 -1.5q-6 0 -9 0.5t-5 3.5t-2 5.5z" />
<glyph unicode="N" horiz-adv-x="1654" d="M29 1389v55q0 12 12 12q4 0 11.5 -0.5t22 -1.5t29.5 -2q37 -2 183 -2q40 0 90 4q15 0 34 1t23 1q31 0 49 -18q15 -15 224 -277.5t239 -304.5q23 -26 381 -471h8v213q0 283 -4 385q-15 288 -22 313q-10 36 -40.5 57t-68.5 21h-65q-13 0 -13 19v47q0 10 3 13t14 3 q7 0 36 -1.5t80.5 -3t112.5 -1.5q74 0 136 3l61 3q20 0 20 -14v-47q0 -21 -12 -21h-57q-31 0 -47.5 -25.5t-20.5 -82.5q-31 -431 -31 -693v-540q0 -16 -0.5 -22t-2 -17t-7 -15t-14.5 -4q-37 0 -70 33l-42 49t-96.5 113t-115.5 137q-57 70 -138 169t-130 159t-60 74 q-17 17 -197 239.5t-184 227.5h-12v-250q0 -368 21 -699q3 -79 25.5 -115t76.5 -36h53q17 0 17 -19v-47q0 -10 -3 -13t-14 -3q-3 0 -89 3t-132 3q-31 0 -119 -3t-94 -3q-12 0 -12 18v51q0 4 3.5 8.5t8.5 4.5h70q41 0 63 39t29 131q14 259 14 651v260q0 92 -46 154.5 t-114 62.5h-65q-12 3 -12 15z" />
<glyph unicode="O" horiz-adv-x="1740" d="M106 711q0 114 42.5 246.5t146.5 261.5q213 262 577 261q131 0 249.5 -35t234.5 -128q125 -102 201.5 -255.5t76.5 -350.5q0 -262 -151 -451q-110 -138 -255.5 -214.5t-359.5 -76.5q-102 0 -224.5 33t-237.5 102q-121 73 -210.5 237t-89.5 370zM385 780q0 -110 18.5 -207 t50 -169t74 -131t88.5 -98t95 -66t92.5 -38.5t81.5 -11.5q85 0 156.5 26.5t120 68.5t86 99.5t59 115.5t35 121t18 110.5t4.5 89.5q0 128 -33 243.5t-86.5 197t-119.5 141.5t-133.5 89.5t-127.5 29.5q-1 0 -20 1h-17.5h-13.5q-12 -1 -36 -3.5t-45.5 -10.5t-49 -20t-56 -33 t-57.5 -49q-89 -86 -136.5 -224.5t-47.5 -271.5z" />
<glyph unicode="P" horiz-adv-x="1259" d="M66 1389v51q0 16 12 16q5 0 39.5 -1.5t104 -3t159.5 -1.5q14 0 100 3t125 3q188 0 292 -22t192 -82q72 -53 113.5 -135.5t41.5 -176.5q0 -192 -143 -302.5t-402 -110.5q-131 0 -184 8v-90q0 -377 2 -404q9 -65 64 -65h114q17 0 17 -15v-47q0 -11 -3 -15.5t-14 -4.5 q-7 0 -41 1.5t-105.5 3t-168.5 1.5q-79 0 -144.5 -1.5t-100 -3t-38.5 -1.5q-16 0 -16 14v51q0 7 0.5 10t3 5t8.5 2h66q53 0 70.5 11t21.5 52q6 60 6 578v237q0 352 -2 375q-3 25 -20 35t-52 10h-106q-12 0 -12 15zM516 709q52 -17 148 -17q65 0 135.5 42t109.5 97 q49 73 49 213q0 79 -24.5 142t-60.5 99.5t-82 60t-84.5 32t-71.5 8.5q-90 0 -119 -14v-663z" />
<glyph unicode="Q" horiz-adv-x="1740" d="M106 735q0 156 61.5 298t172.5 247q112 100 258 152q139 49 249 49h13h16q354 0 562 -221q100 -106 150 -240t50 -275q0 -157 -60.5 -300t-156.5 -236q-91 -88 -174.5 -139t-185.5 -82v-8q251 -102 590 -177q79 -17 146.5 -30.5t118.5 -21t86.5 -12.5t69 -7t46 -2.5 t36.5 0.5h25q73 0 139 53q12 13 21 4l24 -25q3 -3 3 -7q0 -6 -7 -13q-22 -32 -65.5 -76.5t-112.5 -88.5t-125 -44q-182 0 -504 94q-368 110 -807 332q-6 3 -59 19t-107 36t-132.5 71t-143.5 120q-89 89 -143 225t-54 305zM385 778q0 -191 61 -345t140 -236 q75 -77 155.5 -112.5t135.5 -35.5q80 0 149 26t117 68.5t87 100t62.5 116.5t39.5 121t22 111t6 90q0 174 -50 316.5t-126 228.5q-145 164 -336 164q-162 0 -291 -123q-172 -162 -172 -490z" />
<glyph unicode="R" horiz-adv-x="1464" d="M102 12v47q0 17 13 17h69q38 0 58 14.5t20 52.5q4 205 4 590v539q0 50 -18 76t-47 26h-80q-15 0 -15 12v56q0 14 15 14q1 0 30 -1.5t95 -3t155 -1.5q64 0 202.5 3t162.5 3q230 0 373 -129q54 -48 82 -108.5t28 -120.5q0 -183 -99.5 -277.5t-281.5 -124.5v-8 q68 -24 123 -94q16 -22 82.5 -121.5t85.5 -128.5q13 -22 83.5 -118t90.5 -115q43 -39 146 -39q16 0 16 -15v-43q0 -20 -16 -20q-3 0 -27 1.5t-70 3t-104 1.5q-45 0 -180 -6q-30 22 -90 117q-42 65 -136 237q-53 99 -110 176q-45 64 -85 95.5t-99 31.5q-20 0 -66 -4v-110 q0 -321 8 -383q11 -78 53 -78h103q16 0 16 -15v-49q0 -18 -22 -18q-6 0 -33 1.5t-90.5 3t-157.5 1.5q-89 0 -151 -1.5t-89 -3t-30 -1.5q-17 0 -17 18zM516 721q58 -8 78 -8q91 0 162 28t111.5 68.5t67 91.5t35.5 91t9 73q0 69 -25 131t-65 98q-99 88 -271 88q-54 0 -73 -12 q-25 -16 -25 -59z" />
<glyph unicode="S" horiz-adv-x="1130" d="M111 63q2 13 18 191t18 190q3 17 13 17l45 -4q12 0 12 -17q7 -121 78 -233q44 -71 117.5 -109.5t152.5 -38.5q35 0 70.5 8.5t71 27.5t63 46t44.5 68t17 90q0 70 -16 119t-55.5 87t-91.5 65.5t-140 60.5q-190 72 -299 172q-102 96 -102 293q0 172 143 286q116 99 291 99 q132 0 258 -49q26 -11 43 6l27 26q13 13 29 13t16 -33q0 -18 16.5 -175t16.5 -165q0 -11 -13 -14l-32 -11q-15 -4 -21 13q-46 132 -127 217q-80 86 -213 86q-58 0 -104.5 -21.5t-72 -54t-39 -66.5t-13.5 -65q0 -60 11.5 -103.5t45.5 -80.5q37 -37 108 -71t142 -56 q101 -31 171 -67t124 -93q102 -108 102 -293q0 -193 -118.5 -324t-315.5 -131q-120 0 -201 25t-147 74q-38 24 -49 24t-33 -37q-14 -24 -37 -24q-24 0 -24 32z" />
<glyph unicode="T" horiz-adv-x="1478" d="M-16 1122q79 308 98 377q5 37 24 37q13 0 33 -20q51 -51 140 -54q28 -1 99 -4.5t139.5 -5.5t158.5 -2h110q124 0 406 12q29 1 76 19t71 35q27 20 37 20q16 0 21 -33l61 -394q0 -11 -8 -13l-41 -15q-8 -2 -18 17q-31 60 -77.5 131t-84.5 98q-64 37 -316 37h-57v-1092 q0 -113 16 -154.5t54 -41.5h118q13 0 13 -19v-43q0 -20 -21 -20q-3 0 -35 1.5t-103 3t-169 1.5q-92 0 -165.5 -1.5t-112 -3t-45.5 -1.5q-17 0 -17 18v47q0 17 14 17h117q30 0 48 15.5t20 39.5q6 53 6 721v512h-57q-213 0 -299 -29q-70 -31 -183 -233q-12 -19 -22 -15l-41 15 q-9 4 -9 14q0 3 1 6z" />
<glyph unicode="U" horiz-adv-x="1525" d="M23 1393v47q0 9 4 12.5t16 3.5q3 0 42 -1.5t112.5 -3t160.5 -1.5q76 0 143.5 1.5t106.5 3t45 1.5q17 0 17 -14v-51q0 -17 -17 -17h-86q-44 0 -71 -23t-29 -57q-6 -75 -6 -266v-254q0 -214 6 -313q11 -172 72 -254q95 -127 278 -127q73 0 150 26.5t125 71.5 q118 118 118 346v369q0 219 -22 391q-5 40 -28 65t-56 25h-74q-16 0 -16 15v51q0 16 16 16q5 0 40 -1.5t93 -3t117 -1.5q56 0 104 1.5t74.5 3t30.5 1.5q13 0 16.5 -4t3.5 -12v-47q0 -19 -12 -19h-74q-26 0 -43.5 -8.5t-26 -24t-11 -24t-5.5 -23.5q-4 -25 -4 -338 q0 -59 -3.5 -237t-8.5 -230q-18 -257 -172 -393q-140 -127 -373 -127q-179 0 -295 49q-178 73 -241 275q-21 66 -29 176t-8 317v486q0 54 -15.5 78t-54.5 24h-94q-16 0 -16 19z" />
<glyph unicode="V" horiz-adv-x="1474" d="M33 1393v47q0 16 12 16q3 0 35.5 -1.5t103 -3t164.5 -1.5q85 0 156.5 1.5t108 3t38.5 1.5q21 0 21 -16v-45q0 -21 -17 -21h-98q-40 0 -63 -14t-23 -37q0 -41 6 -70q20 -106 133 -434q24 -65 86.5 -249.5t85.5 -262.5h4v4q36 84 111 276.5t90 239.5q5 14 52.5 139.5 t77.5 219.5t30 131q0 22 -19.5 39.5t-58.5 17.5h-55q-6 0 -10.5 5.5t-4.5 13.5v47q0 16 17 16q3 0 37 -1.5t90 -3t114 -1.5q76 0 132 1.5t82 3t28 1.5q17 0 17 -14v-51q0 -17 -17 -17h-49q-90 0 -150 -94q-30 -49 -74.5 -148.5t-105 -249t-67.5 -165.5 q-23 -50 -161.5 -381.5t-146.5 -349.5q-13 -27 -40 -27q-17 0 -27 12t-19 35q-44 110 -311 834q-21 59 -59 167.5t-67.5 192.5t-39.5 109q-26 65 -88 65h-49q-12 0 -12 19z" />
<glyph unicode="W" horiz-adv-x="2162" d="M-14 1389v53q0 14 16 14q2 0 30.5 -1.5t89.5 -3t142 -1.5q65 0 123.5 1.5t92 3t38.5 1.5q17 0 17 -14v-51q0 -17 -19 -17h-39q-31 0 -45 -19.5t-4 -51.5l301 -947l4 -2q54 144 172 485t121 390q0 58 -37 108q-24 37 -69 37h-43q-15 0 -15 15v51q0 16 17 16q2 0 33 -1.5 t93 -3t140 -1.5q76 0 138 1.5t94.5 3t35.5 1.5q14 0 14 -18v-47q0 -17 -14 -17h-72q-29 0 -41 -25.5t-4 -54.5l295 -946h8q4 12 25.5 75.5t36.5 107.5t41 122t45.5 137t43.5 134.5t40.5 132.5t32 111.5t23 92.5t7.5 56q0 24 -17.5 40.5t-51.5 16.5h-56q-14 0 -14 17v49 q0 16 17 16q5 0 33.5 -1.5t78 -3t105.5 -1.5q51 0 95 1.5t68.5 3t28.5 1.5q12 0 12 -10v-55q0 -17 -14 -17h-43q-61 0 -90 -67q-10 -22 -234 -633t-245 -662q-21 -53 -54 -53q-37 0 -51 45l-370 1077h-9q-8 -25 -103 -289.5t-189.5 -526.5t-96.5 -267q-16 -39 -53 -39 q-31 0 -41 33l-459 1308q-26 74 -86 74h-57q-12 0 -12 15z" />
<glyph unicode="X" horiz-adv-x="1437" d="M-35 10v49q0 17 17 17h57q27 0 66 16.5t73 46.5q51 44 119 130.5t167 224t152 206.5q-31 46 -133 208.5t-185 290.5t-103 147q-28 28 -95 28h-77q-13 0 -13 15v51q0 16 13 16q3 0 41 -1.5t110.5 -3t159.5 -1.5q91 0 163 1.5t108.5 3t39.5 1.5q17 0 17 -16v-47 q0 -19 -21 -19h-57q-64 0 -64 -44q0 -10 4 -23q7 -24 109 -204.5t131 -221.5q9 13 55.5 78.5t76 108.5t68.5 100.5t60.5 94.5t24.5 50q5 25 -6.5 43t-45.5 18h-47q-14 0 -14 17v49q0 16 12 16q7 0 40.5 -1.5t89 -3t116.5 -1.5q51 0 98 1.5t76 3t35 1.5q16 0 16 -14v-53 q0 -15 -16 -15h-66q-66 0 -110 -31q-34 -26 -171.5 -202.5t-246.5 -329.5q68 -115 232.5 -374.5t201.5 -307.5q44 -53 123 -53h66q16 0 16 -15v-49q0 -18 -18 -18q-1 0 -32.5 1.5t-101 3t-163.5 1.5q-72 0 -140.5 -1.5t-108 -3t-42.5 -1.5q-17 0 -17 18v47q0 17 13 17h53 q35 0 49 8.5t10 30.5q-5 22 -293 512q-297 -431 -309 -482q-7 -31 6 -50t41 -19h70q16 0 16 -17v-47q0 -18 -16 -18q-4 0 -37.5 1.5t-95 3t-133.5 1.5q-54 0 -105 -1.5t-80.5 -3t-33.5 -1.5q-15 0 -15 16z" />
<glyph unicode="Y" horiz-adv-x="1433" d="M23 1389v55q0 12 16 12q3 0 39 -1.5t99 -3t132 -1.5q92 0 162.5 1.5t104 3t36.5 1.5q17 0 17 -14v-47q0 -21 -17 -21h-53q-34 0 -47 -13.5t-10 -45.5q2 -16 65 -140t141.5 -274.5t98.5 -191.5q7 12 40 65t58 94.5t62.5 104t65.5 111t55 96t41.5 79t15.5 41.5q1 7 1 13 q0 61 -71 61h-53q-16 0 -16 17v51q0 14 12 14q5 0 38.5 -1.5t91 -3t120.5 -1.5q58 0 102 1.5t66.5 3t27.5 1.5q17 0 17 -14v-47q0 -21 -17 -21h-45q-66 0 -110 -47q-25 -28 -209 -312t-242 -384v-250q0 -167 6 -236q2 -24 8.5 -38.5t19 -21t23 -8t29.5 -1.5h68q14 0 14 -15 v-47q0 -20 -14 -20q-5 0 -40 1.5t-101.5 3t-147.5 1.5q-89 0 -155 -1.5t-97 -3t-33 -1.5q-14 0 -14 18v47q0 17 14 17h84q69 0 72 51q6 87 6 381v98q-52 97 -218.5 387t-203.5 336q-18 21 -47 33t-55 12h-37q-16 0 -16 15z" />
<glyph unicode="Z" horiz-adv-x="1441" d="M59 18q0 20 13 39q710 987 946 1319h-475q-50 0 -101 -35q-32 -20 -128 -130t-128 -158q-10 -16 -24 -9l-29 17q-8 0 -8 16l131 365q5 22 25 22q13 0 45 -4q82 -10 557 -10q54 0 144 2t126 2q140 8 176 8q23 0 30.5 -16t-5.5 -33q-249 -341 -963 -1335h545q102 0 131 12 q45 19 143 123.5t144 163.5q11 11 24 4l33 -16q5 -5 5 -13q0 -4 -1 -8q-19 -29 -72.5 -158t-78.5 -194q-8 -23 -29 -23q-11 0 -49 6q-80 11 -274 18t-353 7h-469q-31 0 -31 18z" />
<glyph unicode="[" horiz-adv-x="720" d="M172 -332v1837q0 25 21 25h430q12 0 12 -12v-50q0 -16 -17 -16h-229q-20 0 -20 -22v-1678q0 -28 16 -28h254q16 0 16 -17v-45q0 -16 -16 -16h-442q-25 0 -25 22z" />
<glyph unicode="\" horiz-adv-x="745" d="M12 1430q-6 19 4 24l95 41q12 4 20 -12l602 -1446q7 -21 -4 -25l-94 -41q-11 -4 -19 13z" />
<glyph unicode="]" horiz-adv-x="720" d="M66 -293q0 7 0.5 10t4 5t11.5 2h258q12 0 12 22v1681q0 25 -20 25h-230q-16 0 -16 16v50q0 12 12 12h430q21 0 21 -21v-1839q0 -24 -25 -24h-438q-20 0 -20 16v45z" />
<glyph unicode="^" d="M37 512l434 856h82l434 -856h-156l-319 643h-8l-316 -643h-151z" />
<glyph unicode="_" d="M0 -154h1024v-102h-1024v102z" />
<glyph unicode="`" horiz-adv-x="565" d="M60 1246.5q-5 39.5 19.5 68t61.5 28.5q61 0 105 -65l164 -246q6 -6 0 -12l-29 -25q-6 -6 -12 0l-265 185q-39 27 -44 66.5z" />
<glyph unicode="a" horiz-adv-x="907" d="M74 596q0 44 24.5 89.5t69.5 78.5q150 115 332 115q78 0 116.5 -14t71.5 -44q30 -28 39.5 -64.5t9.5 -88.5l4 -324v-98q0 -81 12.5 -112.5t41.5 -31.5q21 0 40 10t25 23q9 14 21 8l24 -16q8 -4 8 -15q0 -8 -4 -18q-64 -119 -188 -119q-131 0 -172 125h-8 q-66 -72 -179 -110q-50 -15 -131 -15q-60 0 -100.5 47t-40.5 130q0 166 189 251q28 13 69 32.5t62 29.5t46.5 23t42 22.5t29.5 19.5v107q-8 78 -22 102q-5 8 -10 13q-26 30 -103 30q-70 0 -119 -37q-13 -9 -15 -21.5t2.5 -37.5t4.5 -41q0 -119 -123 -119q-29 0 -49 19 t-20 51zM303 213q0 -60 27.5 -92.5t66.5 -32.5q42 3 86.5 36.5t44.5 61.5v269q-18 -11 -57 -31.5t-62.5 -36t-51 -40t-41 -58t-13.5 -76.5z" />
<glyph unicode="b" horiz-adv-x="1062" d="M2 1305v20q0 11 21 16q123 44 266 115q45 25 61 25q12 0 18 -9t3 -24q0 -4 -2.5 -73.5t-5 -173t-3.5 -181.5l-2 -246q52 50 127 77.5t154 27.5q92 0 171 -47t128 -125q59 -91 59 -256q0 -84 -35.5 -169.5t-95 -153t-144 -110.5t-175.5 -43q-156 0 -262 54l-80 -47 q-12 -7 -27 -7l-28 9q-9 4 -9 16q6 44 6 348l-4 748q0 69 -9 105.5t-26 52t-53 26.5l-24 8q-29 5 -29 17zM358 442q0 -134 5.5 -194.5t23.5 -104.5q20 -39 61 -65.5t91 -26.5q124 0 186 105q31 53 42 105t11 124q0 177 -69 274t-191 97q-92 0 -160 -62v-252z" />
<glyph unicode="c" horiz-adv-x="856" d="M66 393q0 101 38.5 200t112.5 167q131 119 299 119q68 0 121.5 -13.5t84.5 -34t51 -46.5t27 -48t7 -43q0 -38 -24.5 -64t-65.5 -26q-84 0 -123 103q-20 49 -51 66.5t-76 17.5q-67 0 -125.5 -68t-58.5 -170q0 -109 13.5 -177.5t65.5 -154.5q67 -110 211 -110q124 0 222 77 q8 8 18 -2l25 -28q6 -6 6 -12t-6 -13q-46 -56 -144 -107t-202 -51q-220 0 -328 136q-56 70 -77 135t-21 147z" />
<glyph unicode="d" horiz-adv-x="1083" d="M66 377q0 110 33 198.5t110 172.5q125 131 303 131q104 0 193 -29l-7 397q-2 56 -26 80.5t-103 38.5q-16 5 -16 16v37q0 12 16 17q266 31 291 37q50 8 53 8q7 0 11.5 -10t1.5 -27q-8 -102 -8 -662v-446q0 -155 20 -180q23 -28 86 -37q34 0 41 -13l4 -24q1 -5 1 -9 q0 -12 -13 -16l-275 -77q-21 -7 -28 20l-29 94q-49 -51 -132 -85t-155 -34q-144 0 -245 101q-66 65 -96.5 135t-30.5 166zM281 492q0 -170 76 -286t175 -116q56 0 97 22.5t59 51.5q17 35 17 82v358q0 60 -21 98q-23 41 -71 69t-109 28q-93 0 -142 -62q-81 -98 -81 -245z" />
<glyph unicode="e" horiz-adv-x="888" d="M66 424q0 93 19 157.5t81 145.5q65 84 144 118t212 34q66 0 121 -26t88.5 -65t57 -85.5t33 -85t9.5 -66.5q0 -15 -7.5 -22.5t-18 -9t-31.5 -1.5h-495v-63q0 -75 25 -139.5t64.5 -105.5t85.5 -64t91 -23q170 0 248 119q10 17 24 10l31 -19q8 -4 8 -14.5t-8 -25.5 q-15 -28 -33.5 -53t-51.5 -57t-71.5 -54.5t-95.5 -38t-121 -15.5q-101 0 -171.5 25.5t-123.5 85.5q-66 77 -90 155.5t-24 182.5zM285 592h247q31 0 49.5 8.5t18.5 20.5q0 27 -5.5 55t-18 58.5t-39.5 49.5t-64 19q-146 0 -188 -211z" />
<glyph unicode="f" horiz-adv-x="645" d="M39 10v47q0 13 20 13h82q30 0 42 17t12 52v615h-140q-13 0 -10 22l8 70q0 10 27 10h115v39q0 280 151 438q155 148 344 148q88 0 144.5 -32.5t56.5 -94.5q0 -40 -34.5 -69.5t-68.5 -29.5q-42 0 -65 17q-31 10 -57 53q-36 53 -82 53q-82 0 -127 -65q-13 -18 -22 -46 t-13.5 -52.5t-7 -69t-3 -68.5t-1 -79.5t-0.5 -75.5v-66h243q17 0 17 -18l-11 -74q-3 -10 -26 -10h-223v-181q0 -417 2 -446q6 -57 57 -57h94q21 0 21 -19v-37q0 -20 -13 -20l-31 2q-32 1 -95.5 2.5t-143.5 1.5q-54 0 -111.5 -1.5t-94 -3t-40.5 -1.5q-16 0 -16 16z" />
<glyph unicode="g" horiz-adv-x="1011" d="M20 -332q0 76 62.5 134.5t150.5 95.5v12q-65 14 -102 56.5t-37 94.5q0 39 18 74.5t48 61.5t56 43t54 30v4q-176 102 -176 306q0 53 23 104t67 95.5t119 72t170 27.5q177 0 279 -117q40 32 88 54t86 22q54 0 82 -28q24 -26 24 -63v-8q0 -31 -24.5 -56.5t-57.5 -25.5 q-34 0 -63 29q-33 25 -49 25q-33 0 -50 -13q25 -52 25 -135q0 -134 -86 -227q-89 -94 -260 -94q-74 0 -117 8q-34 -15 -61 -42.5t-27 -60.5q0 -30 15 -47t47 -24q29 -6 73 -6h7q48 1 116 4q35 2 66 2q81 0 138 -12q80 -15 144 -68q103 -77 103 -201q0 -138 -127 -237 q-59 -48 -164 -83q-98 -32 -217 -32h-21q-208 0 -319 63q-103 60 -103 162zM203 -287q0 -42 21.5 -82.5t51.5 -58.5q47 -28 99 -38.5t141 -10.5q42 0 89.5 12t91 33.5t71.5 57.5t27 79q0 93 -70 141q-62 44 -182 44q-15 0 -31 -1l-184 -12q-47 -13 -86 -59.5t-39 -104.5z M299 520q0 -117 51 -162q45 -45 117 -45q38 0 66.5 24t44 65.5t23 91t7.5 106.5q0 101 -45 162q-32 41 -96 41q-68 0 -111 -51q-57 -72 -57 -232z" />
<glyph unicode="h" horiz-adv-x="1116" d="M27 1300v21q0 12 28 25q65 17 267 118l20 7.5t20 7t17 2.5q22 0 16 -49q-4 -37 -4 -551v-127h12q41 58 115.5 91.5t149.5 33.5q64 0 109.5 -19.5t94.5 -62.5q27 -24 45.5 -53.5t27.5 -52.5t13 -64t4.5 -60.5t0.5 -70.5v-123v-271q0 -32 69 -32h37q21 0 21 -15v-45 q0 -16 -17 -16q-2 0 -27.5 1.5t-73 3t-102.5 1.5q-54 0 -103.5 -1.5t-79 -3t-34.5 -1.5q-16 0 -16 14v49q0 13 14 13h35q52 0 57 41q5 36 5 200v138q0 70 -2 110t-14.5 89.5t-37.5 74.5q-49 49 -114 49q-78 0 -152 -74q-37 -46 -37 -100v-442q0 -50 7.5 -68t29.5 -18h49 q21 0 21 -19v-37q0 -20 -17 -20q-4 0 -36 1.5t-81 3t-96 1.5q-56 0 -107 -1.5t-80.5 -3t-33.5 -1.5q-16 0 -16 16v45q0 15 18 15h51q60 0 68 32q10 51 10 254l-4 731q0 85 -20.5 124t-73.5 61l-37 12q-16 5 -16 16z" />
<glyph unicode="i" horiz-adv-x="555" d="M35 14v39q0 17 20 17h90q16 0 24 8.5t9 32.5q4 122 4 184v289q0 52 -20.5 81t-85.5 46q-21 5 -21 18v23q0 10 15 16t132 48.5t134 49.5q32 13 49 13q19 0 16 -25q-4 -33 -4 -334v-221q0 -151 4 -176q6 -53 33 -53h82q21 0 21 -15v-41q0 -20 -17 -20q-3 0 -37.5 1.5 t-92.5 3t-118 1.5q-71 0 -145.5 -3t-75.5 -3q-16 0 -16 20zM121 1208q0 48 41.5 87.5t101.5 39.5q59 0 93 -37.5t34 -80.5q0 -52 -36 -92t-103 -40q-51 0 -91 35.5t-40 87.5z" />
<glyph unicode="j" horiz-adv-x="528" d="M-178 -446q0 34 26.5 68t63.5 34q60 0 115 -70q34 -45 61 -45q71 0 80 148q11 149 11 346q0 57 -1 117l-4 403q0 63 -19.5 88.5t-82.5 50.5l-21 8q-12 6 -12 17v20q0 12 16 17q45 15 150.5 56t124.5 54q27 13 53 13q18 0 18 -19q0 -6 -2 -14q-8 -40 -8 -350v-254 q0 -315 -29 -455q-32 -151 -144.5 -247.5t-244.5 -96.5q-64 0 -107.5 30t-43.5 81zM121 1208q0 48 41.5 87.5t101.5 39.5q59 0 93 -37.5t34 -80.5q0 -52 -36 -92t-103 -40q-51 0 -91 35.5t-40 87.5z" />
<glyph unicode="k" horiz-adv-x="1044" d="M35 1325v29q0 14 28 20q34 7 144 46t115 40q51 21 61 21q12 0 15 -7t1 -26q-12 -147 -12 -645v-311q52 0 82 24q37 34 103 107t85 100q15 23 15 37q0 10 -10.5 18t-28.5 8h-19q-14 0 -14 17v43q0 16 16 16q2 0 29 -1.5t75 -3t101 -1.5q50 0 90.5 1.5t62 3t25.5 1.5 q15 0 15 -22v-37q0 -17 -17 -17h-20q-66 0 -127 -34q-52 -29 -266 -228q77 -88 223 -246.5t178 -179.5q46 -28 107 -28q16 0 16 -19v-41q0 -16 -21 -16q-3 0 -28 1.5t-72.5 3t-107.5 1.5q-52 0 -103.5 -1.5t-83 -3t-35.5 -1.5q-9 0 -12.5 4t-3.5 16v35q0 17 16 17h17 q12 0 17.5 8t2.5 20q-5 25 -241 303q-25 25 -66 25v-303q0 -49 41 -49h45q21 0 21 -19v-41q0 -16 -17 -16q-2 0 -28 1.5t-71.5 3t-96.5 1.5q-58 0 -108 -1.5t-76 -3t-27 -1.5q-15 0 -15 20v39q0 17 21 17h53q20 0 30.5 14t10.5 35q6 62 6 303l-4 739q0 66 -19 97t-90 51 q-28 11 -28 16z" />
<glyph unicode="l" horiz-adv-x="532" d="M4 1309v24q0 12 16 17q232 71 308 118q41 13 45 13q20 0 20 -37q-8 -222 -8 -649v-295q0 -304 4 -365q2 -23 5.5 -34.5t15 -21t32.5 -9.5h78q15 0 20 -4t5 -15v-37q0 -20 -13 -20q-3 0 -36.5 1.5t-91.5 3t-121 1.5q-69 0 -128 -1.5t-91 -3t-35 -1.5q-17 0 -17 20v39 q0 10 5.5 13.5t23.5 3.5h78q19 0 35 17.5t16 55.5v562v79q0 267 -8 373q-3 51 -28.5 79t-76.5 44l-41 12q-12 4 -12 17z" />
<glyph unicode="m" horiz-adv-x="1671" d="M63 12v43q0 15 25 15h62q30 0 36 53v123v301q0 52 -13 81t-48 50l-43 22q-14 8 -14 19v20q0 10 14 17l227 110q26 13 41 13q22 0 25 -29l12 -119h8q49 63 128.5 105.5t166.5 42.5t144.5 -39.5t97.5 -112.5h12q52 68 128 110t159 42q65 0 107.5 -14.5t80.5 -55.5 q46 -47 58 -69q36 -61 36 -195v-234q0 -33 -2 -102t-2 -78q0 -61 54 -61h53q16 0 16 -15v-43q0 -18 -16 -18q-2 0 -25.5 1.5t-69.5 3t-102 1.5q-51 0 -97.5 -1.5t-73.5 -3t-29 -1.5q-17 0 -17 16v43q0 17 17 17h32q17 0 29 10.5t12 30.5q8 90 8 180v239q0 78 -9 119.5 t-36 65.5q-45 45 -122 45q-40 0 -82 -26t-64 -58q-14 -20 -21.5 -50.5t-8.5 -51.5t-1 -58v-381q0 -65 37 -65h54q20 0 20 -15v-45q0 -16 -12 -16q-3 0 -27 1.5t-70 3t-104 1.5q-56 0 -104.5 -1.5t-74.5 -3t-28 -1.5q-14 0 -14 16v39q0 21 16 21h45q49 0 49 94v350 q0 101 -14 148t-39 69q-36 29 -110 29q-38 0 -80 -22t-68 -64q-33 -47 -33 -146v-364q0 -94 41 -94h45q21 0 21 -13v-47q0 -16 -17 -16q-3 0 -27.5 1.5t-71.5 3t-105 1.5q-54 0 -101.5 -1.5t-73.5 -3t-30 -1.5q-17 0 -17 18z" />
<glyph unicode="n" horiz-adv-x="1124" d="M68 719v16q0 14 20 21l225 106q34 17 41 17q19 0 25 -25l16 -106h13q46 54 102 81q84 50 164 50q119 0 180 -50q65 -47 89 -95.5t24 -115.5v-294q0 -36 -1 -108t-1 -89q0 -57 49 -57h57q25 0 25 -15v-47q0 -14 -17 -14q-3 0 -29.5 1.5t-77.5 3t-114 1.5q-54 0 -101 -1.5 t-72.5 -3t-27.5 -1.5q-16 0 -16 24v35q0 17 25 17h41q31 0 36 49q9 80 9 192v236q0 70 -10 109t-44 67q-28 25 -54 31t-69 6q-73 0 -131 -53q-43 -43 -43 -146v-422q0 -69 39 -69h37q21 0 21 -19v-37q0 -20 -17 -20q-2 0 -25 1.5t-68 3t-99 1.5q-56 0 -104 -1.5t-73.5 -3 t-27.5 -1.5q-12 0 -12 20v39q0 17 20 17h41q53 0 53 41v460q0 75 -86 119l-16 8q-16 5 -16 21z" />
<glyph unicode="o" horiz-adv-x="1044" d="M66 440q0 83 43 177.5t129 162.5q121 99 290 99q185 0 310 -121q141 -141 141 -324q0 -171 -127 -311q-63 -71 -152.5 -109.5t-191.5 -38.5q-209 0 -332 148q-64 76 -87 146.5t-23 170.5zM299 434q0 -98 12 -160t51 -124q28 -44 66 -66.5t96 -22.5q97 0 151 107.5 t54 271.5q0 158 -67.5 257.5t-145.5 99.5q-79 0 -129 -56q-47 -54 -67.5 -124.5t-20.5 -182.5z" />
<glyph unicode="p" horiz-adv-x="1071" d="M31 -502q0 15 12 15h74q39 0 45 53q4 45 4 282v707q0 49 -13 74t-57 49l-45 24q-16 11 -16 21v20q0 12 16 17l234 102q43 17 57 17t18 -27l15 -100h4q43 53 118 90t160 37q135 0 238 -103q61 -64 86 -130t25 -163q0 -219 -129 -363.5t-318 -144.5q-102 0 -180 37l4 -372 q1 -59 7.5 -86t16.5 -34t33 -7h74q16 0 16 -17v-43q0 -9 -4 -12.5t-16 -3.5q-3 0 -30 1.5t-82 3t-126 1.5q-60 0 -112 -1.5t-81 -3t-32 -1.5q-16 0 -16 16v45zM379 217q0 -83 53 -115q58 -47 160 -47q82 0 141 73.5t62 223.5q0 75 -13.5 144.5t-41 130t-75.5 97t-110 36.5 q-50 0 -98 -24t-78 -66v-453z" />
<glyph unicode="q" horiz-adv-x="1036" d="M66 391q0 99 44.5 203t133.5 184q112 101 276 101q63 0 110.5 -10.5t110.5 -34.5l156 45q5 3 9 3t7 -3l21 -17q6 -6 0 -33q-8 -42 -16.5 -209.5t-8.5 -226.5v-463q0 -232 9 -360q6 -57 45 -57h53q20 0 20 -11v-49q0 -16 -16 -16q-3 0 -33 1.5t-82.5 3t-111.5 1.5 q-63 0 -116.5 -1.5t-82 -3t-31.5 -1.5q-10 0 -13 5t-3 23v31q0 9 5 13t19 4h66q27 0 38.5 8.5t14.5 27.5q6 43 6 369v143h-8q-104 -86 -258 -86q-50 0 -98 12.5t-97 43t-86 76.5t-60 119.5t-23 164.5zM289 508v-32q0 -105 17 -170q21 -73 79 -144q26 -33 65.5 -54.5 t71.5 -21.5q106 0 172 66v473q-11 86 -65 134t-115 48q-45 -1 -83.5 -23t-64 -55t-43.5 -73.5t-26 -78t-8 -69.5z" />
<glyph unicode="r" horiz-adv-x="733" d="M43 8v45q0 17 18 17h72q53 0 53 55v401q0 70 -15.5 102.5t-61.5 57.5l-37 21q-17 6 -17 16v12q0 11 17 19l247 116q27 9 33 9q15 0 19 -25l18 -152h8q113 185 246 185q48 0 77.5 -29.5t29.5 -73.5q0 -42 -35 -76t-76 -34q-38 0 -70 16q-23 17 -57 17q-21 0 -45 -15 t-41 -45q-25 -45 -25 -100v-391q0 -48 13.5 -67t44.5 -19h90q16 0 16 -15v-47q0 -14 -14 -14q-2 0 -35 1.5t-93 3t-126 1.5q-63 0 -119 -1.5t-87 -3t-34 -1.5q-14 0 -14 14z" />
<glyph unicode="s" horiz-adv-x="757" d="M80 258q-1 3 -1 6q0 8 7 10l39 13q13 3 18 -6l68 -115q22 -36 40.5 -57t53.5 -37.5t82 -16.5q61 0 103 34.5t42 90.5q0 60 -43 94.5t-153 65.5q-117 34 -183.5 94.5t-66.5 161.5q0 141 104 215q54 37 102 52.5t111 15.5q116 0 199 -45q36 -19 39 -37l27 -140 q4 -16 -2 -22l-39 -19q-11 -4 -17 9l-98 110q-17 18 -30 29.5t-40.5 23t-58.5 11.5q-59 0 -100 -32.5t-41 -84.5q0 -59 40.5 -86t143.5 -55q75 -20 121 -43t84 -64q61 -61 61 -164q0 -130 -95 -212.5t-247 -82.5q-73 0 -136 18t-85 36q-14 14 -16 22z" />
<glyph unicode="t" horiz-adv-x="677" d="M33 770q0 25 39 39q46 16 147 106.5t133 151.5q10 20 33 20q25 0 25 -28l-9 -203h271q15 0 15 -11q0 -2 -1 -5l-20 -86q-3 -13 -21 -13h-248q-6 -129 -6 -274v-184q0 -107 34 -150t75 -43q66 0 118 25q20 9 25 -4l12 -25q5 -16 -8 -29q-119 -82 -258 -82 q-88 0 -151.5 58.5t-63.5 126.5q0 36 3 156t3 159v266h-119q-28 0 -28 29z" />
<glyph unicode="u" horiz-adv-x="1077" d="M27 803v37q0 9 4.5 12.5t19.5 3.5h246q15 0 31 4t22 4q9 0 15 -7.5t6 -16.5q0 -5 -2.5 -40.5t-4.5 -94.5t-2 -121v-129q0 -10 -1 -53q-1 -29 -1 -49v-19q0 -25 4 -63t13.5 -69t25.5 -55q15 -22 30 -34.5t36.5 -17t30 -5t35.5 -0.5q37 0 77.5 22t65.5 56q22 33 22 65v484 q0 37 -22.5 51.5t-65.5 17.5q-41 4 -41 17v37q0 10 5.5 13t19.5 3h254q15 0 35 4t26 4q17 0 17 -20q0 -3 -3 -31.5t-6.5 -92t-3.5 -153.5v-149q0 -187 5 -238q9 -69 45 -69q40 0 65 4q22 3 25 -9l6 -32q1 -3 1 -6q0 -11 -11 -13l-254 -71q-27 -9 -41 -9q-26 0 -29 25 l-12 115h-13q-34 -57 -113 -98.5t-157 -41.5q-36 0 -55.5 2t-49 9.5t-55 27.5t-51.5 52q-51 66 -63.5 124.5t-12.5 161.5q0 56 1 127t1 86q0 123 -4 148q-8 66 -71 73q-28 3 -36.5 6t-8.5 11z" />
<glyph unicode="v" horiz-adv-x="929" d="M-35 803v43q0 16 21 16q6 0 28.5 -1.5t72.5 -3t124 -1.5q56 0 101 1.5t70.5 3t33.5 1.5q12 0 16 -3.5t4 -12.5v-39q0 -21 -16 -21h-33q-45 0 -45 -34q0 -10 6 -34.5t15.5 -56.5t18 -58t18.5 -56t12 -35q66 -176 102 -266h12q28 65 92.5 226t83.5 224q6 18 6 33 q0 17 -8 31q-14 26 -43 26h-32q-13 0 -13 17v45q0 14 17 14q2 0 58 -3t122 -3q41 0 77.5 1.5t57 3t25.5 1.5q20 0 20 -14v-45q0 -17 -14 -17h-35q-54 0 -78 -22q-32 -32 -172 -326q-15 -31 -101 -225t-89 -201q-22 -43 -51 -43q-18 0 -29.5 11t-24.5 36q-8 14 -85.5 194 t-94.5 224q-13 39 -56.5 150t-54.5 129q-25 44 -42 58.5t-44 14.5h-38q-15 0 -15 17z" />
<glyph unicode="w" horiz-adv-x="1388" d="M-35 801v45q0 16 17 16q7 0 30.5 -1.5t70.5 -3t112 -1.5q58 0 114 3t62 3q16 0 16 -16v-45q0 -15 -16 -15h-21q-16 0 -21.5 -12t1.5 -35l147 -481h12l160 404q6 15 6 31q0 30 -22 61q-15 20 -53 20h-23q-14 0 -14 14v46q0 16 18 16q3 0 29 -1.5t75 -3t107 -1.5 q41 0 76.5 1.5t55 3t24.5 1.5q20 0 20 -16v-43q0 -17 -16 -17h-33q-16 0 -25.5 -14t-3.5 -33l152 -444h8l135 372q14 43 14 72q0 16 -4 27q-12 32 -51 32h-28q-13 0 -13 15v45q0 16 17 16q3 0 26 -1.5t63 -3t83 -1.5q54 0 100 3t47 3q17 0 17 -14v-45q0 -17 -15 -17h-30 q-60 0 -78 -34q-11 -21 -157 -376t-157 -380q-12 -27 -43 -27q-15 0 -23.5 9.5t-17.5 33.5l-204 555h-13l-237 -563q-16 -35 -49 -35q-23 0 -39 43l-281 721q-21 53 -78 53h-34q-15 0 -15 15z" />
<glyph unicode="x" horiz-adv-x="884" d="M-55 12v41q0 17 16 17h41q53 0 88 30q12 9 38 38.5t59.5 71.5t62 78.5t58.5 75.5t36 46q-58 94 -135 202.5t-111 147.5q-26 26 -71 26h-41q-17 0 -17 15v45q0 16 17 16q3 0 28 -1.5t73 -3t108 -1.5q41 0 84.5 1.5t71 3t32.5 1.5q12 0 12 -16v-41q0 -14 -10 -14h-14 q-14 0 -18.5 -10.5t0 -25.5t14.5 -32l106 -176l123 164q19 25 14 52.5t-30 27.5h-25q-12 0 -12 10v47q0 14 14 14q5 0 25 -1.5t59 -3t90 -1.5q38 0 67 1.5t44 3t20 1.5q17 0 17 -14v-45q0 -17 -17 -17h-24q-53 0 -86 -28q-25 -21 -104 -112.5t-128 -158.5q8 -13 45.5 -71 t55 -84t49 -72.5t58 -81t52.5 -63.5q39 -45 82 -45h31q10 0 10 -15v-47q0 -14 -14 -14q-4 0 -25 1.5t-66 3t-108 1.5q-71 0 -137.5 -3t-67.5 -3q-16 0 -16 16v43q0 17 16 17h17q19 0 25 19.5t-9 41.5l-127 207q-39 -44 -92 -121t-61 -98q-7 -15 -7 -26q0 -23 33 -23h31 q10 0 10 -19v-41q0 -16 -16 -16q-5 0 -26.5 1.5t-59 3t-78.5 1.5q-63 0 -112.5 -3t-51.5 -3q-16 0 -16 18z" />
<glyph unicode="y" horiz-adv-x="897" d="M-31 803v45q0 14 17 14q3 0 26.5 -1.5t73.5 -3t117 -1.5q71 0 137.5 3t67.5 3q16 0 16 -16v-45q0 -15 -14 -15h-31q-17 0 -26 -10.5t-5 -32.5q5 -31 70 -251.5t80 -253.5h8q30 62 106.5 251t83.5 220q4 17 4 30q0 47 -47 47h-32q-17 0 -17 15v45q0 16 17 16q2 0 56 -3 t120 -3q41 0 88 3t49 3q14 0 14 -16v-43q0 -17 -12 -17h-25q-46 0 -73 -34q-47 -61 -328 -695q-23 -50 -58 -126t-55.5 -121t-44.5 -96t-40 -84t-27 -52q-2 -3 -10 -16.5t-11 -18t-12 -17.5t-14.5 -18.5t-15.5 -16.5t-18.5 -16t-21 -12.5t-24 -11t-27 -6t-31.5 -2.5 q-55 0 -89 30.5t-34 80.5q0 42 29.5 72t69.5 30q38 0 90 -25q12 -6 28 -5.5t25 9.5q18 18 77.5 143.5t78.5 184.5q-8 39 -124.5 359t-139.5 378q-19 45 -37 65.5t-47 20.5h-41q-17 0 -17 17z" />
<glyph unicode="z" horiz-adv-x="909" d="M27 598l123 289q66 -14 110 -19q111 -12 279 -12h299q15 0 22 -10.5t-2 -22.5l-512 -753h234q122 0 299 219q10 12 22 6l27 -21q6 -5 6 -12q0 -4 -2 -8l-148 -279q-42 14 -213 21q-94 4 -217 4h-262q-35 0 -8 45l496 746h-181q-65 0 -102 -13.5t-85 -59.5t-132 -153 q-10 -13 -21 -6l-28 16q-6 4 -6 13q0 4 2 10z" />
<glyph unicode="{" horiz-adv-x="720" d="M78 610q0 37 33 37q42 0 77 17q62 30 62 147q0 21 -4 48.5t-8 44.5t-13 53t-12 47q-41 135 -41 202q0 139 94 222t262 98q20 0 55 2t48 2q37 0 37 -29q0 -20 -5.5 -28.5t-19.5 -8.5q-37 0 -57 -4q-99 -12 -156 -71.5t-57 -155.5q0 -99 22 -189q23 -102 23 -159 q0 -70 -27.5 -126t-66.5 -79q-13 -10 -36.5 -26.5t-32.5 -25.5t-9 -18q0 -13 10.5 -22.5t33 -24.5t38.5 -31q90 -71 90 -200q0 -59 -23 -168q-22 -96 -22 -191q0 -111 60 -174t149 -80q25 -8 65 -8q14 0 17.5 -8t3.5 -29q0 -14 -6 -21t-23 -7q-9 0 -33 2t-37 2 q-119 6 -205.5 40t-139 106.5t-52.5 178.5q0 96 37 209q3 9 10 33.5t10 34.5t8 31t7 34t4 30.5t2 33.5q0 124 -66 168q-21 17 -73 24q-33 7 -33 37z" />
<glyph unicode="|" horiz-adv-x="716" d="M295 -512v2052q0 16 12 16h105q14 0 14 -20v-2048q0 -20 -12 -20h-107q-12 0 -12 20z" />
<glyph unicode="}" horiz-adv-x="720" d="M53 -322q0 33 25 33q41 0 61 4q96 12 152.5 77t56.5 167q0 74 -20 217q-25 119 -25 156q0 72 27 125t67 80q12 9 29 21t26 18.5t16 15.5t7 18q0 11 -11 20t-33 23.5t-38 30.5q-90 71 -90 201q0 40 25 159q20 142 20 175q0 98 -61 161.5t-148 79.5q-11 0 -32 2t-29 2 q-25 0 -25 33t37 33q7 0 29.5 -2t36.5 -2q175 -9 284 -90.5t109 -227.5q0 -75 -41 -200q-2 -7 -12 -41t-13.5 -47.5t-7.5 -38.5t-4 -45q0 -124 66 -168q22 -17 69 -25q18 0 27.5 -10t9.5 -23q0 -41 -37 -41q-36 0 -74 -12q-61 -27 -61 -151q0 -26 5 -53t17 -74t15 -62 q41 -143 41 -231q0 -146 -96.5 -233.5t-264.5 -102.5q-16 0 -47.5 -2t-50.5 -2q-37 0 -37 32z" />
<glyph unicode="~" d="M111 328q0 152 62 235.5t151 83.5q77 0 155 -45l90 -57q7 -4 26 -17t31 -20t31.5 -14t38.5 -7q96 0 90 168h127q0 -156 -59 -237.5t-145 -81.5q-83 0 -177 61l-77 54q-74 45 -127 45q-39 0 -66 -41.5t-24 -126.5h-127z" />
<glyph unicode="&#xa1;" horiz-adv-x="528" d="M129 743q0 50 34 93t105 43q58 0 94.5 -39t36.5 -101q0 -53 -37 -88t-98 -35q-51 0 -93 33.5t-42 93.5zM135 -401q0 24 49 361t54 446v6t0.5 4.5t2 3.5t3.5 1.5t6 0.5h37q16 0 16 -21q4 -108 47 -438t43 -364q0 -68 -32.5 -112t-94.5 -44q-137 0 -131 156z" />
<glyph unicode="&#xa2;" d="M90 647q0 81 28.5 159.5t82 145t138.5 112.5t189 58l9 201q0 16 12 16h57q12 0 12 -20l-8 -193q84 -1 146.5 -21t93.5 -49t45 -56t14 -50q-6 -86 -94 -86q-86 0 -119 82q-19 46 -39 67t-51 27l-33 -696q50 -4 58 -4q75 0 131 21.5t110 68.5q14 7 21 0l25 -24 q12 -12 0 -29q-51 -59 -144 -106t-205 -50l-12 -229q0 -21 -12 -21h-58q-15 0 -8 21l8 233q-94 6 -163.5 37.5t-126.5 97.5q-63 74 -85 139.5t-22 147.5zM311 741q0 -182 99 -311q29 -43 86 -61l28 680q-86 -3 -149.5 -85.5t-63.5 -222.5z" />
<glyph unicode="&#xa3;" d="M-78 37q0 56 60.5 124.5t119.5 88.5q20 20 52 90.5t55 134.5h-148h-7.5t-5 1.5t-3 3.5t-0.5 7v54q0 5 0.5 7t3 3.5t8.5 1.5h176q11 21 40.5 115t66 210.5t55.5 168.5q56 150 180 251t273 101q113 0 175 -51t62 -109q0 -39 -26 -62.5t-64 -23.5q-92 0 -127 74q-4 8 -10 30 t-11 34t-21 23t-40 11q-50 0 -85.5 -67.5t-79.5 -249.5q-28 -115 -98 -254t-113 -201h290q21 0 21 -12v-54q0 -12 -21 -12h-335q-32 -53 -80.5 -111t-89.5 -96l6 -6q60 6 104 7t82.5 -6.5t64.5 -16.5t58 -32.5t54.5 -43.5t62.5 -59q37 -33 66 -49.5t65 -16.5q25 0 45 19 t28 38q8 25 1.5 33t-29.5 8q-48 0 -77.5 21t-29.5 53q0 40 30 73.5t77 33.5q59 0 103 -41.5t44 -102.5q0 -34 -14 -69t-44 -69.5t-87.5 -56.5t-132.5 -22q-116 0 -187.5 32t-148.5 116q-50 53 -88 73t-84 17q-12 -44 -58 -115q-63 -90 -135 -90q-49 0 -49 41z" />
<glyph unicode="&#xa4;" d="M35 283q-12 12 0 24l180 172q-26 25 -49 84t-23 113q0 68 22 131t64 104l-190 170q-15 15 0 29l55 57q10 13 23 0l190 -176q43 33 103.5 50.5t119.5 17.5q52 0 109.5 -17t89.5 -45l182 170q12 9 21 0l55 -51q14 -14 2 -26l-176 -170q34 -37 57 -98t23 -115 q0 -68 -20 -133t-56 -107l176 -168q3 -3 3 -10t-3 -10l-57 -62q-12 -13 -25 0l-182 168q-40 -29 -102.5 -44t-120.5 -15q-54 0 -114 17.5t-99 53.5l-176 -180q-5 -5 -13 -4.5t-12 4.5zM311 692q0 -107 58.5 -173t148.5 -66q95 0 151 64.5t56 174.5q0 107 -57 171.5 t-150 64.5q-97 0 -152 -65t-55 -171z" />
<glyph unicode="&#xa5;" d="M-66 1307v51q0 16 17 16q4 0 36 -1.5t83 -3t102 -1.5q71 0 131 1.5t93.5 3t37.5 1.5q12 0 12 -14v-47q0 -21 -14 -21h-35q-43 0 -59 -17.5t-8 -45.5q7 -29 102.5 -241t128.5 -275h4q13 30 74 152t115 231.5t57 126.5q6 31 -12.5 50t-57.5 19h-49q-16 0 -16 19v47 q0 16 16 16q4 0 34 -1.5t77 -3t94 -1.5q52 0 93.5 1.5t63 3t27.5 1.5q17 0 17 -14v-47q0 -21 -17 -21h-41q-43 0 -84 -45q-30 -30 -342 -588h279q16 0 16 -12v-53q0 -12 -16 -12h-291v-136h291q16 0 16 -12v-53q0 -12 -16 -12h-291l2 -228q0 -39 19 -52t53 -13h74 q16 0 16 -13v-53q0 -16 -16 -16q-7 0 -35.5 1.5t-82 3t-120.5 1.5q-79 0 -138.5 -1.5t-88.5 -3t-35 -1.5q-12 0 -12 20v49q0 13 16 13h86q27 0 42 13.5t15 37.5v242h-295q-8 0 -10 2.5t-2 9.5v53q0 12 12 12h295v136h-295q-12 0 -12 16v49q0 12 16 12h275 q-56 112 -168 327.5t-139 256.5q-13 20 -37.5 34.5t-48.5 14.5h-37q-17 0 -17 15z" />
<glyph unicode="&#xa6;" horiz-adv-x="716" d="M295 -338v676q0 20 14 20h105q12 0 12 -20v-676q0 -20 -14 -20h-105q-12 0 -12 20zM295 686v676q0 20 12 20h103q9 0 12.5 -4t3.5 -16v-676q0 -20 -12 -20h-103q-9 0 -12.5 4t-3.5 16z" />
<glyph unicode="&#xa7;" horiz-adv-x="1105" d="M143 709q0 99 50.5 171t121.5 107q-53 63 -53 195q0 99 82 188q58 64 130.5 87.5t176.5 23.5q100 0 167 -39.5t67 -95.5q0 -43 -28 -64.5t-71 -21.5q-42 0 -64 18.5t-54 67.5q-41 61 -95 61q-64 0 -113.5 -49.5t-49.5 -124.5q0 -24 3.5 -45.5t15 -42t19.5 -35t30.5 -34.5 t35 -31t45 -32.5t48 -31t58 -35.5t60.5 -37q123 -80 182 -163t56 -189q5 -203 -189 -291q78 -90 78 -211q0 -139 -98 -237q-48 -48 -125 -71t-154 -23q-112 0 -185 33.5t-73 92.5q0 42 25 66.5t65 24.5q74 0 119 -70q47 -66 106 -66q60 0 108 40.5t48 125.5q0 54 -18.5 98 t-57.5 82t-77 66t-100 71.5t-103 76.5q-189 152 -189 344zM279 782q0 -54 27.5 -101.5t90.5 -98.5q69 -56 150 -115t124.5 -91.5t57.5 -51.5q37 12 65.5 54t28.5 85q0 24 -3 42t-15 47t-42.5 61t-78.5 67q-46 32 -108.5 74t-89 60t-59 41.5t-49.5 40t-30 34.5 q-69 -44 -69 -148z" />
<glyph unicode="&#xa8;" horiz-adv-x="712" d="M59 1202q0 38 29.5 74.5t91.5 36.5q45 0 77 -31.5t32 -87.5q0 -49 -30.5 -76.5t-78.5 -27.5q-45 0 -83 25.5t-38 86.5zM424 1202q0 38 29.5 74.5t91.5 36.5q45 0 76.5 -31.5t31.5 -87.5q0 -49 -31.5 -76.5t-76.5 -27.5t-83 25.5t-38 86.5z" />
<glyph unicode="&#xa9;" horiz-adv-x="1671" d="M86 723q0 211 100 385.5t272 273.5t378 99q215 0 385.5 -95t267 -267t96.5 -392q0 -157 -53.5 -296t-149.5 -241.5t-237.5 -161.5t-308.5 -59q-168 0 -310 59t-237.5 161t-149 240t-53.5 294zM205 727q0 -102 21.5 -191.5t58 -156.5t86.5 -121.5t106.5 -91t119 -61 t122 -35.5t117.5 -11q133 0 242 42t179 109t117.5 155.5t67.5 178t20 179.5q0 138 -41 253t-106 190t-149 127t-167 75t-163 23q-131 0 -247 -48.5t-200.5 -134t-134 -210.5t-49.5 -271zM385 733q0 191 135 320q127 127 328 127q71 0 133.5 -21t87.5 -41q9 -7 17.5 -6.5 t11.5 6.5l6 29q3 12 26 12q22 0 25 -10q2 -20 17 -134t16 -126q0 -15 -8 -17l-29 -6q-13 -4 -16 6q-40 98 -99 152q-76 82 -192 82q-77 0 -138 -49.5t-91.5 -127.5t-28.5 -167q10 -191 94 -275q102 -102 213 -102q174 0 299 135q10 10 18 2l23 -18q5 -5 -4 -21 q-147 -209 -381 -209q-99 0 -184 30t-140 85q-139 139 -139 344z" />
<glyph unicode="&#xaa;" horiz-adv-x="716" d="M57 989q0 70 103 127q98 49 209 49q87 0 155 -41q29 -20 43.5 -60t14.5 -83q0 -10 -2 -87.5t-2 -82.5v-49q0 -144 40 -144q7 0 13.5 2.5t12 8t8.5 9t9 11.5t7 10q0 15 12 9l29 -13q9 0 4 -16q-41 -98 -156 -98q-54 0 -83.5 21t-51.5 61v4q-78 -71 -148 -82q-25 -4 -86 -4 q-45 0 -81.5 40t-36.5 87q0 107 159 176q158 65 185 74l4 75q0 45 -33 78q-33 25 -82 25q-23 0 -46.5 -9t-35.5 -24q-7 -9 -8 -20t1.5 -27t2.5 -23q0 -27 -24 -46t-70 -19q-66 0 -66 61zM242 700q0 -73 65 -73q27 0 61.5 19.5t49.5 41.5l-4 168q-31 -11 -52.5 -20.5 t-53 -28.5t-49 -46.5t-17.5 -60.5z" />
<glyph unicode="&#xab;" horiz-adv-x="868" d="M57 434q0 12 13 25l303 307q8 8 12 8t8 -4l41 -33q4 -4 4 -8q0 -2 -2 -6t-2 -6l-155 -283l155 -282q4 -4 4 -13q0 -8 -4 -8l-41 -33l-8 -4l-16 8l-299 312q-13 13 -13 20zM406 434q0 13 12 25l303 307q8 8 12 8t8 -4l41 -33q4 -4 4 -8q0 -2 -2 -6t-2 -6l-155 -283 l155 -282q4 -4 4 -13q0 -8 -4 -8l-41 -33l-8 -4q-4 0 -12 8l-303 312q-12 12 -12 20z" />
<glyph unicode="&#xac;" d="M111 596v135h802v-479h-147v344h-655z" />
<glyph unicode="&#xad;" horiz-adv-x="823" d="M102 494v106q0 16 17 16h573q25 0 25 -20v-96q0 -19 -25 -19h-573q-17 0 -17 13z" />
<glyph unicode="&#xae;" horiz-adv-x="1155" d="M92 1010q0 200 139.5 335.5t348.5 135.5q215 0 349 -131t134 -338q0 -202 -132 -336.5t-351 -134.5q-224 0 -356 134t-132 335zM186 1012q0 -87 25 -157.5t65 -115t93 -74.5t105.5 -42.5t105.5 -12.5q86 0 155 25t112.5 65.5t72.5 94t41 107t12 108.5q-1 84 -26.5 153 t-65 114t-91.5 76t-104.5 44.5t-105.5 13.5q-172 0 -283 -109.5t-111 -289.5zM338 754v20q0 8 6 8h14q21 0 31 7.5t10 33.5v275v123q0 36 -41 36h-12q-8 0 -8 5v24q0 8 8 8q1 0 47.5 -2t55.5 -2q5 0 68 2t71 2q126 0 168 -45q37 -43 37 -90q0 -68 -43.5 -105.5t-96.5 -49.5 v-5q31 -19 41 -30q18 -22 61 -86.5t66 -87.5q13 -13 43 -13q10 0 10 -10v-18q0 -9 -8 -9q-1 0 -25.5 2.5t-45.5 2.5q-16 0 -41 -2.5t-31 -2.5q-16 13 -50 63t-44 73q-28 55 -47 80q-19 26 -43 26h-25v-41q0 -123 2 -135q4 -29 23 -29h32q9 0 9 -8v-20q0 -9 -13 -9 q-2 0 -22.5 1.5t-47 2.5t-44.5 1q-22 0 -63 -2l-42 -3q-10 0 -10 9zM514 1024h33q37 -1 64 12.5t39.5 35t18 39.5t5.5 32q0 48 -31 76q-45 38 -92 38q-13 0 -37 -4v-229z" />
<glyph unicode="&#xaf;" horiz-adv-x="610" d="M61 1098v104q0 12 17 12h450q21 0 21 -12v-104q0 -13 -25 -13h-446q-17 0 -17 13z" />
<glyph unicode="&#xb0;" horiz-adv-x="638" d="M82 1260q0 94 66 157.5t171 63.5q111 0 174.5 -59t63.5 -154q0 -97 -67 -161.5t-175 -64.5t-170.5 60.5t-62.5 157.5zM188 1264q0 -60 40 -102t91 -42q53 0 92.5 41.5t39.5 102.5q0 57 -40.5 96t-91.5 39t-91 -39t-40 -96z" />
<glyph unicode="&#xb1;" d="M111 16v136h802v-136h-802zM111 596v135h327v273h148v-273h327v-135h-327v-289h-148v289h-327z" />
<glyph unicode="&#xb2;" horiz-adv-x="712" d="M7.5 830.5q-2.5 11.5 8.5 23.5q3 3 30.5 27t41.5 36.5t43.5 40t51.5 49.5t50.5 52t53.5 59q135 155 135 279q0 66 -37 106.5t-94 40.5q-91 0 -168 -86q-12 -18 -25 -12l-24 16q-10 5 -4 17q9 23 29.5 50t56 59.5t91.5 53.5t122 21q105 0 177 -58.5t72 -166.5 q0 -147 -172 -303q-79 -73 -217 -181v-4h209q71 0 105.5 17.5t62.5 56.5q5 11 13.5 11.5t19.5 -3.5q15 -6 18 -11t-2 -17l-82 -197q-4 -12 -28 -12q-21 0 -29 12q-11 16 -110 16h-271q-26 0 -69 -2t-46 -2q-10 0 -12.5 11.5z" />
<glyph unicode="&#xb3;" horiz-adv-x="712" d="M49 928q0 31 19 52t47 21q15 0 26.5 -4t19 -13.5t11.5 -16t9 -19.5t7 -16q6 -26 32 -44t67 -18q63 0 109 48.5t46 109.5q0 83 -40.5 134.5t-114.5 66.5q-33 5 -33 28q0 29 25 29q59 6 97 51.5t38 100.5q0 52 -32.5 87.5t-78.5 35.5q-50 0 -89 -28.5t-62 -74.5 q-14 -21 -25 -16l-29 8q-8 4 -8 20q8 31 27.5 62t51.5 62t84 50t116 19q111 0 166 -51.5t55 -112.5q0 -73 -46 -128t-118 -81v-8q86 -12 147.5 -70t61.5 -137q0 -121 -100.5 -195.5t-268.5 -74.5q-116 0 -166.5 37t-50.5 86z" />
<glyph unicode="&#xb4;" horiz-adv-x="565" d="M156 1016q-8 8 0 16l166 246q47 68 100 65q38 2 63 -27t20 -70.5t-46 -69.5l-262 -181q-3 -3 -8.5 -3t-8.5 3z" />
<glyph unicode="&#xb5;" horiz-adv-x="1089" d="M139 821q0 33 33 33h164q37 0 37 -37q0 -2 -1 -51t-2 -108t-1 -85v-159q0 -12 -0.5 -45.5t0 -47t2 -41t4.5 -44t9 -37.5t15 -39q41 -74 125 -74q40 0 84 24.5t72 61.5q20 27 20 66l-4 411q0 52 -4 107.5t-4 64.5q0 15 9 24t24 9h151q46 0 46 -33q0 -5 -1 -41.5 t-2.5 -95.5t-1.5 -119v-147v-242q5 -86 50 -86q30 0 65 21q11 11 21 -9l12 -24q9 -14 -17 -33q-70 -70 -180 -70q-55 0 -96.5 44t-54.5 104h-8q-36 -64 -104 -106t-130 -42q-88 0 -131 58l-4 -4q0 -115 5 -233t10 -192t5 -83q0 -16 -4.5 -23.5t-19.5 -13.5l-131 -33 q-24 -8 -37 -8q-17 0 -17 20q7 523 7 899v119q0 103 -7.5 220.5t-7.5 119.5z" />
<glyph unicode="&#xb6;" horiz-adv-x="1175" d="M102 958q0 118 36.5 205t100.5 141.5t166 87.5t217.5 45.5t270.5 12.5h184q33 0 33 -12v-41q0 -9 -3.5 -11.5t-16.5 -5.5h-119v-1640q0 -16 -17 -16h-61q-9 0 -10.5 5t-1.5 27v1620q-78 0 -144 -8v-1616q0 -12 -0.5 -16.5t-3 -8t-8.5 -3.5h-61q-17 0 -17 32v723 q-47 3 -88.5 8.5t-99 20t-104.5 35.5t-96 58t-82 84.5t-54 117.5t-21 155z" />
<glyph unicode="&#xb7;" horiz-adv-x="548" d="M131 729q0 48 37 93.5t111 45.5q57 0 98 -41t41 -106q0 -60 -39 -97.5t-96 -37.5q-60 0 -106 38.5t-46 104.5z" />
<glyph unicode="&#xb8;" horiz-adv-x="602" d="M61 -442q0 17 16.5 22.5t49.5 5.5q59 0 109.5 30t50.5 81q0 78 -131 102l159 201h107l-119 -135q67 -15 109.5 -56.5t42.5 -91.5q0 -61 -53 -107.5t-132.5 -69.5t-167.5 -23q-23 0 -32 10.5t-9 30.5z" />
<glyph unicode="&#xb9;" horiz-adv-x="712" d="M78 1479q-5 10 8 16l332 154q28 14 39 14q14 0 14 -21q0 -1 -1 -58.5t-2 -144t-1 -157.5v-319q0 -50 13 -62t65 -12h45q12 0 12 -10v-48q0 -12 -12 -12q-2 0 -39.5 1t-92.5 2t-98 1q-41 0 -95 -1t-91 -2t-39 -1q-16 0 -16 12v48q0 10 20 10h58q57 0 69.5 10.5t12.5 54.5 q0 5 2 119.5t2 138.5v54q0 129 -4 159q-4 45 -33 45q-21 0 -58 -12l-69 -24q-18 -6 -21 0z" />
<glyph unicode="&#xba;" horiz-adv-x="786" d="M55 854q0 58 25.5 121t81.5 108q100 82 241 82q62 0 129 -23t105 -55q94 -81 94 -223q0 -144 -98.5 -233.5t-253.5 -89.5q-144 0 -246 102q-78 78 -78 211zM244 889q0 -137 32 -209q17 -39 50 -58.5t65 -19.5q68 -3 108 61t40 162q0 131 -41.5 205t-98.5 74t-94 -37 q-29 -29 -45 -78.5t-16 -99.5z" />
<glyph unicode="&#xbb;" horiz-adv-x="868" d="M82 139q0 5 8 13l156 282l-160 283q0 2 -2 6t-2 6q0 8 8 8l41 33q0 4 8 4q5 0 13 -8l303 -311q12 -12 12 -21q0 -8 -16 -24l-299 -308q-8 -8 -13 -8q-4 0 -12 8l-37 29q-1 1 -3.5 2.5t-3.5 2.5t-1 3zM430 139q0 5 8 13l156 282l-160 283q0 2 -2 6t-2 6q0 8 8 8l41 33 q0 4 8 4q5 0 13 -8l303 -311q12 -12 12 -21q0 -8 -16 -24l-299 -308q-8 -8 -13 -8q-4 0 -12 8l-37 29q-1 1 -3.5 2.5t-3.5 2.5t-1 3z" />
<glyph unicode="&#xbc;" horiz-adv-x="1585" d="M49 1214q-5 10 8 17l332 153q30 15 39 15q14 0 14 -21q0 -1 -1 -58.5t-2 -144t-1 -157.5v-320q0 -49 12.5 -61t65.5 -12h45q12 0 12 -11v-49q0 -12 -12 -12q-3 0 -49.5 1.5t-101.5 3t-78 1.5q-24 0 -124.5 -3t-101.5 -3q-16 0 -16 12v49q0 11 21 11h57q57 0 69.5 10.5 t12.5 54.5q0 5 2 119.5t2 138.5v53q0 115 -4 160q-7 45 -33 45q-19 0 -57 -12l-70 -25q-17 -6 -20 0zM360 18q0 4 5.5 14t7.5 15l827 1335q8 17 17 17q2 0 6 -2t6 -2q37 -21 45 -25q20 -15 20 -20t-8 -21l-831 -1339q-3 -8 -8.5 -14.5t-8.5 -6.5q-12 0 -28 8q-4 4 -21 16.5 t-20 12.5q-9 9 -9 12zM817 213q0 18 25 47l456 555q20 25 41 25q33 0 33 -45v-484h111q12 0 12 -16v-90q0 -21 -20 -21h-103v-159q0 -15 -4 -20t-16 -5h-127q-17 0 -17 20v164h-362q-12 0 -20.5 8.5t-8.5 20.5zM988 322.5q4 -11.5 20 -11.5h200v254q0 16 -11 19t-26 -15 l-178 -225q-9 -10 -5 -21.5z" />
<glyph unicode="&#xbd;" horiz-adv-x="1585" d="M29 1214q-5 10 8 17l332 153q30 15 39 15q14 0 14 -21q0 -1 -1 -58.5t-2 -144t-1 -157.5v-320q0 -49 12.5 -61t65.5 -12h45q12 0 12 -11v-49q0 -12 -12 -12q-3 0 -49.5 1.5t-102 3t-78.5 1.5q-24 0 -124 -3t-101 -3q-16 0 -16 12v49q0 11 20 11h57q57 0 69.5 10.5 t12.5 54.5q0 5 2 119.5t2 138.5v53q0 115 -4 160q-7 45 -32 45q-21 0 -58 -12l-69 -25q-18 -6 -21 0zM311 18q0 5 8 29l828 1335q9 17 16 17q2 0 6.5 -2t6.5 -2q3 0 22.5 -11t22.5 -14q20 -12 20 -20q0 -13 -8 -21l-827 -1339q-14 -21 -21 -21q-13 0 -25 8l-41 29 q-8 4 -8 12zM872 8q0 16 17 25q6 6 46 41.5t68.5 61.5t72.5 71t79 88q135 148 135 278q0 66 -37 107t-94 41q-94 0 -166 -86q-15 -18 -26 -12l-25 16q-8 8 -4 16q9 23 29.5 50.5t56 60t91.5 53.5t122 21q105 0 177.5 -59t72.5 -167q0 -147 -172 -303q-40 -37 -78.5 -69.5 t-58.5 -48.5t-47.5 -37t-32.5 -25v-4h209q71 0 105.5 17.5t62.5 56.5q5 11 13 11.5t19 -3.5q16 -6 19 -11.5t-2 -17.5l-82 -196q-4 -13 -29 -13q-20 0 -29 13q-11 16 -110 16h-270q-27 0 -70 -2t-45 -2q-17 0 -17 12z" />
<glyph unicode="&#xbe;" horiz-adv-x="1585" d="M49 664q0 31 19 52t47 21q15 0 26.5 -4t19 -13.5t11.5 -16t9 -19.5t7 -16q6 -26 32 -44t67 -18q63 0 109 48.5t46 109.5q0 83 -40.5 134.5t-114.5 66.5q-33 5 -33 28q0 29 25 29q59 6 97 51.5t38 100.5q0 52 -32.5 87t-78.5 35q-99 0 -153 -106q-11 -22 -23 -16l-31 12 q-10 5 -6 20q8 31 27.5 62t51.5 62t84 50t116 19q111 0 166 -51.5t55 -112.5q0 -73 -46 -128t-118 -81v-8q86 -12 147.5 -70t61.5 -137q0 -121 -100.5 -195.5t-268.5 -74.5q-116 0 -166.5 37t-50.5 86zM360 23q0 4 5.5 13.5t7.5 14.5l827 1331q8 17 17 17q12 0 24 -8 q40 -20 49 -29q4 -4 4 -8q0 -5 -8 -21l-827 -1339q-13 -25 -21 -25q-2 0 -6 2t-6 2q-37 25 -45 29q-21 14 -21 21zM817 213q0 18 25 47l456 555q20 25 41 25q33 0 33 -45v-484h111q12 0 12 -16v-90q0 -21 -20 -21h-103v-159q0 -15 -4 -20t-16 -5h-127q-17 0 -17 20v164h-362 q-12 0 -20.5 8.5t-8.5 20.5zM988 322.5q4 -11.5 20 -11.5h200v254q0 16 -11 19t-26 -15l-178 -225q-9 -10 -5 -21.5z" />
<glyph unicode="&#xbf;" horiz-adv-x="753" d="M70 -16q0 74 28 127.5t59.5 79.5t95.5 41t92 17t93 4q14 1 21 1q16 0 16 16v185q0 16 17 16h45q12 0 12 -16v-398q0 -18 -6.5 -22.5t-22.5 -1.5q-37 8 -127 8q-32 0 -65.5 -7t-66 -22.5t-53 -45t-20.5 -68.5q0 -104 115 -168q60 -39 107.5 -52.5t113.5 -13.5t109 -32.5 t43 -86.5q0 -37 -29.5 -69.5t-85.5 -32.5q-67 0 -152.5 49t-160.5 124t-126.5 175.5t-51.5 192.5zM365 756q0 50 35.5 86.5t99.5 36.5q53 0 92 -35.5t39 -87.5t-35 -85.5t-100 -33.5q-61 0 -96 31.5t-35 87.5z" />
<glyph unicode="&#xc0;" horiz-adv-x="1523" d="M-33 20v39q0 17 13 17h61q42 0 72.5 22t58.5 70q16 30 101 242.5t128 334.5q16 46 201 537q1 3 3 13.5t3.5 17t2.5 15t-0.5 15t-4.5 9.5q-12 12 -12 24q0 16 20 21q47 11 115 46.5t88 55.5q21 21 31 21q12 0 24 -37q17 -60 116 -354t118 -363q40 -130 114 -343.5 t95 -252.5q50 -94 131 -94h65q17 0 17 -15v-43q0 -24 -21 -24q-10 0 -40.5 1.5t-97 3t-165.5 1.5q-102 0 -190.5 -3t-95.5 -3q-21 0 -21 24v41q0 17 16 17h54q43 0 56.5 17.5t4.5 58.5q-23 108 -123 411h-475q-118 -348 -127 -395q-4 -16 -4 -43q0 -20 21.5 -34.5 t52.5 -14.5h86q20 0 20 -10v-52q0 -20 -16 -20l-86 3q-86 3 -172 3q-67 0 -116 -1.5t-74.5 -3t-34.5 -1.5q-13 0 -13 26zM365 1831q0 33 28 63.5t66 30.5q49 0 86 -37l274 -266q10 -10 4 -16l-22 -31q-6 -9 -19 -2l-348 160q-29 13 -49 41.5t-20 56.5zM459 645h426 q-44 131 -172 567q-12 37 -21 37q-17 0 -26 -26q-3 -11 -101 -281.5t-106 -296.5z" />
<glyph unicode="&#xc1;" horiz-adv-x="1523" d="M-33 20v39q0 17 13 17h61q42 0 72.5 22t58.5 70q16 30 101 242.5t128 334.5q16 46 201 537q1 3 3 13.5t3.5 17t2.5 15t-0.5 15t-4.5 9.5q-12 12 -12 24q0 16 20 21q47 11 115 46.5t88 55.5q21 21 31 21q12 0 24 -37q17 -60 116 -354t118 -363q40 -130 114 -343.5 t95 -252.5q50 -94 131 -94h65q17 0 17 -15v-43q0 -24 -21 -24q-10 0 -40.5 1.5t-97 3t-165.5 1.5q-102 0 -190.5 -3t-95.5 -3q-21 0 -21 24v41q0 17 16 17h54q43 0 56.5 17.5t4.5 58.5q-23 108 -123 411h-475q-118 -348 -127 -395q-4 -16 -4 -43q0 -20 21.5 -34.5 t52.5 -14.5h86q20 0 20 -10v-52q0 -20 -16 -20l-86 3q-86 3 -172 3q-67 0 -116 -1.5t-74.5 -3t-34.5 -1.5q-13 0 -13 26zM459 645h426q-44 131 -172 567q-12 37 -21 37q-17 0 -26 -26q-3 -11 -101 -281.5t-106 -296.5zM655.5 1614q1.5 5 6.5 8l280 268q15 15 39.5 25 t46.5 10q36 0 62 -29t26 -65q0 -27 -20 -54t-56 -44l-344 -160q-8 -6 -14 0l-25 33q-3 3 -1.5 8z" />
<glyph unicode="&#xc2;" horiz-adv-x="1523" d="M-33 20v39q0 17 13 17h61q42 0 72.5 22t58.5 70q16 30 101 242.5t128 334.5q16 46 201 537q1 3 3 13.5t3.5 17t2.5 15t-0.5 15t-4.5 9.5q-12 12 -12 24q0 16 20 21q47 11 115 46.5t88 55.5q21 21 31 21q12 0 24 -37q17 -60 116 -354t118 -363q40 -130 114 -343.5 t95 -252.5q50 -94 131 -94h65q17 0 17 -15v-43q0 -24 -21 -24q-10 0 -40.5 1.5t-97 3t-165.5 1.5q-102 0 -190.5 -3t-95.5 -3q-21 0 -21 24v41q0 17 16 17h54q43 0 56.5 17.5t4.5 58.5q-23 108 -123 411h-475q-118 -348 -127 -395q-4 -16 -4 -43q0 -20 21.5 -34.5 t52.5 -14.5h86q20 0 20 -10v-52q0 -20 -16 -20l-86 3q-86 3 -172 3q-67 0 -116 -1.5t-74.5 -3t-34.5 -1.5q-13 0 -13 26zM459 645h426q-44 131 -172 567q-12 37 -21 37q-17 0 -26 -26q-3 -11 -101 -281.5t-106 -296.5zM487 1597q-8 11 2 21l263 258q24 16 28 16q9 0 33 -24 l268 -252q9 -8 0 -17l-14 -18q-5 -10 -16 -4l-275 111l-254 -111q-13 -7 -20 0z" />
<glyph unicode="&#xc3;" horiz-adv-x="1523" d="M-33 20v39q0 17 13 17h61q42 0 72.5 22t58.5 70q16 30 101 242.5t128 334.5q16 46 201 537q1 3 3 13.5t3.5 17t2.5 15t-0.5 15t-4.5 9.5q-12 12 -12 24q0 16 20 21q47 11 115 46.5t88 55.5q21 21 31 21q12 0 24 -37q17 -60 116 -354t118 -363q40 -130 114 -343.5 t95 -252.5q50 -94 131 -94h65q17 0 17 -15v-43q0 -24 -21 -24q-10 0 -40.5 1.5t-97 3t-165.5 1.5q-102 0 -190.5 -3t-95.5 -3q-21 0 -21 24v41q0 17 16 17h54q43 0 56.5 17.5t4.5 58.5q-23 108 -123 411h-475q-118 -348 -127 -395q-4 -16 -4 -43q0 -20 21.5 -34.5 t52.5 -14.5h86q20 0 20 -10v-52q0 -20 -16 -20l-86 3q-86 3 -172 3q-67 0 -116 -1.5t-74.5 -3t-34.5 -1.5q-13 0 -13 26zM440 1626q12 91 62 150t119 59q19 0 40.5 -3.5t37.5 -7.5t48.5 -12.5t53.5 -13.5q24 -6 58 -15t54.5 -13.5t38.5 -4.5q58 0 74 74q0 12 12 12h37 q6 0 6.5 -7t-2.5 -29q-10 -79 -51.5 -137t-107.5 -58q-19 0 -42.5 3.5t-39.5 7t-54 13t-57 13.5q-101 29 -143 29q-29 0 -51 -21.5t-31 -62.5q-6 -13 -17 -13h-36q-14 0 -9 37zM459 645h426q-44 131 -172 567q-12 37 -21 37q-17 0 -26 -26q-3 -11 -101 -281.5t-106 -296.5z " />
<glyph unicode="&#xc4;" horiz-adv-x="1523" d="M-33 20v39q0 17 13 17h61q42 0 72.5 22t58.5 70q16 30 101 242.5t128 334.5q16 46 201 537q1 3 3 13.5t3.5 17t2.5 15t-0.5 15t-4.5 9.5q-12 12 -12 24q0 16 20 21q47 11 115 46.5t88 55.5q21 21 31 21q12 0 24 -37q17 -60 116 -354t118 -363q40 -130 114 -343.5 t95 -252.5q50 -94 131 -94h65q17 0 17 -15v-43q0 -24 -21 -24q-10 0 -40.5 1.5t-97 3t-165.5 1.5q-102 0 -190.5 -3t-95.5 -3q-21 0 -21 24v41q0 17 16 17h54q43 0 56.5 17.5t4.5 58.5q-23 108 -123 411h-475q-118 -348 -127 -395q-4 -16 -4 -43q0 -20 21.5 -34.5 t52.5 -14.5h86q20 0 20 -10v-52q0 -20 -16 -20l-86 3q-86 3 -172 3q-67 0 -116 -1.5t-74.5 -3t-34.5 -1.5q-13 0 -13 26zM436 1733q0 35 31 70.5t96 35.5q43 0 75 -31t32 -84q0 -49 -31.5 -81.5t-75.5 -32.5q-21 0 -41 6t-40.5 18.5t-33 38t-12.5 60.5zM459 645h426 q-44 131 -172 567q-12 37 -21 37q-17 0 -26 -26q-3 -11 -101 -281.5t-106 -296.5zM870 1733q0 35 31 70.5t96 35.5q43 0 77 -31.5t34 -83.5q0 -48 -33.5 -81t-77.5 -33q-21 0 -41 6t-40.5 18.5t-33 38t-12.5 60.5z" />
<glyph unicode="&#xc5;" horiz-adv-x="1523" d="M-33 20v39q0 17 13 17h61q42 0 72.5 22t58.5 70q16 30 101 242.5t128 334.5q16 46 201 537q1 3 3 13.5t3.5 17t2.5 15t-0.5 15t-4.5 9.5q-12 12 -12 24q0 16 20 19q149 17 174 24q17 6 41 18.5t33 12.5q13 0 20 -11.5t17 -41.5q166 -488 207 -631q40 -130 114 -343.5 t95 -252.5q50 -94 131 -94h65q17 0 17 -15v-43q0 -24 -21 -24q-10 0 -40.5 1.5t-97 3t-165.5 1.5q-102 0 -190.5 -3t-95.5 -3q-21 0 -21 24v41q0 17 16 17h54q43 0 56.5 17.5t4.5 58.5q-23 108 -123 411h-475q-118 -348 -127 -395q-4 -16 -4 -43q0 -20 21.5 -34.5 t52.5 -14.5h86q20 0 20 -10v-52q0 -20 -16 -20l-86 3q-86 3 -172 3q-67 0 -116 -1.5t-74.5 -3t-34.5 -1.5q-13 0 -13 26zM459 645h426q-44 131 -172 567q-12 37 -21 37q-17 0 -26 -26q-3 -11 -101 -281.5t-106 -296.5zM520 1714q0 82 73 134.5t179 52.5t165.5 -47t59.5 -119 q0 -51 -23.5 -89.5t-61.5 -59t-78 -30.5t-80 -10q-99 0 -166.5 46.5t-67.5 121.5zM670 1724q0 -51 24 -80.5t70 -29.5q45 0 69.5 28.5t24.5 81.5q0 51 -27 80t-63 29q-48 -1 -73 -33t-25 -76z" />
<glyph unicode="&#xc6;" horiz-adv-x="1918" d="M-139 8v53q0 15 16 15h62q28 0 53.5 24.5t56.5 67.5q24 30 328 577q26 49 99.5 177.5t131 231.5t66.5 124q20 50 12.5 74t-35.5 24h-37q-16 0 -16 15v47q0 18 25 18l43 -1q42 -1 77 -1q118 -4 179 -4h688q25 0 53 4q7 0 17 1t12 1q13 0 16 -10q89 -322 90 -328 q3 -15 -4 -20l-35 -21q-10 -7 -22 13q-5 9 -101.5 114t-115.5 115q-27 24 -68.5 38.5t-79.5 14.5l-307 4l-4 -645q195 0 237 10q38 9 59.5 22.5t35.5 47.5q7 16 19.5 58.5t12.5 56.5q0 16 17 16l53 -4q19 0 16 -16q-8 -37 -8 -222q0 -92 13 -225q0 -13 -17 -16l-45 -10 q-10 -3 -16 14q-1 5 -16 51t-17 55q-7 29 -35.5 48t-66.5 24q-59 8 -242 8v-55q0 -65 4 -202t4 -146q0 -81 18.5 -115.5t55.5 -44.5q66 -16 172 -16q70 0 160 8q71 6 159 69q21 14 96 102t93 116q10 13 24 4l29 -17q12 -6 12 -16l-104 -313q-9 -29 -39 -29q-4 0 -30 0.5 t-82 1.5t-139.5 2t-231 1.5t-328.5 0.5q-98 0 -185 -3t-90 -3q-12 0 -16 3.5t-4 14.5v49q0 15 20 15h107q33 0 43 16.5t10 71.5v485h-393q-58 -106 -129 -253.5t-84 -182.5q-20 -53 -20 -92q0 -23 17.5 -34t39.5 -11h78q20 0 20 -17v-51q0 -14 -20 -14q-7 0 -33 1.5t-77 3 t-120 1.5q-56 0 -105 -1.5t-78.5 -3t-37.5 -1.5q-16 0 -16 14zM471 731h348v551q0 29 -16 29q-19 0 -31 -21z" />
<glyph unicode="&#xc7;" horiz-adv-x="1482" d="M86 715q0 321 209 549q91 98 225 157.5t307 59.5q127 0 235.5 -30t178.5 -69q22 -12 30 -12t11 12l16 54q3 9 8 10.5t25 1.5q19 0 24 -5.5t5 -27.5q0 -52 49 -426q3 -17 -8 -20l-39 -13q-13 -5 -23 21q-52 154 -159 266q-76 72 -160.5 112t-196.5 40q-95 0 -173.5 -33 t-131.5 -89.5t-89 -132.5t-52.5 -160t-16.5 -175q0 -75 14 -158.5t59.5 -191t115.5 -183.5q91 -96 175.5 -127.5t176.5 -31.5q160 0 290.5 68t199.5 169q16 23 24 15l35 -31q10 -10 4 -21q-48 -68 -104 -124.5t-128 -106t-161.5 -78.5t-188.5 -33l-98 -118q78 -15 123 -56 t45 -92q0 -61 -55.5 -108t-141.5 -70t-184 -23q-45 0 -45 41q0 20 19 26.5t55 6.5q56 0 105.5 30t49.5 81q0 37 -33 63.5t-94 38.5l146 182q-151 8 -257 56t-200 133q-107 95 -164 250.5t-57 302.5z" />
<glyph unicode="&#xc8;" horiz-adv-x="1404" d="M86 10v49q0 17 20 17h70q69 0 86 15t17 73v487v201q0 386 -9 451q-6 41 -25 56t-65 15h-78q-12 0 -12 15v53q0 14 12 14q1 0 93.5 -3.5t193.5 -2.5h57q45 0 326 2t326 2q19 0 49.5 1t32.5 1q13 0 16 -12q2 -7 25 -88t44 -155t25 -83q5 -16 -6 -22l-37 -17q-9 -3 -18 11 q-12 17 -102.5 113.5t-122.5 115.5q-87 51 -156 53l-311 8l-5 -592q188 0 234 11q35 6 55.5 21.5t38.5 51.5q33 74 33 115q0 17 16 17l54 -5q15 0 12 -16q-4 -33 -4 -221q0 -90 12 -225q0 -12 -16 -15l-45 -8q-11 -3 -17 14q-13 52 -33 103q-14 31 -41 51t-61 23 q-111 12 -238 12l3 -123q6 -333 6 -348q0 -138 82 -160q66 -16 159 -16q90 0 172 8q36 4 84 21.5t84 47.5q25 22 89.5 97t101.5 121q11 14 22 8l33 -21q9 -6 4 -20l-98 -307q-10 -31 -45 -31q-3 0 -21 0.5t-61.5 1.5t-99.5 2q-38 0 -261 1t-421 1q-42 0 -100 -1t-75 -1 q-82 -4 -88 -4q-16 0 -16 16zM408 1831q0 33 28 63.5t66 30.5q49 0 86 -37l274 -266q10 -10 4 -16l-22 -31q-6 -9 -19 -2l-348 160q-29 13 -49 41.5t-20 56.5z" />
<glyph unicode="&#xc9;" horiz-adv-x="1404" d="M86 10v49q0 17 20 17h70q69 0 86 15t17 73v487v201q0 386 -9 451q-6 41 -25 56t-65 15h-78q-12 0 -12 15v53q0 14 12 14q1 0 93.5 -3.5t193.5 -2.5h57q45 0 326 2t326 2q19 0 49.5 1t32.5 1q13 0 16 -12q2 -7 25 -88t44 -155t25 -83q5 -16 -6 -22l-37 -17q-9 -3 -18 11 q-12 17 -102.5 113.5t-122.5 115.5q-87 51 -156 53l-311 8l-5 -592q188 0 234 11q35 6 55.5 21.5t38.5 51.5q33 74 33 115q0 17 16 17l54 -5q15 0 12 -16q-4 -33 -4 -221q0 -90 12 -225q0 -12 -16 -15l-45 -8q-11 -3 -17 14q-13 52 -33 103q-14 31 -41 51t-61 23 q-111 12 -238 12l3 -123q6 -333 6 -348q0 -138 82 -160q66 -16 159 -16q90 0 172 8q36 4 84 21.5t84 47.5q25 22 89.5 97t101.5 121q11 14 22 8l33 -21q9 -6 4 -20l-98 -307q-10 -31 -45 -31q-3 0 -21 0.5t-61.5 1.5t-99.5 2q-38 0 -261 1t-421 1q-42 0 -100 -1t-75 -1 q-82 -4 -88 -4q-16 0 -16 16zM639 1606q-8 8 4 16l281 268q15 15 39.5 25t46.5 10q36 0 62 -29t26 -65q0 -27 -20 -54t-56 -44l-344 -160q-8 -6 -14 0z" />
<glyph unicode="&#xca;" horiz-adv-x="1404" d="M86 10v49q0 17 20 17h70q69 0 86 15t17 73v487v201q0 386 -9 451q-6 41 -25 56t-65 15h-78q-12 0 -12 15v53q0 14 12 14q1 0 93.5 -3.5t193.5 -2.5h57q45 0 326 2t326 2q19 0 49.5 1t32.5 1q13 0 16 -12q2 -7 25 -88t44 -155t25 -83q5 -16 -6 -22l-37 -17q-9 -3 -18 11 q-12 17 -102.5 113.5t-122.5 115.5q-87 51 -156 53l-311 8l-5 -592q188 0 234 11q35 6 55.5 21.5t38.5 51.5q33 74 33 115q0 17 16 17l54 -5q15 0 12 -16q-4 -33 -4 -221q0 -90 12 -225q0 -12 -16 -15l-45 -8q-11 -3 -17 14q-13 52 -33 103q-14 31 -41 51t-61 23 q-111 12 -238 12l3 -123q6 -333 6 -348q0 -138 82 -160q66 -16 159 -16q90 0 172 8q36 4 84 21.5t84 47.5q25 22 89.5 97t101.5 121q11 14 22 8l33 -21q9 -6 4 -20l-98 -307q-10 -31 -45 -31q-3 0 -21 0.5t-61.5 1.5t-99.5 2q-38 0 -261 1t-421 1q-42 0 -100 -1t-75 -1 q-82 -4 -88 -4q-16 0 -16 16zM438 1597q-8 11 2 21l262 258q24 16 29 16q9 0 33 -24l268 -252q8 -8 0 -17l-14 -18q-5 -10 -17 -4l-274 111l-254 -111q-13 -7 -20 0z" />
<glyph unicode="&#xcb;" horiz-adv-x="1404" d="M86 10v49q0 17 20 17h70q69 0 86 15t17 73v487v201q0 386 -9 451q-6 41 -25 56t-65 15h-78q-12 0 -12 15v53q0 14 12 14q1 0 93.5 -3.5t193.5 -2.5h57q45 0 326 2t326 2q19 0 49.5 1t32.5 1q13 0 16 -12q2 -7 25 -88t44 -155t25 -83q5 -16 -6 -22l-37 -17q-9 -3 -18 11 q-12 17 -102.5 113.5t-122.5 115.5q-87 51 -156 53l-311 8l-5 -592q188 0 234 11q35 6 55.5 21.5t38.5 51.5q33 74 33 115q0 17 16 17l54 -5q15 0 12 -16q-4 -33 -4 -221q0 -90 12 -225q0 -12 -16 -15l-45 -8q-11 -3 -17 14q-13 52 -33 103q-14 31 -41 51t-61 23 q-111 12 -238 12l3 -123q6 -333 6 -348q0 -138 82 -160q66 -16 159 -16q90 0 172 8q36 4 84 21.5t84 47.5q25 22 89.5 97t101.5 121q11 14 22 8l33 -21q9 -6 4 -20l-98 -307q-10 -31 -45 -31q-3 0 -21 0.5t-61.5 1.5t-99.5 2q-38 0 -261 1t-421 1q-42 0 -100 -1t-75 -1 q-82 -4 -88 -4q-16 0 -16 16zM387 1733q0 35 31 70.5t96 35.5q43 0 75 -31t32 -84q0 -49 -31.5 -81.5t-75.5 -32.5q-21 0 -41 6t-40.5 18.5t-33 38t-12.5 60.5zM821 1733q0 35 31 70.5t96 35.5q43 0 77 -31.5t34 -83.5q0 -48 -33.5 -81t-77.5 -33q-21 0 -41 6t-40.5 18.5 t-33 38t-12.5 60.5z" />
<glyph unicode="&#xcc;" horiz-adv-x="794" d="M41 1831q0 33 28 63.5t66 30.5q49 0 86 -37l275 -266q10 -10 4 -16l-23 -31q-5 -8 -18 -2l-348 160q-29 14 -49.5 42t-20.5 56zM53 1389v53q0 14 13 14q6 0 48 -1.5t118 -3t165 -1.5q87 0 152.5 1.5t98.5 3t40 1.5q17 0 17 -18v-47q0 -17 -17 -17h-78q-78 0 -78 -55 q0 -9 -2 -246t-2 -250v-159q0 -10 2 -256t2 -258q0 -46 20 -60t62 -14h86q17 0 17 -15v-51q0 -16 -21 -16q-6 0 -41.5 1.5t-104 3t-153.5 1.5q-91 0 -164 -1.5t-110.5 -3t-40.5 -1.5q-16 0 -16 14v55q0 13 16 13h82q26 0 42 3t32 16.5t20 39.5q3 19 5.5 246.5t2.5 335.5v143 q0 48 -2.5 237.5t-3.5 207.5q-5 37 -23.5 53t-60.5 16h-106q-17 0 -17 15z" />
<glyph unicode="&#xcd;" horiz-adv-x="794" d="M53 1389v53q0 14 13 14q6 0 48 -1.5t118 -3t165 -1.5q87 0 152.5 1.5t98.5 3t40 1.5q17 0 17 -18v-47q0 -17 -17 -17h-78q-78 0 -78 -55q0 -9 -2 -246t-2 -250v-159q0 -10 2 -256t2 -258q0 -46 20 -60t62 -14h86q17 0 17 -15v-51q0 -16 -21 -16q-6 0 -41.5 1.5t-104 3 t-153.5 1.5q-91 0 -164 -1.5t-110.5 -3t-40.5 -1.5q-16 0 -16 14v55q0 13 16 13h82q26 0 42 3t32 16.5t20 39.5q3 19 5.5 246.5t2.5 335.5v143q0 48 -2.5 237.5t-3.5 207.5q-5 37 -23.5 53t-60.5 16h-106q-17 0 -17 15zM293 1606q-8 8 4 16l281 268q15 15 39.5 25t46.5 10 q36 0 62 -29t26 -65q0 -27 -20 -54t-56 -44l-344 -160q-9 -6 -15 0z" />
<glyph unicode="&#xce;" horiz-adv-x="794" d="M53 1389v53q0 14 13 14q6 0 48 -1.5t118 -3t165 -1.5q87 0 152.5 1.5t98.5 3t40 1.5q17 0 17 -18v-47q0 -17 -17 -17h-78q-78 0 -78 -55q0 -9 -2 -246t-2 -250v-159q0 -10 2 -256t2 -258q0 -46 20 -60t62 -14h86q17 0 17 -15v-51q0 -16 -21 -16q-6 0 -41.5 1.5t-104 3 t-153.5 1.5q-91 0 -164 -1.5t-110.5 -3t-40.5 -1.5q-16 0 -16 14v55q0 13 16 13h82q26 0 42 3t32 16.5t20 39.5q3 19 5.5 246.5t2.5 335.5v143q0 48 -2.5 237.5t-3.5 207.5q-5 37 -23.5 53t-60.5 16h-106q-17 0 -17 15zM102 1597q-8 11 2 21l263 258q24 16 28 16q9 0 33 -24 l268 -252q8 -8 0 -17l-14 -18q-5 -10 -16 -4l-275 111l-254 -111q-13 -7 -20 0z" />
<glyph unicode="&#xcf;" horiz-adv-x="794" d="M53 1389v53q0 14 13 14q6 0 48 -1.5t118 -3t165 -1.5q87 0 152.5 1.5t98.5 3t40 1.5q17 0 17 -18v-47q0 -17 -17 -17h-78q-78 0 -78 -55q0 -9 -2 -246t-2 -250v-159q0 -10 2 -256t2 -258q0 -46 20 -60t62 -14h86q17 0 17 -15v-51q0 -16 -21 -16q-6 0 -41.5 1.5t-104 3 t-153.5 1.5q-91 0 -164 -1.5t-110.5 -3t-40.5 -1.5q-16 0 -16 14v55q0 13 16 13h82q26 0 42 3t32 16.5t20 39.5q3 19 5.5 246.5t2.5 335.5v143q0 48 -2.5 237.5t-3.5 207.5q-5 37 -23.5 53t-60.5 16h-106q-17 0 -17 15zM61 1733q0 35 31 70.5t96 35.5q43 0 75 -31t32 -84 q0 -49 -31.5 -81.5t-75.5 -32.5q-21 0 -41 6t-40.5 18.5t-33 38t-12.5 60.5zM496 1733q0 35 31 70.5t96 35.5q43 0 76.5 -31.5t33.5 -83.5q0 -48 -33 -81t-77 -33q-21 0 -41 6t-40.5 18.5t-33 38t-12.5 60.5z" />
<glyph unicode="&#xd0;" horiz-adv-x="1712" d="M53 10v49q0 17 17 17h118q59 0 68 51q5 22 9.5 191t4.5 313v57h-184q-12 0 -12 17v53q0 16 16 16h180v168q0 46 -4.5 200t-7.5 175q-3 34 -21 45.5t-53 11.5h-110q-17 0 -17 15v51q0 16 17 16q5 0 41.5 -1.5t108 -3t161.5 -1.5q38 0 161.5 3t145.5 3q235 0 395 -38.5 t289 -147.5q230 -189 230 -520q0 -171 -48.5 -297.5t-152.5 -239.5q-41 -46 -92.5 -82t-98.5 -58.5t-107.5 -38.5t-102.5 -23.5t-101.5 -11.5t-85.5 -4.5t-72 -0.5q-8 0 -168.5 3t-220.5 3q-78 0 -144 -1.5t-102 -3t-40 -1.5q-17 0 -17 16zM528 651q0 -21 2 -182.5t2 -226.5 q0 -62 35 -113q38 -57 183 -57q128 0 238.5 54t187.5 153q67 87 107 208.5t40 257.5q0 121 -46 243.5t-118 203.5q-84 90 -204.5 140t-254.5 50q-98 0 -131 -16q-37 -18 -37 -92q-4 -86 -4 -385v-115h316q16 0 16 -12v-62q0 -12 -16 -12h-316v-37z" />
<glyph unicode="&#xd1;" horiz-adv-x="1654" d="M29 1389v55q0 12 12 12q4 0 11.5 -0.5t22 -1.5t29.5 -2q37 -2 183 -2q40 0 90 4q15 0 34 1t23 1q31 0 49 -18q15 -15 224 -277.5t239 -304.5q23 -26 381 -471h8v213q0 283 -4 385q-15 288 -22 313q-10 36 -40.5 57t-68.5 21h-65q-13 0 -13 19v47q0 10 3 13t14 3 q7 0 36 -1.5t80.5 -3t112.5 -1.5q74 0 136 3l61 3q20 0 20 -14v-47q0 -21 -12 -21h-57q-31 0 -47.5 -25.5t-20.5 -82.5q-31 -431 -31 -693v-540q0 -16 -0.5 -22t-2 -17t-7 -15t-14.5 -4q-37 0 -70 33l-42 49t-96.5 113t-115.5 137q-57 70 -138 169t-130 159t-60 74 q-17 17 -197 239.5t-184 227.5h-12v-250q0 -368 21 -699q3 -79 25.5 -115t76.5 -36h53q17 0 17 -19v-47q0 -10 -3 -13t-14 -3q-3 0 -89 3t-132 3q-31 0 -119 -3t-94 -3q-12 0 -12 18v51q0 4 3.5 8.5t8.5 4.5h70q41 0 63 39t29 131q14 259 14 651v260q0 92 -46 154.5 t-114 62.5h-65q-12 3 -12 15zM547 1626q12 91 61.5 150t118.5 59q19 0 40.5 -3.5t37.5 -7.5t48.5 -12.5t53.5 -13.5q24 -5 58.5 -14.5t55 -14t38.5 -4.5q58 0 74 74q0 12 12 12h37q6 0 6.5 -7t-2.5 -29q-10 -78 -52 -136.5t-108 -58.5q-19 0 -42.5 3.5t-39.5 7t-53 12.5 t-57 14q-102 29 -144 29q-29 0 -51 -21.5t-31 -62.5q-6 -13 -16 -13h-37q-13 0 -8 37z" />
<glyph unicode="&#xd2;" horiz-adv-x="1740" d="M106 711q0 114 42.5 246.5t146.5 261.5q213 262 577 262q131 0 249.5 -35.5t234.5 -128.5q125 -102 201.5 -255.5t76.5 -350.5q0 -262 -151 -451q-110 -138 -255.5 -214.5t-359.5 -76.5q-102 0 -224.5 33t-237.5 102q-121 73 -210.5 237t-89.5 370zM385 780 q0 -110 18.5 -207t50 -169t74 -131t88.5 -98t95 -66t92.5 -38.5t81.5 -11.5q85 0 156.5 26.5t120 68.5t86 99.5t59 115.5t35 121t18 110.5t4.5 89.5q0 128 -33 243.5t-86.5 197t-119.5 141.5t-133.5 89.5t-127.5 29.5q-1 0 -20 1t-31 0t-36 -3.5t-45.5 -10.5t-49 -20 t-56 -33t-57.5 -49q-89 -86 -136.5 -224.5t-47.5 -271.5zM535 1831q0 33 28 63.5t66 30.5q49 0 86 -37l274 -266q10 -10 4 -16l-22 -31q-6 -9 -19 -2l-348 160q-29 13 -49 41.5t-20 56.5z" />
<glyph unicode="&#xd3;" horiz-adv-x="1740" d="M106 711q0 114 42.5 246.5t146.5 261.5q213 262 577 262q131 0 249.5 -35.5t234.5 -128.5q125 -102 201.5 -255.5t76.5 -350.5q0 -262 -151 -451q-110 -138 -255.5 -214.5t-359.5 -76.5q-102 0 -224.5 33t-237.5 102q-121 73 -210.5 237t-89.5 370zM385 780 q0 -110 18.5 -207t50 -169t74 -131t88.5 -98t95 -66t92.5 -38.5t81.5 -11.5q85 0 156.5 26.5t120 68.5t86 99.5t59 115.5t35 121t18 110.5t4.5 89.5q0 128 -33 243.5t-86.5 197t-119.5 141.5t-133.5 89.5t-127.5 29.5q-1 0 -20 1t-31 0t-36 -3.5t-45.5 -10.5t-49 -20 t-56 -33t-57.5 -49q-89 -86 -136.5 -224.5t-47.5 -271.5zM725 1606q-8 8 4 16l281 268q15 15 39.5 25t46.5 10q36 0 62 -29t26 -65q0 -27 -20 -54t-56 -44l-344 -160q-8 -6 -14 0z" />
<glyph unicode="&#xd4;" horiz-adv-x="1740" d="M106 711q0 114 42.5 246.5t146.5 261.5q213 262 577 262q131 0 249.5 -35.5t234.5 -128.5q125 -102 201.5 -255.5t76.5 -350.5q0 -262 -151 -451q-110 -138 -255.5 -214.5t-359.5 -76.5q-102 0 -224.5 33t-237.5 102q-121 73 -210.5 237t-89.5 370zM385 780 q0 -110 18.5 -207t50 -169t74 -131t88.5 -98t95 -66t92.5 -38.5t81.5 -11.5q85 0 156.5 26.5t120 68.5t86 99.5t59 115.5t35 121t18 110.5t4.5 89.5q0 128 -33 243.5t-86.5 197t-119.5 141.5t-133.5 89.5t-127.5 29.5q-1 0 -20 1t-31 0t-36 -3.5t-45.5 -10.5t-49 -20 t-56 -33t-57.5 -49q-89 -86 -136.5 -224.5t-47.5 -271.5zM575 1597q-8 10 3 21l262 258q24 16 28 16q9 0 33 -24l268 -252q9 -8 0 -17l-14 -18q-5 -10 -16 -4l-275 111l-254 -111q-13 -7 -20 0z" />
<glyph unicode="&#xd5;" horiz-adv-x="1740" d="M106 711q0 114 42.5 246.5t146.5 261.5q213 262 577 262q131 0 249.5 -35.5t234.5 -128.5q125 -102 201.5 -255.5t76.5 -350.5q0 -262 -151 -451q-110 -138 -255.5 -214.5t-359.5 -76.5q-102 0 -224.5 33t-237.5 102q-121 73 -210.5 237t-89.5 370zM385 780 q0 -110 18.5 -207t50 -169t74 -131t88.5 -98t95 -66t92.5 -38.5t81.5 -11.5q85 0 156.5 26.5t120 68.5t86 99.5t59 115.5t35 121t18 110.5t4.5 89.5q0 128 -33 243.5t-86.5 197t-119.5 141.5t-133.5 89.5t-127.5 29.5q-1 0 -20 1t-31 0t-36 -3.5t-45.5 -10.5t-49 -20 t-56 -33t-57.5 -49q-89 -86 -136.5 -224.5t-47.5 -271.5zM549 1626q12 91 61.5 150t118.5 59q19 0 40.5 -3.5t37.5 -7.5t48.5 -12.5t53.5 -13.5q24 -5 58.5 -14.5t55 -14t38.5 -4.5q58 0 74 74q0 12 12 12h37q6 0 6.5 -7t-2.5 -29q-10 -78 -52 -136.5t-108 -58.5 q-19 0 -42.5 3.5t-39.5 7t-53 12.5t-57 14q-101 29 -144 29q-29 0 -51 -21.5t-31 -62.5q-6 -13 -16 -13h-37q-13 0 -8 37z" />
<glyph unicode="&#xd6;" horiz-adv-x="1740" d="M106 711q0 114 42.5 246.5t146.5 261.5q213 262 577 262q131 0 249.5 -35.5t234.5 -128.5q125 -102 201.5 -255.5t76.5 -350.5q0 -262 -151 -451q-110 -138 -255.5 -214.5t-359.5 -76.5q-102 0 -224.5 33t-237.5 102q-121 73 -210.5 237t-89.5 370zM385 780 q0 -110 18.5 -207t50 -169t74 -131t88.5 -98t95 -66t92.5 -38.5t81.5 -11.5q85 0 156.5 26.5t120 68.5t86 99.5t59 115.5t35 121t18 110.5t4.5 89.5q0 128 -33 243.5t-86.5 197t-119.5 141.5t-133.5 89.5t-127.5 29.5q-1 0 -20 1t-31 0t-36 -3.5t-45.5 -10.5t-49 -20 t-56 -33t-57.5 -49q-89 -86 -136.5 -224.5t-47.5 -271.5zM535 1733q0 35 31 70.5t96 35.5q43 0 74.5 -31t31.5 -84q0 -49 -31 -81.5t-75 -32.5q-21 0 -41 6t-40.5 18.5t-33 38t-12.5 60.5zM969 1733q0 35 31 70.5t96 35.5q43 0 76.5 -31.5t33.5 -83.5q0 -48 -33 -81t-77 -33 q-21 0 -41 6t-40.5 18.5t-33 38t-12.5 60.5z" />
<glyph unicode="&#xd7;" d="M123 205l291 287l-291 286l98 103l295 -299l295 299l90 -99l-295 -286l295 -291l-94 -107l-299 303l-303 -303z" />
<glyph unicode="&#xd8;" horiz-adv-x="1740" d="M106 711q0 278 189 512q214 258 577 258q135 0 254.5 -35.5t245.5 -138.5l168 168q7 13 16 4l5 -4l53 -41l4 -9q8 -8 0 -16l-176 -176q192 -213 192 -526q0 -243 -151 -447q-49 -67 -106.5 -118t-132 -91t-169.5 -61t-207 -21q-100 0 -226 32.5t-224 92.5q-27 16 -58 41 l-155 -155q-13 -13 -17 -9q-3 0 -12 9l-41 40q-8 8 -8 13q-3 3 4 16l156 156q-80 94 -130.5 224t-50.5 282zM385 774q0 -231 78 -393l766 778q-76 113 -176 172.5t-189 59.5q-2 0 -20 1t-31 0.5t-36.5 -3t-45.5 -10t-48 -19t-54.5 -32.5t-55.5 -48q-90 -90 -139 -231 t-49 -275zM512 291q80 -115 184.5 -173.5t188.5 -58.5q85 0 155.5 26t119 67.5t86 98.5t59.5 114.5t35.5 120.5t18.5 111t5 91q0 208 -82 385z" />
<glyph unicode="&#xd9;" horiz-adv-x="1525" d="M23 1393v47q0 9 4 12.5t16 3.5q3 0 42 -1.5t112.5 -3t160.5 -1.5q76 0 143.5 1.5t106.5 3t45 1.5q17 0 17 -14v-51q0 -17 -17 -17h-86q-44 0 -71 -23t-29 -57q-6 -75 -6 -266v-254q0 -214 6 -313q11 -172 72 -254q95 -127 278 -127q73 0 150 26.5t125 71.5 q118 118 118 346v369q0 219 -22 391q-5 40 -28 65t-56 25h-74q-16 0 -16 15v51q0 16 16 16q5 0 40 -1.5t93 -3t117 -1.5q56 0 104 1.5t74.5 3t30.5 1.5q13 0 16.5 -4t3.5 -12v-47q0 -19 -12 -19h-74q-26 0 -43.5 -8.5t-26 -24t-11 -24t-5.5 -23.5q-4 -25 -4 -338 q0 -59 -3.5 -237t-8.5 -230q-18 -257 -172 -393q-140 -127 -373 -127q-179 0 -295 49q-178 73 -241 275q-21 66 -29 176t-8 317v486q0 54 -15.5 78t-54.5 24h-94q-16 0 -16 19zM489 1831q0 33 28.5 63.5t66.5 30.5q49 0 86 -37l274 -266q10 -10 4 -16l-22 -31q-6 -9 -19 -2 l-348 160q-29 14 -49.5 42t-20.5 56z" />
<glyph unicode="&#xda;" horiz-adv-x="1525" d="M23 1393v47q0 9 4 12.5t16 3.5q3 0 42 -1.5t112.5 -3t160.5 -1.5q76 0 143.5 1.5t106.5 3t45 1.5q17 0 17 -14v-51q0 -17 -17 -17h-86q-44 0 -71 -23t-29 -57q-6 -75 -6 -266v-254q0 -214 6 -313q11 -172 72 -254q95 -127 278 -127q73 0 150 26.5t125 71.5 q118 118 118 346v369q0 219 -22 391q-5 40 -28 65t-56 25h-74q-16 0 -16 15v51q0 16 16 16q5 0 40 -1.5t93 -3t117 -1.5q56 0 104 1.5t74.5 3t30.5 1.5q13 0 16.5 -4t3.5 -12v-47q0 -19 -12 -19h-74q-26 0 -43.5 -8.5t-26 -24t-11 -24t-5.5 -23.5q-4 -25 -4 -338 q0 -59 -3.5 -237t-8.5 -230q-18 -257 -172 -393q-140 -127 -373 -127q-179 0 -295 49q-178 73 -241 275q-21 66 -29 176t-8 317v486q0 54 -15.5 78t-54.5 24h-94q-16 0 -16 19zM782 1606q-8 8 4 16l281 268q15 15 39.5 25t46.5 10q36 0 62 -29t26 -65q0 -27 -20 -54t-56 -44 l-344 -160q-8 -6 -14 0z" />
<glyph unicode="&#xdb;" horiz-adv-x="1525" d="M23 1393v47q0 9 4 12.5t16 3.5q3 0 42 -1.5t112.5 -3t160.5 -1.5q76 0 143.5 1.5t106.5 3t45 1.5q17 0 17 -14v-51q0 -17 -17 -17h-86q-44 0 -71 -23t-29 -57q-6 -75 -6 -266v-254q0 -214 6 -313q11 -172 72 -254q95 -127 278 -127q73 0 150 26.5t125 71.5 q118 118 118 346v369q0 219 -22 391q-5 40 -28 65t-56 25h-74q-16 0 -16 15v51q0 16 16 16q5 0 40 -1.5t93 -3t117 -1.5q56 0 104 1.5t74.5 3t30.5 1.5q13 0 16.5 -4t3.5 -12v-47q0 -19 -12 -19h-74q-26 0 -43.5 -8.5t-26 -24t-11 -24t-5.5 -23.5q-4 -25 -4 -338 q0 -59 -3.5 -237t-8.5 -230q-18 -257 -172 -393q-140 -127 -373 -127q-179 0 -295 49q-178 73 -241 275q-21 66 -29 176t-8 317v486q0 54 -15.5 78t-54.5 24h-94q-16 0 -16 19zM551 1597q-8 11 2 21l262 258q24 16 29 16q9 0 33 -24l268 -252q9 -8 0 -17l-15 -18 q-5 -10 -16 -4l-274 111l-254 -111q-14 -7 -21 0z" />
<glyph unicode="&#xdc;" horiz-adv-x="1525" d="M23 1393v47q0 9 4 12.5t16 3.5q3 0 42 -1.5t112.5 -3t160.5 -1.5q76 0 143.5 1.5t106.5 3t45 1.5q17 0 17 -14v-51q0 -17 -17 -17h-86q-44 0 -71 -23t-29 -57q-6 -75 -6 -266v-254q0 -214 6 -313q11 -172 72 -254q95 -127 278 -127q73 0 150 26.5t125 71.5 q118 118 118 346v369q0 219 -22 391q-5 40 -28 65t-56 25h-74q-16 0 -16 15v51q0 16 16 16q5 0 40 -1.5t93 -3t117 -1.5q56 0 104 1.5t74.5 3t30.5 1.5q13 0 16.5 -4t3.5 -12v-47q0 -19 -12 -19h-74q-26 0 -43.5 -8.5t-26 -24t-11 -24t-5.5 -23.5q-4 -25 -4 -338 q0 -59 -3.5 -237t-8.5 -230q-18 -257 -172 -393q-140 -127 -373 -127q-179 0 -295 49q-178 73 -241 275q-21 66 -29 176t-8 317v486q0 54 -15.5 78t-54.5 24h-94q-16 0 -16 19zM510 1733q0 35 31 70.5t96 35.5q43 0 74.5 -31t31.5 -84q0 -49 -31 -81.5t-75 -32.5 q-21 0 -41 6t-40.5 18.5t-33 38t-12.5 60.5zM944 1733q0 35 31 70.5t96 35.5q43 0 77 -31.5t34 -83.5q0 -48 -33.5 -81t-77.5 -33q-21 0 -41 6t-40.5 18.5t-33 38t-12.5 60.5z" />
<glyph unicode="&#xdd;" horiz-adv-x="1433" d="M23 1389v55q0 12 16 12q3 0 39 -1.5t99 -3t132 -1.5q92 0 162.5 1.5t104 3t36.5 1.5q17 0 17 -14v-47q0 -21 -17 -21h-53q-34 0 -47 -13.5t-10 -45.5q2 -16 65 -140t141.5 -274.5t98.5 -191.5q7 12 40 65t58 94.5t62.5 104t65.5 111t55 96t41.5 79t15.5 41.5q8 74 -70 74 h-53q-16 0 -16 17v51q0 14 12 14q5 0 38.5 -1.5t91 -3t120.5 -1.5q58 0 102 1.5t66.5 3t27.5 1.5q17 0 17 -14v-47q0 -21 -17 -21h-45q-66 0 -110 -47q-25 -28 -209 -312t-242 -384v-250q0 -167 6 -236q2 -24 8.5 -38.5t19 -21t23 -8t29.5 -1.5h68q14 0 14 -15v-47 q0 -20 -14 -20q-5 0 -40 1.5t-101.5 3t-147.5 1.5q-89 0 -155 -1.5t-97 -3t-33 -1.5q-14 0 -14 18v47q0 17 14 17h84q69 0 72 51q6 87 6 381v98q-52 97 -218.5 387t-203.5 336q-18 21 -47 33t-55 12h-37q-16 0 -16 15zM784.5 1614q1.5 5 6.5 8l280 268q15 15 39.5 25 t46.5 10q36 0 62 -29t26 -65q0 -27 -20 -54t-56 -44l-344 -160q-8 -6 -14 0l-25 33q-3 3 -1.5 8z" />
<glyph unicode="&#xde;" horiz-adv-x="1290" d="M66 1389v51q0 16 12 16q5 0 38 -1.5t104 -3t169 -1.5q83 0 150.5 1.5t104 3t44.5 1.5q17 0 17 -14v-49q0 -19 -21 -19h-106q-57 0 -62 -31q-4 -33 -4 -184q19 0 63 2t72 2q163 0 261.5 -21.5t181.5 -80.5q71 -51 109 -128t38 -159q0 -188 -138 -298.5t-374 -110.5 q-133 0 -213 12v-66q0 -143 2 -170q5 -34 21.5 -49.5t50.5 -15.5h106q17 0 17 -15v-47q0 -20 -17 -20q-7 0 -40.5 1.5t-102 3t-160.5 1.5q-91 0 -158 -1.5t-98.5 -3t-34.5 -1.5q-16 0 -16 14v51q0 17 12 17h82q41 0 56.5 11.5t19.5 51.5q6 60 6 578v237q0 352 -2 375 q-1 24 -20.5 34.5t-59.5 10.5h-94q-16 0 -16 15zM512 455q49 -21 164 -21t196.5 94t81.5 234q0 74 -25.5 134.5t-62 96t-81 59.5t-79.5 33t-59 9q-95 0 -135 -13v-626z" />
<glyph unicode="&#xdf;" horiz-adv-x="1153" d="M39 14v43q0 13 20 13h82q30 0 42 16t12 53l-2 578l-121 8q-13 0 -13 16v54q0 11 17 14l117 10v72q-3 274 145 422q168 168 340 168q104 0 179 -62.5t75 -169.5q0 -128 -131 -266q-49 -49 -71.5 -89.5t-22.5 -90.5q0 -26 11 -48t34.5 -41t48.5 -34.5t64 -36.5 q5 -2 7.5 -3.5t6.5 -4t8 -4.5q122 -69 173.5 -147t51.5 -205q-3 -122 -96 -213t-236 -91q-47 0 -96 17t-68 33q-16 16 -16 24l-16 148q-3 17 8 20l37 12q11 3 20 -12l41 -78q42 -80 123 -80q53 0 94 37.5t41 100.5q0 136 -131 217q-9 6 -45 28t-47 29.5t-40 29t-40 33.5 t-30.5 35t-27 43t-14 47.5t-6.5 57.5q0 58 26.5 115.5t65.5 113t48 74.5q41 81 41 180q0 69 -48 121.5t-112 52.5q-79 0 -127 -69q-16 -21 -27 -52.5t-16.5 -59.5t-8 -75t-2.5 -73t0.5 -80.5t0.5 -71.5v-315q0 -107 2 -214t4 -173t2 -72q0 -49 33 -49h40q25 0 25 -15v-37 q0 -24 -16 -24q-3 0 -35 1.5t-78 3t-84 1.5t-95.5 -1.5t-101.5 -3t-49 -1.5q-9 0 -12.5 4t-3.5 16z" />
<glyph unicode="&#xe0;" horiz-adv-x="907" d="M74 596q0 44 24.5 89.5t69.5 78.5q150 115 332 115q78 0 116.5 -14t71.5 -44q30 -28 39.5 -64.5t9.5 -88.5l4 -324v-98q0 -81 12.5 -112.5t41.5 -31.5q21 0 40 10t25 23q9 14 21 8l24 -16q14 -7 4 -33q-64 -119 -188 -119q-131 0 -172 125h-8q-66 -72 -179 -110 q-50 -15 -131 -15q-60 0 -100.5 47t-40.5 130q0 166 189 251q28 13 69 32.5t62 29.5t46.5 23t42 22.5t29.5 19.5v107q-8 78 -22 102q-5 8 -10 13q-26 30 -103 30q-70 0 -119 -37q-13 -9 -15 -21.5t2.5 -37.5t4.5 -41q0 -119 -123 -119q-29 0 -49 19t-20 51zM241 1246.5 q-5 39.5 19.5 68t61.5 28.5q60 0 104 -65l164 -246q6 -6 0 -12l-29 -25q-6 -6 -12 0l-264 185q-39 27 -44 66.5zM303 213q0 -60 27.5 -92.5t66.5 -32.5q42 3 86.5 36.5t44.5 61.5v269q-18 -11 -57 -31.5t-62.5 -36t-51 -40t-41 -58t-13.5 -76.5z" />
<glyph unicode="&#xe1;" horiz-adv-x="907" d="M74 596q0 44 24.5 89.5t69.5 78.5q150 115 332 115q78 0 116.5 -14t71.5 -44q30 -28 39.5 -64.5t9.5 -88.5l4 -324v-98q0 -81 12.5 -112.5t41.5 -31.5q21 0 40 10t25 23q9 14 21 8l24 -16q14 -7 4 -33q-64 -119 -188 -119q-131 0 -172 125h-8q-66 -72 -179 -110 q-50 -15 -131 -15q-60 0 -100.5 47t-40.5 130q0 166 189 251q28 13 69 32.5t62 29.5t46.5 23t42 22.5t29.5 19.5v107q-8 78 -22 102q-5 8 -10 13q-26 30 -103 30q-70 0 -119 -37q-13 -9 -15 -21.5t2.5 -37.5t4.5 -41q0 -119 -123 -119q-29 0 -49 19t-20 51zM303 213 q0 -60 27.5 -92.5t66.5 -32.5q42 3 86.5 36.5t44.5 61.5v269q-18 -11 -57 -31.5t-62.5 -36t-51 -40t-41 -58t-13.5 -76.5zM410 1016q-8 8 0 16l165 246q47 68 101 65q38 2 63 -27t20 -70.5t-46 -69.5l-262 -181q-3 -3 -8.5 -3t-8.5 3z" />
<glyph unicode="&#xe2;" horiz-adv-x="907" d="M74 596q0 44 24.5 89.5t69.5 78.5q150 115 332 115q78 0 116.5 -14t71.5 -44q30 -28 39.5 -64.5t9.5 -88.5l4 -324v-98q0 -81 12.5 -112.5t41.5 -31.5q21 0 40 10t25 23q9 14 21 8l24 -16q14 -7 4 -33q-64 -119 -188 -119q-131 0 -172 125h-8q-66 -72 -179 -110 q-50 -15 -131 -15q-60 0 -100.5 47t-40.5 130q0 166 189 251q28 13 69 32.5t62 29.5t46.5 23t42 22.5t29.5 19.5v107q-8 78 -22 102q-5 8 -10 13q-26 30 -103 30q-70 0 -119 -37q-13 -9 -15 -21.5t2.5 -37.5t4.5 -41q0 -119 -123 -119q-29 0 -49 19t-20 51zM238 1020 q-7 7 2 20l219 279q16 16 24 16q12 0 25 -20l227 -277q10 -10 2 -18l-16 -16q-5 -10 -16 -5l-226 136l-205 -131q-15 -8 -20 -5zM303 213q0 -60 27.5 -92.5t66.5 -32.5q42 3 86.5 36.5t44.5 61.5v269q-18 -11 -57 -31.5t-62.5 -36t-51 -40t-41 -58t-13.5 -76.5z" />
<glyph unicode="&#xe3;" horiz-adv-x="907" d="M74 596q0 44 24.5 89.5t69.5 78.5q150 115 332 115q78 0 116.5 -14t71.5 -44q30 -28 39.5 -64.5t9.5 -88.5l4 -324v-98q0 -81 12.5 -112.5t41.5 -31.5q21 0 40 10t25 23q9 14 21 8l24 -16q14 -7 4 -33q-64 -119 -188 -119q-131 0 -172 125h-8q-66 -72 -179 -110 q-50 -15 -131 -15q-60 0 -100.5 47t-40.5 130q0 166 189 251q28 13 69 32.5t62 29.5t46.5 23t42 22.5t29.5 19.5v107q-8 78 -22 102q-5 8 -10 13q-26 30 -103 30q-70 0 -119 -37q-13 -9 -15 -21.5t2.5 -37.5t4.5 -41q0 -119 -123 -119q-29 0 -49 19t-20 51zM160 1044 q12 84 57.5 138.5t106.5 54.5q49 0 151 -33q93 -28 131 -28q55 0 70 61q3 12 12 12h37q14 0 6 -37q-12 -65 -56.5 -117.5t-109.5 -52.5q-21 0 -44.5 4t-37.5 7.5t-38 11.5t-31 10q-77 25 -119 25q-28 0 -50 -20t-28 -60q0 -8 -12 -8h-39q-11 0 -6 32zM303 213 q0 -60 27.5 -92.5t66.5 -32.5q42 3 86.5 36.5t44.5 61.5v269q-18 -11 -57 -31.5t-62.5 -36t-51 -40t-41 -58t-13.5 -76.5z" />
<glyph unicode="&#xe4;" horiz-adv-x="907" d="M74 596q0 44 24.5 89.5t69.5 78.5q150 115 332 115q78 0 116.5 -14t71.5 -44q30 -28 39.5 -64.5t9.5 -88.5l4 -324v-98q0 -81 12.5 -112.5t41.5 -31.5q21 0 40 10t25 23q9 14 21 8l24 -16q14 -7 4 -33q-64 -119 -188 -119q-131 0 -172 125h-8q-66 -72 -179 -110 q-50 -15 -131 -15q-60 0 -100.5 47t-40.5 130q0 164 189 251q201 92 249 127v107q-8 78 -22 102q-5 8 -10 13q-26 30 -103 30q-70 0 -119 -37q-13 -9 -15 -21.5t2.5 -37.5t4.5 -41q0 -119 -123 -119q-29 0 -49 19t-20 51zM158 1202q0 38 29.5 74.5t91.5 36.5 q45 0 76.5 -31.5t31.5 -87.5q0 -49 -30 -76.5t-78 -27.5q-45 0 -83 25.5t-38 86.5zM303 213q0 -60 27.5 -93.5t66.5 -31.5q42 1 86.5 35.5t44.5 62.5v269q-18 -11 -57 -31.5t-62.5 -36t-51 -40t-41 -58t-13.5 -76.5zM522 1202q0 38 29.5 74.5t91.5 36.5q45 0 77 -31.5 t32 -87.5q0 -49 -32 -76.5t-77 -27.5t-83 25.5t-38 86.5z" />
<glyph unicode="&#xe5;" horiz-adv-x="907" d="M74 596q0 44 24.5 89.5t69.5 78.5q150 115 332 115q78 0 116.5 -14t71.5 -44q30 -28 39.5 -64.5t9.5 -88.5l4 -324v-98q0 -81 12.5 -112.5t41.5 -31.5q21 0 40 10t25 23q9 14 21 8l24 -16q14 -7 4 -33q-64 -119 -188 -119q-131 0 -172 125h-8q-66 -72 -179 -110 q-50 -15 -131 -15q-60 0 -100.5 47t-40.5 130q0 166 189 251q28 13 69 32.5t62 29.5t46.5 23t42 22.5t29.5 19.5v107q-8 78 -22 102q-5 8 -10 13q-26 30 -103 30q-70 0 -119 -37q-13 -9 -15 -21.5t2.5 -37.5t4.5 -41q0 -119 -123 -119q-29 0 -49 19t-20 51zM236 1167 q0 75 67 123.5t164 48.5q94 0 154.5 -43t60.5 -108q6 -80 -62.5 -128t-168.5 -48q-95 0 -155 43.5t-60 111.5zM303 213q0 -60 27.5 -92.5t66.5 -32.5q42 3 86.5 36.5t44.5 61.5v269q-18 -11 -57 -31.5t-62.5 -36t-51 -40t-41 -58t-13.5 -76.5zM369 1176q0 -47 24 -75t66 -28 q41 0 67.5 28t26.5 79q0 44 -26 69t-64 25q-42 0 -68 -27.5t-26 -70.5z" />
<glyph unicode="&#xe6;" horiz-adv-x="1341" d="M74 592q0 104 98 172q147 115 315 115q90 0 148 -50q31 -31 43 -65q53 61 119.5 88t156.5 27q77 0 138.5 -25t97 -62t59.5 -83.5t32.5 -85.5t8.5 -72q0 -21 -12.5 -33t-32.5 -14l-502 -27v-47q0 -130 76 -218.5t195 -88.5q150 0 221 106q17 27 29 21l30 -19q13 -8 2 -30 q-27 -56 -72.5 -104.5t-122 -85t-163.5 -36.5q-230 0 -336 156h-12q-90 -106 -201 -137q-64 -19 -151 -19q-66 0 -109 48t-43 129q0 83 45.5 145.5t155.5 114.5q205 95 245 123v102q0 26 -0.5 38t-7 32.5t-20.5 37.5q-37 37 -111 37q-70 0 -119 -37q-15 -11 -17 -26t3.5 -41 t5.5 -41q0 -53 -30.5 -82t-88.5 -29q-32 0 -52.5 18t-20.5 48zM299 221q0 -129 98 -129q39 0 86 29t80 82q-31 92 -31 248q-15 -8 -49 -23.5t-54 -26t-48 -29.5t-43.5 -38t-27 -48.5t-11.5 -64.5zM748 553l256 18q35 3 46 17t11 37q0 73 -31 125.5t-98 52.5 q-147 0 -184 -250z" />
<glyph unicode="&#xe7;" horiz-adv-x="860" d="M66 393q0 101 38.5 200t112.5 167q131 119 299 119q68 0 121.5 -13.5t84.5 -34t51 -46.5t27 -48t7 -43q0 -38 -24.5 -64t-65.5 -26q-84 0 -123 103q-20 49 -51 66.5t-76 17.5q-67 0 -125.5 -68t-58.5 -170q0 -109 13.5 -177.5t65.5 -154.5q67 -110 211 -110q124 0 222 77 q8 8 18 -2l25 -28q11 -11 0 -25q-39 -47 -118 -93t-167 -58l-102 -117q67 -15 109 -56.5t42 -91.5q0 -90 -107 -145t-245 -55q-23 0 -32 10.5t-9 30.5q0 17 16.5 22.5t48.5 5.5q59 0 109.5 30t50.5 81q0 78 -131 102l143 181q-183 9 -282 131q-56 70 -77 135t-21 147z" />
<glyph unicode="&#xe8;" horiz-adv-x="888" d="M66 424q0 93 19 157.5t81 145.5q65 84 144 118t212 34q66 0 121 -26t88.5 -65t57 -85.5t33 -85t9.5 -66.5q0 -15 -7.5 -22.5t-18 -9t-31.5 -1.5h-495v-63q0 -75 25 -139.5t64.5 -105.5t85.5 -64t91 -23q170 0 248 119q10 17 24 10l31 -19q16 -9 0 -40q-15 -28 -33.5 -53 t-51.5 -57t-71.5 -54.5t-95.5 -38t-121 -15.5q-101 0 -171.5 25.5t-123.5 85.5q-66 77 -90 155.5t-24 182.5zM230 1246.5q-5 39.5 19.5 68t61.5 28.5q61 0 105 -65l164 -246q6 -6 0 -12l-29 -25q-6 -6 -12 0l-265 185q-39 27 -44 66.5zM285 592h247q31 0 49.5 8.5t18.5 20.5 q0 27 -5.5 55t-18 58.5t-39.5 49.5t-64 19q-146 0 -188 -211z" />
<glyph unicode="&#xe9;" horiz-adv-x="888" d="M66 424q0 93 19 157.5t81 145.5q65 84 144 118t212 34q66 0 121 -26t88.5 -65t57 -85.5t33 -85t9.5 -66.5q0 -15 -7.5 -22.5t-18 -9t-31.5 -1.5h-495v-63q0 -75 25 -139.5t64.5 -105.5t85.5 -64t91 -23q170 0 248 119q10 17 24 10l31 -19q16 -9 0 -40q-15 -28 -33.5 -53 t-51.5 -57t-71.5 -54.5t-95.5 -38t-121 -15.5q-101 0 -171.5 25.5t-123.5 85.5q-66 77 -90 155.5t-24 182.5zM285 592h247q31 0 49.5 8.5t18.5 20.5q0 27 -5.5 55t-18 58.5t-39.5 49.5t-64 19q-146 0 -188 -211zM399 1016q-8 8 0 16l166 246q47 68 101 65q38 2 63 -27 t19.5 -70.5t-46.5 -69.5l-262 -181q-8 -8 -16 0z" />
<glyph unicode="&#xea;" horiz-adv-x="888" d="M66 424q0 93 19 157.5t81 145.5q65 84 144 118t212 34q66 0 121 -26t88.5 -65t57 -85.5t33 -85t9.5 -66.5q0 -15 -7.5 -22.5t-18 -9t-31.5 -1.5h-495v-63q0 -75 25 -139.5t64.5 -105.5t85.5 -64t91 -23q170 0 248 119q10 17 24 10l31 -19q16 -9 0 -40q-15 -28 -33.5 -53 t-51.5 -57t-71.5 -54.5t-95.5 -38t-121 -15.5q-101 0 -171.5 25.5t-123.5 85.5q-66 77 -90 155.5t-24 182.5zM236 1020q-7 7 2 20l219 279q16 16 24 16q12 0 25 -20l227 -277q10 -10 2 -18l-16 -16q-5 -11 -17 -5l-225 136l-205 -131q-15 -8 -20 -5zM285 592h247 q31 0 49.5 8.5t18.5 20.5q0 27 -5.5 55t-18 58.5t-39.5 49.5t-64 19q-146 0 -188 -211z" />
<glyph unicode="&#xeb;" horiz-adv-x="888" d="M66 424q0 93 19 157.5t81 145.5q65 84 144 118t212 34q66 0 121 -26t88.5 -65t57 -85.5t33 -85t9.5 -66.5q0 -15 -7.5 -22.5t-18 -9t-31.5 -1.5h-495v-63q0 -75 25 -139.5t64.5 -105.5t85.5 -64t91 -23q170 0 248 119q10 17 24 10l31 -19q16 -9 0 -40q-15 -28 -33.5 -53 t-51.5 -57t-71.5 -54.5t-95.5 -38t-121 -15.5q-101 0 -171.5 25.5t-123.5 85.5q-66 77 -90 155.5t-24 182.5zM188 1202q0 38 29.5 74.5t91.5 36.5q45 0 77 -31.5t32 -87.5q0 -49 -30.5 -76.5t-78.5 -27.5q-45 0 -83 25.5t-38 86.5zM285 592h247q31 0 49.5 8.5t18.5 20.5 q0 27 -5.5 55t-18 58.5t-39.5 49.5t-64 19q-146 0 -188 -211zM553 1202q0 38 29.5 74.5t91.5 36.5q45 0 76.5 -31.5t31.5 -87.5q0 -49 -31.5 -76.5t-76.5 -27.5t-83 25.5t-38 86.5z" />
<glyph unicode="&#xec;" horiz-adv-x="555" d="M14 1246.5q-5 39.5 20 68t62 28.5q61 0 105 -65l164 -246q6 -6 0 -12l-29 -25q-6 -6 -12 0l-265 185q-40 27 -45 66.5zM35 14v39q0 17 20 17h90q33 0 33 41q4 61 4 184v289q0 52 -20.5 81t-85.5 46q-21 5 -21 18v23q0 10 15 16t132 48.5t134 49.5q32 13 49 13 q19 0 16 -25q-4 -33 -4 -334v-221q0 -151 4 -176q6 -53 33 -53h82q21 0 21 -15v-41q0 -20 -17 -20q-3 0 -37.5 1.5t-92.5 3t-118 1.5q-71 0 -145.5 -3t-75.5 -3q-16 0 -16 20z" />
<glyph unicode="&#xed;" horiz-adv-x="555" d="M35 14v39q0 17 20 17h90q33 0 33 41q4 61 4 184v289q0 52 -20.5 81t-85.5 46q-21 5 -21 18v23q0 10 15 16t132 48.5t134 49.5q32 13 49 13q19 0 16 -25q-4 -33 -4 -334v-221q0 -151 4 -176q6 -53 33 -53h82q21 0 21 -15v-41q0 -20 -17 -20q-3 0 -37.5 1.5t-92.5 3 t-118 1.5q-71 0 -145.5 -3t-75.5 -3q-16 0 -16 20zM172 1016q-8 8 0 16l166 246q47 68 100 65q38 2 63 -27t20 -70.5t-46 -69.5l-262 -181q-8 -8 -16 0z" />
<glyph unicode="&#xee;" horiz-adv-x="555" d="M18 1020q-7 7 2 20l220 279q16 16 24 16q12 0 25 -20l227 -277q10 -10 2 -18l-16 -16q-5 -11 -17 -5l-225 136l-205 -131q-15 -8 -20 -5zM35 14v39q0 17 20 17h90q33 0 33 41q4 61 4 184v289q0 52 -20.5 81t-85.5 46q-21 5 -21 18v23q0 10 15 16t132 48.5t134 49.5 q32 13 49 13q19 0 16 -25q-4 -33 -4 -334v-221q0 -151 4 -176q6 -53 33 -53h82q21 0 21 -15v-41q0 -20 -17 -20q-3 0 -37.5 1.5t-92.5 3t-118 1.5q-71 0 -145.5 -3t-75.5 -3q-16 0 -16 20z" />
<glyph unicode="&#xef;" horiz-adv-x="555" d="M-18 1202q0 38 29 74.5t91 36.5q45 0 77 -31.5t32 -87.5q0 -49 -30.5 -76.5t-78.5 -27.5q-45 0 -82.5 25.5t-37.5 86.5zM35 14v39q0 17 20 17h90q16 0 24 8.5t9 32.5q4 122 4 184v289q0 52 -20.5 81t-85.5 46q-21 5 -21 18v23q0 10 15 16t132 48.5t134 49.5q32 13 49 13 q19 0 16 -25q-4 -33 -4 -334v-221q0 -151 4 -176q6 -53 33 -53h82q21 0 21 -15v-41q0 -20 -17 -20q-3 0 -37.5 1.5t-92.5 3t-118 1.5q-71 0 -145.5 -3t-75.5 -3q-16 0 -16 20zM346 1202q0 38 29.5 74.5t91.5 36.5q45 0 76.5 -31.5t31.5 -87.5q0 -49 -31.5 -76.5t-76.5 -27.5 t-83 25.5t-38 86.5z" />
<glyph unicode="&#xf0;" horiz-adv-x="1019" d="M66 408q0 93 43.5 195t130.5 175q66 54 132.5 77.5t155.5 23.5q87 0 150 -48l12 9q-52 174 -125 284q-28 43 -59 72l-250 -154q-13 -8 -23 7l-30 49q-9 12 6 20l240 148q-88 91 -216 155q-10 5 -10 13q0 4 4 12l27 49q4 8 10 8q3 0 15 -6q131 -45 299 -162l198 121 q15 9 23 -4l32 -47q11 -18 -4 -25l-184 -106q58 -55 115 -135q165 -234 176 -553q4 -87 -9 -171t-47 -164.5t-87 -141t-136.5 -97.5t-187.5 -37q-80 0 -135 14t-115 60q-76 61 -113.5 145.5t-37.5 213.5zM287 451q0 -71 21.5 -158.5t51.5 -136.5q60 -99 152 -99 q53 0 92.5 29.5t61.5 78t32.5 103t10.5 113.5q0 254 -47 328q-25 38 -64 63t-82 25q-85 0 -147 -62q-36 -36 -59 -114t-23 -170z" />
<glyph unicode="&#xf1;" horiz-adv-x="1124" d="M68 719v16q0 14 20 21l225 106q34 17 41 17q19 0 25 -25l16 -106h13q46 54 102 81q84 50 164 50q119 0 180 -50q65 -47 89 -95.5t24 -115.5v-294q0 -36 -1 -108t-1 -89q0 -57 49 -57h57q25 0 25 -15v-47q0 -14 -17 -14q-3 0 -29.5 1.5t-77.5 3t-114 1.5q-54 0 -101 -1.5 t-72.5 -3t-27.5 -1.5q-16 0 -16 24v35q0 17 25 17h41q31 0 36 49q9 80 9 192v236q0 70 -10 109t-44 67q-28 25 -54 31t-69 6q-73 0 -131 -53q-43 -43 -43 -146v-422q0 -69 39 -69h37q21 0 21 -19v-37q0 -20 -17 -20q-2 0 -25 1.5t-68 3t-99 1.5q-56 0 -104 -1.5t-73.5 -3 t-27.5 -1.5q-12 0 -12 20v39q0 17 20 17h41q53 0 53 41v460q0 75 -86 119l-16 8q-16 5 -16 21zM299 1044q12 84 57.5 138.5t106.5 54.5q49 0 151 -33q93 -28 131 -28q55 0 70 61q3 12 12 12h37q14 0 6 -37q-12 -65 -56 -117.5t-109 -52.5q-21 0 -44.5 4t-37.5 7.5 t-38.5 11.5t-31.5 10q-77 25 -119 25q-28 0 -50 -20t-28 -60q0 -8 -12 -8h-39q-11 0 -6 32z" />
<glyph unicode="&#xf2;" horiz-adv-x="1044" d="M66 440q0 83 43 177.5t129 162.5q121 99 290 99q185 0 310 -121q141 -141 141 -324q0 -171 -127 -311q-63 -71 -152.5 -109.5t-191.5 -38.5q-209 0 -332 148q-64 76 -87 146.5t-23 170.5zM288 1246.5q-5 39.5 19.5 68t61.5 28.5q60 0 104 -65l164 -246q6 -6 0 -12 l-29 -25q-6 -6 -12 0l-264 185q-39 27 -44 66.5zM299 434q0 -98 12 -160t51 -124q28 -44 66 -66.5t96 -22.5q97 0 151 107.5t54 271.5q0 158 -67.5 257.5t-145.5 99.5q-79 0 -129 -56q-47 -54 -67.5 -124.5t-20.5 -182.5z" />
<glyph unicode="&#xf3;" horiz-adv-x="1044" d="M66 440q0 83 43 177.5t129 162.5q121 99 290 99q185 0 310 -121q141 -141 141 -324q0 -171 -127 -311q-63 -71 -152.5 -109.5t-191.5 -38.5q-209 0 -332 148q-64 76 -87 146.5t-23 170.5zM299 434q0 -98 12 -160t51 -124q28 -44 66 -66.5t96 -22.5q97 0 151 107.5 t54 271.5q0 158 -67.5 257.5t-145.5 99.5q-79 0 -129 -56q-47 -54 -67.5 -124.5t-20.5 -182.5zM436 1016q-8 8 0 16l166 246q47 68 100 65q38 2 63 -27t20 -70.5t-46 -69.5l-262 -181q-8 -8 -16 0z" />
<glyph unicode="&#xf4;" horiz-adv-x="1044" d="M66 440q0 83 43 177.5t129 162.5q121 99 290 99q185 0 310 -121q141 -141 141 -324q0 -171 -127 -311q-63 -71 -152.5 -109.5t-191.5 -38.5q-209 0 -332 148q-64 76 -87 146.5t-23 170.5zM272 1020q-7 7 2 20l220 279q16 16 24 16q12 0 25 -20l227 -277q10 -10 2 -18 l-16 -16q-5 -11 -17 -5l-225 136l-205 -131q-15 -8 -20 -5zM299 434q0 -98 12 -160t51 -124q28 -44 66 -66.5t96 -22.5q97 0 151 107.5t54 271.5q0 158 -67.5 257.5t-145.5 99.5q-79 0 -129 -56q-47 -54 -67.5 -124.5t-20.5 -182.5z" />
<glyph unicode="&#xf5;" horiz-adv-x="1044" d="M66 440q0 83 43 177.5t129 162.5q121 99 290 99q185 0 310 -121q141 -141 141 -324q0 -171 -127 -311q-63 -71 -152.5 -109.5t-191.5 -38.5q-209 0 -332 148q-64 76 -87 146.5t-23 170.5zM238 1044q12 84 57 138.5t106 54.5q50 0 152 -33q93 -28 131 -28q55 0 70 61 q3 12 12 12h37q14 0 6 -37q-12 -65 -56.5 -117.5t-109.5 -52.5q-21 0 -44.5 4t-37.5 7.5t-38 11.5t-31 10q-77 25 -119 25q-28 0 -50 -20t-28 -60q0 -8 -12 -8h-39q-11 0 -6 32zM299 434q0 -98 12 -160t51 -124q28 -44 66 -66.5t96 -22.5q97 0 151 107.5t54 271.5 q0 158 -67.5 257.5t-145.5 99.5q-79 0 -129 -56q-47 -54 -67.5 -124.5t-20.5 -182.5z" />
<glyph unicode="&#xf6;" horiz-adv-x="1044" d="M66 440q0 83 43 177.5t129 162.5q121 99 290 99q185 0 310 -121q141 -141 141 -324q0 -171 -127 -311q-63 -71 -152.5 -109.5t-191.5 -38.5q-209 0 -332 148q-64 76 -87 146.5t-23 170.5zM225 1202q0 38 29.5 74.5t91.5 36.5q45 0 77 -31.5t32 -87.5q0 -49 -30.5 -76.5 t-78.5 -27.5q-45 0 -83 25.5t-38 86.5zM299 434q0 -98 12 -160t51 -124q28 -44 66 -66.5t96 -22.5q97 0 151 107.5t54 271.5q0 158 -67.5 257.5t-145.5 99.5q-79 0 -129 -56q-47 -54 -67.5 -124.5t-20.5 -182.5zM590 1202q0 38 29.5 74.5t91.5 36.5q45 0 76.5 -31.5 t31.5 -87.5q0 -49 -31.5 -76.5t-76.5 -27.5t-83 25.5t-38 86.5z" />
<glyph unicode="&#xf7;" d="M111 432v135h802v-135h-802zM393 180q0 49 35 82t88 33q50 0 84.5 -33t34.5 -82t-34.5 -79.5t-84.5 -30.5q-53 0 -88 30.5t-35 79.5zM393 819q0 49 35 80t88 31q50 0 84.5 -31t34.5 -80t-34.5 -81.5t-84.5 -32.5q-55 0 -89 32t-34 82z" />
<glyph unicode="&#xf8;" horiz-adv-x="1044" d="M66 444q0 79 43 171.5t129 160.5q125 103 290 103t267 -95l86 99q11 7 18 0l43 -39q10 -10 2 -21l-86 -90q121 -130 121 -303q0 -82 -34 -164t-93 -147q-62 -70 -152 -107t-192 -37q-171 0 -281 91l-86 -86q-9 -9 -20 2l-35 34q-10 10 0 21l84 88q-56 72 -80 141.5 t-24 177.5zM295 434q0 -112 16 -170l373 410q-20 51 -69.5 87t-98.5 36q-78 0 -125 -52q-52 -58 -74 -129t-22 -182zM342 180q9 -20 18.5 -34.5t30 -37t55 -35t78.5 -12.5q93 0 151 110t58 275q0 88 -12 146z" />
<glyph unicode="&#xf9;" horiz-adv-x="1077" d="M27 803v37q0 9 4.5 12.5t19.5 3.5h246q15 0 31 4t22 4q9 0 15 -7.5t6 -16.5q0 -5 -2.5 -40.5t-4.5 -94.5t-2 -121v-129q0 -10 -1 -53t-0.5 -68t4 -63t13 -69t25.5 -55q15 -22 30 -34.5t36.5 -17t30 -5t35.5 -0.5q37 0 77.5 22t65.5 56q22 33 22 65v484q0 37 -22.5 51.5 t-65.5 17.5q-41 4 -41 17v37q0 10 5.5 13t19.5 3h254q15 0 35 4t26 4q17 0 17 -20q0 -3 -3 -31.5t-6.5 -92t-3.5 -153.5v-149q0 -187 5 -238q9 -69 45 -69q40 0 65 4q22 3 25 -9l6 -32q3 -16 -10 -19l-254 -71q-27 -9 -41 -9q-26 0 -29 25l-12 115h-13q-34 -57 -113 -98.5 t-157 -41.5q-36 0 -55.5 2t-49 9.5t-55 27.5t-51.5 52q-51 66 -63.5 124.5t-12.5 161.5q0 56 1 127t1 86q0 123 -4 148q-8 66 -71 73q-28 3 -36.5 6t-8.5 11zM265 1246.5q-5 39.5 19.5 68t61.5 28.5q61 0 105 -65l163 -246q6 -6 0 -12l-28 -25q-6 -7 -13 0l-264 185 q-39 27 -44 66.5z" />
<glyph unicode="&#xfa;" horiz-adv-x="1077" d="M27 803v37q0 9 4.5 12.5t19.5 3.5h246q15 0 31 4t22 4q9 0 15 -7.5t6 -16.5q0 -5 -2.5 -40.5t-4.5 -94.5t-2 -121v-129q0 -10 -1 -53t-0.5 -68t4 -63t13 -69t25.5 -55q15 -22 30 -34.5t36.5 -17t30 -5t35.5 -0.5q37 0 77.5 22t65.5 56q22 33 22 65v484q0 37 -22.5 51.5 t-65.5 17.5q-41 4 -41 17v37q0 10 5.5 13t19.5 3h254q15 0 35 4t26 4q17 0 17 -20q0 -3 -3 -31.5t-6.5 -92t-3.5 -153.5v-149q0 -187 5 -238q9 -69 45 -69q40 0 65 4q22 3 25 -9l6 -32q3 -16 -10 -19l-254 -71q-27 -9 -41 -9q-26 0 -29 25l-12 115h-13q-34 -57 -113 -98.5 t-157 -41.5q-36 0 -55.5 2t-49 9.5t-55 27.5t-51.5 52q-51 66 -63.5 124.5t-12.5 161.5q0 56 1 127t1 86q0 123 -4 148q-8 66 -71 73q-28 3 -36.5 6t-8.5 11zM453 1016q-8 8 0 16l165 246q47 68 101 65q38 2 63 -27t20 -70.5t-46 -69.5l-262 -181q-3 -3 -8.5 -3t-8.5 3z" />
<glyph unicode="&#xfb;" horiz-adv-x="1077" d="M27 803v37q0 9 4.5 12.5t19.5 3.5h246q15 0 31 4t22 4q9 0 15 -7.5t6 -16.5q0 -5 -2.5 -40.5t-4.5 -94.5t-2 -121v-129q0 -10 -1 -53t-0.5 -68t4 -63t13 -69t25.5 -55q15 -22 30 -34.5t36.5 -17t30 -5t35.5 -0.5q37 0 77.5 22t65.5 56q22 33 22 65v484q0 37 -22.5 51.5 t-65.5 17.5q-41 4 -41 17v37q0 10 5.5 13t19.5 3h254q15 0 35 4t26 4q17 0 17 -20q0 -3 -3 -31.5t-6.5 -92t-3.5 -153.5v-149q0 -187 5 -238q9 -69 45 -69q40 0 65 4q22 3 25 -9l6 -32q3 -16 -10 -19l-254 -71q-27 -9 -41 -9q-26 0 -29 25l-12 115h-13q-34 -57 -113 -98.5 t-157 -41.5q-36 0 -55.5 2t-49 9.5t-55 27.5t-51.5 52q-51 66 -63.5 124.5t-12.5 161.5q0 56 1 127t1 86q0 123 -4 148q-8 66 -71 73q-28 3 -36.5 6t-8.5 11zM289 1020q-7 7 2 20l219 279q16 16 25 16q11 0 24 -20l227 -277q10 -10 2 -18l-16 -16q-5 -10 -16 -5l-226 136 l-204 -131q-16 -8 -21 -5z" />
<glyph unicode="&#xfc;" horiz-adv-x="1077" d="M27 803v37q0 9 4.5 12.5t19.5 3.5h246q15 0 31 4t22 4q9 0 15 -7.5t6 -16.5q0 -5 -2.5 -40.5t-4.5 -94.5t-2 -121v-129q0 -10 -1 -53t-0.5 -68t4 -63t13 -69t25.5 -55q15 -22 30 -34.5t36.5 -17t30 -5t35.5 -0.5q37 0 77.5 22t65.5 56q22 33 22 65v484q0 37 -22.5 51.5 t-65.5 17.5q-41 4 -41 17v37q0 10 5.5 13t19.5 3h254q15 0 35 4t26 4q17 0 17 -20q0 -3 -3 -31.5t-6.5 -92t-3.5 -153.5v-149q0 -187 5 -238q9 -69 45 -69q40 0 65 4q22 3 25 -9l6 -32q3 -16 -10 -19l-254 -71q-27 -9 -41 -9q-26 0 -29 25l-12 115h-13q-34 -57 -113 -98.5 t-157 -41.5q-36 0 -55.5 2t-49 9.5t-55 27.5t-51.5 52q-51 66 -63.5 124.5t-12.5 161.5q0 56 1 127t1 86q0 123 -4 148q-8 66 -71 73q-28 3 -36.5 6t-8.5 11zM242 1202q0 38 29 74.5t91 36.5q45 0 77 -31.5t32 -87.5q0 -49 -30.5 -76.5t-78.5 -27.5q-45 0 -82.5 25.5 t-37.5 86.5zM606 1202q0 38 29.5 74.5t91.5 36.5q45 0 77 -31.5t32 -87.5q0 -49 -32 -76.5t-77 -27.5t-83 25.5t-38 86.5z" />
<glyph unicode="&#xfd;" horiz-adv-x="897" d="M-31 803v45q0 14 17 14q3 0 26.5 -1.5t73.5 -3t117 -1.5q71 0 137.5 3t67.5 3q16 0 16 -16v-45q0 -15 -14 -15h-31q-17 0 -26 -10.5t-5 -32.5q5 -31 70 -251.5t80 -253.5h8q30 62 106.5 251t83.5 220q17 77 -43 77h-32q-17 0 -17 15v45q0 16 17 16q2 0 56 -3t120 -3 q41 0 88 3t49 3q14 0 14 -16v-43q0 -17 -12 -17h-25q-46 0 -73 -34q-47 -61 -328 -695q-23 -50 -58 -126t-55.5 -121t-44.5 -96t-40 -84t-27 -52q-2 -3 -10 -16.5t-11 -18t-12 -17.5t-14.5 -18.5t-15.5 -16.5t-18.5 -16t-21 -12.5t-24 -11t-27 -6t-31.5 -2.5q-55 0 -89 30.5 t-34 80.5q0 42 29.5 72t69.5 30q38 0 90 -25q12 -6 28 -5.5t25 9.5q18 18 77.5 143.5t78.5 184.5q-8 39 -124.5 359t-139.5 378q-19 45 -37 65.5t-47 20.5h-41q-17 0 -17 17zM485 1016q-8 8 0 16l166 246q47 68 101 65q38 2 63 -27t19.5 -70.5t-46.5 -69.5l-262 -181 q-8 -8 -16 0z" />
<glyph unicode="&#xfe;" horiz-adv-x="1069" d="M31 -504q0 17 16 17h66q27 0 38 11.5t13 37.5q6 90 6 245l-4 1227q0 84 -18.5 127t-59.5 58l-37 12q-16 5 -16 16v21q0 11 16 16q40 10 129.5 43t120.5 51q35 21 53 21q21 0 21 -41l-2 -602l8 -4q44 53 118 90t150 37q86 0 144.5 -24.5t107.5 -82.5q55 -65 79 -127.5 t24 -169.5q0 -215 -126 -357.5t-323 -142.5q-98 0 -176 37l4 -377q0 -78 13.5 -100t47.5 -22h66q20 0 20 -17v-39q0 -20 -16 -20q-1 0 -31 1.5t-87 3t-124 1.5q-63 0 -115 -1.5t-79.5 -3t-30.5 -1.5q-16 0 -16 24v35zM379 217q0 -87 53 -119q71 -43 156 -43q87 0 145 74 t58 221q0 99 -21 187t-57 137q-62 86 -154 86q-51 0 -99 -24.5t-81 -69.5v-449z" />
<glyph unicode="&#xff;" horiz-adv-x="897" d="M-31 803v45q0 14 17 14q3 0 26.5 -1.5t73.5 -3t117 -1.5q71 0 137.5 3t67.5 3q16 0 16 -16v-45q0 -15 -14 -15h-31q-17 0 -26 -10.5t-5 -32.5q5 -31 70 -251.5t80 -253.5h8q30 62 106.5 251t83.5 220q17 77 -43 77h-32q-17 0 -17 15v45q0 16 17 16q2 0 56 -3t120 -3 q41 0 88 3t49 3q14 0 14 -16v-43q0 -17 -12 -17h-25q-46 0 -73 -34q-9 -11 -22.5 -35.5t-35.5 -69.5t-40 -84t-51.5 -112.5t-54 -118t-62.5 -138t-62 -137.5q-190 -419 -225 -479q-16 -27 -21.5 -36t-24.5 -33t-35.5 -35t-44 -21t-59.5 -10q-55 0 -89 30.5t-34 80.5 q0 42 29.5 72t69.5 30q38 0 90 -25q12 -6 28 -5.5t25 9.5q18 18 77.5 143.5t78.5 184.5q-8 39 -124.5 359t-139.5 378q-19 45 -37 65.5t-47 20.5h-41q-17 0 -17 17zM233 1202q0 38 29.5 74.5t91.5 36.5q45 0 77 -31.5t32 -87.5q0 -49 -30.5 -76.5t-78.5 -27.5 q-45 0 -83 25.5t-38 86.5zM598 1202q0 38 29.5 74.5t91.5 36.5q45 0 76.5 -31.5t31.5 -87.5q0 -49 -31.5 -76.5t-76.5 -27.5t-83 25.5t-38 86.5z" />
<glyph unicode="&#x152;" horiz-adv-x="2332" d="M106 725q0 47 7.5 99t25.5 117t55 136t89 135q113 139 272 204t330 65q110 0 241 -15q140 -16 193 -16h688q32 0 64 4q28 4 34 4q14 0 17 -12q89 -322 90 -328q3 -15 -4 -20l-29 -17q-14 -7 -25 9t-101.5 113t-119.5 116q-75 53 -147 53l-324 8l-4 -592q51 0 136 3.5 t102 7.5q35 8 55.5 23t38.5 50q33 69 33 115q0 17 16 17l49 -5q10 0 14 -3.5t3 -12.5q-4 -33 -4 -221q0 -90 12 -225q0 -15 -17 -19l-45 -8q-6 -2 -9.5 2t-6.5 16q-4 15 -10 34t-13.5 40.5t-9.5 28.5q-33 68 -102 74q-111 12 -242 12v-123q0 -65 4 -202t4 -146 q0 -82 17 -116t53 -44q59 -16 172 -16q90 0 180 8q78 0 156 65q28 26 94 103t98 119q12 12 25 4l29 -17q12 -6 12 -16l-102 -311q-16 -31 -41 -31q-56 0 -183 2q-254 4 -678 4q-68 0 -200 -16q-114 -15 -209 -15q-280 0 -483 133q-58 40 -109.5 97.5t-95.5 134.5t-69.5 178 t-25.5 213zM385 774q0 -111 18 -208.5t48.5 -169.5t72 -130.5t88 -97t97.5 -64.5t98.5 -37.5t93.5 -11.5q131 0 212.5 56t94.5 135v958q-42 97 -132.5 142t-182.5 45l-19 1q-19 0 -27.5 -0.5t-30.5 -1.5t-37 -4.5t-38.5 -8.5t-42.5 -13t-42 -19t-45 -27t-42 -36 q-87 -84 -135.5 -221.5t-48.5 -286.5z" />
<glyph unicode="&#x153;" horiz-adv-x="1540" d="M66 434q0 80 39 172.5t124 165.5q124 107 303 107q192 0 308 -148q115 148 315 148q74 0 133.5 -25t95 -62t59.5 -83.5t33 -85.5t9 -72t-51 -33h-494q-4 -20 -4 -67q0 -151 79.5 -241.5t211.5 -90.5q75 0 130 35.5t87 87.5q10 20 24 10l33 -23q14 -7 0 -28 q-20 -39 -46.5 -73t-69 -71.5t-105 -59.5t-137.5 -22q-103 0 -188.5 37.5t-131.5 106.5h-8q-103 -144 -319 -144q-203 0 -322 146q-108 130 -108 313zM299 442q0 -108 14 -171.5t54 -123.5q59 -90 157 -90q90 0 145.5 101t55.5 276q0 177 -61 270t-142 93q-85 0 -139 -62 q-84 -97 -84 -293zM944 594h254q59 0 59 37q0 172 -143 172q-56 0 -102 -49t-68 -160z" />
<glyph unicode="&#x178;" horiz-adv-x="1433" d="M23 1389v55q0 12 16 12q3 0 39 -1.5t99 -3t132 -1.5q92 0 162.5 1.5t104 3t36.5 1.5q17 0 17 -14v-47q0 -21 -17 -21h-53q-34 0 -47 -13.5t-10 -45.5q2 -16 65 -140t141.5 -274.5t98.5 -191.5q7 12 40 65t58 94.5t62.5 104t65.5 111t55 96t41.5 79t15.5 41.5q8 74 -70 74 h-53q-16 0 -16 17v51q0 14 12 14q5 0 38.5 -1.5t91 -3t120.5 -1.5q58 0 102 1.5t66.5 3t27.5 1.5q17 0 17 -14v-47q0 -21 -17 -21h-45q-66 0 -110 -47q-25 -28 -209 -312t-242 -384v-250q0 -167 6 -236q2 -24 8.5 -38.5t19 -21t23 -8t29.5 -1.5h68q14 0 14 -15v-47 q0 -20 -14 -20q-5 0 -40 1.5t-101.5 3t-147.5 1.5q-89 0 -155 -1.5t-97 -3t-33 -1.5q-14 0 -14 18v47q0 17 14 17h84q69 0 72 51q6 87 6 381v98q-52 97 -218.5 387t-203.5 336q-18 21 -47 33t-55 12h-37q-16 0 -16 15zM483 1733q0 35 31 70.5t96 35.5q43 0 75 -31t32 -84 q0 -49 -31.5 -81.5t-75.5 -32.5q-21 0 -41 6t-40.5 18.5t-33 38t-12.5 60.5zM918 1733q0 35 30.5 70.5t95.5 35.5q43 0 77 -31.5t34 -83.5q0 -48 -33.5 -81t-77.5 -33q-47 0 -86.5 28.5t-39.5 94.5z" />
<glyph unicode="&#x2c6;" horiz-adv-x="630" d="M66 1020q-7 7 2 20l219 279q16 16 24 16q12 0 25 -20l227 -277q10 -10 2 -18l-16 -16q-5 -11 -17 -5l-225 136l-205 -131q-15 -8 -20 -5z" />
<glyph unicode="&#x2dc;" horiz-adv-x="700" d="M66 1044q12 84 57 138.5t106 54.5q50 0 152 -33q93 -28 131 -28q55 0 70 61q3 12 12 12h37q14 0 6 -37q-12 -65 -56.5 -117.5t-109.5 -52.5q-21 0 -44.5 4t-37.5 7.5t-38.5 11.5t-31.5 10q-77 25 -118 25q-28 0 -50 -20t-28 -60q0 -8 -12 -8h-39q-11 0 -6 32z" />
<glyph unicode="&#x2000;" horiz-adv-x="962" />
<glyph unicode="&#x2001;" horiz-adv-x="1925" />
<glyph unicode="&#x2002;" horiz-adv-x="962" />
<glyph unicode="&#x2003;" horiz-adv-x="1925" />
<glyph unicode="&#x2004;" horiz-adv-x="641" />
<glyph unicode="&#x2005;" horiz-adv-x="481" />
<glyph unicode="&#x2006;" horiz-adv-x="320" />
<glyph unicode="&#x2007;" horiz-adv-x="320" />
<glyph unicode="&#x2008;" horiz-adv-x="240" />
<glyph unicode="&#x2009;" horiz-adv-x="385" />
<glyph unicode="&#x200a;" horiz-adv-x="106" />
<glyph unicode="&#x2010;" horiz-adv-x="823" d="M102 494v106q0 16 17 16h573q25 0 25 -20v-96q0 -19 -25 -19h-573q-17 0 -17 13z" />
<glyph unicode="&#x2011;" horiz-adv-x="823" d="M102 494v106q0 16 17 16h573q25 0 25 -20v-96q0 -19 -25 -19h-573q-17 0 -17 13z" />
<glyph unicode="&#x2012;" horiz-adv-x="823" d="M102 494v106q0 16 17 16h573q25 0 25 -20v-96q0 -19 -25 -19h-573q-17 0 -17 13z" />
<glyph unicode="&#x2013;" d="M0 481v135h1024v-135h-1024z" />
<glyph unicode="&#x2014;" horiz-adv-x="2048" d="M0 481v135h2048v-135h-2048z" />
<glyph unicode="&#x2018;" horiz-adv-x="401" d="M41 1104q0 59 20.5 115.5t47.5 94.5t62 72t55 49t36 25q42 21 49 21q9 0 15 -5.5t6 -11.5q0 -16 -21 -32q-36 -32 -75 -97t-39 -129q0 -47 28 -61q1 0 10 -3.5t15 -6t17 -8.5t19 -12t17.5 -16t15 -21t9.5 -26.5t4 -33.5q0 -44 -32 -75.5t-83 -31.5q-67 0 -121.5 53 t-54.5 140z" />
<glyph unicode="&#x2019;" horiz-adv-x="401" d="M70 928q0 18 20 28q36 31 75.5 98t39.5 132q0 21 -8.5 37.5t-20.5 19.5q-3 2 -18.5 8t-28 14t-27.5 21.5t-23.5 36t-8.5 51.5q0 44 31.5 75.5t82.5 31.5q67 0 121.5 -53.5t54.5 -143.5q0 -58 -20 -113.5t-48 -94.5t-61 -72t-56 -49.5t-36 -22.5q-28 -21 -49 -21 q-9 0 -14.5 5.5t-5.5 11.5z" />
<glyph unicode="&#x201a;" horiz-adv-x="401" d="M70 143q0 42 31.5 72.5t82.5 30.5q68 0 122 -52t54 -141q0 -58 -20 -113.5t-48 -94.5t-61 -72t-56 -49.5t-36 -22.5q-27 -20 -49 -20q-9 0 -14.5 5t-5.5 11q0 18 16 29q37 29 78 96.5t41 132.5q0 21 -8.5 37.5t-20.5 19.5q-3 2 -18.5 8t-28 14t-27.5 21.5t-23.5 36 t-8.5 51.5z" />
<glyph unicode="&#x201c;" horiz-adv-x="782" d="M57 1104q0 59 20.5 115.5t47.5 94.5t62 72.5t55.5 49t36.5 24.5q3 2 14.5 8.5t19.5 9.5t15 3q9 0 14.5 -5.5t5.5 -11.5q0 -12 -20 -32q-38 -33 -78.5 -97.5t-40.5 -128.5q0 -21 10 -37.5t23 -23.5q1 0 13 -5t21 -9.5t22.5 -15t23 -22.5t16 -32t6.5 -43q0 -45 -30 -76 t-81 -31q-67 0 -121.5 53t-54.5 140zM418 1104q0 59 21 115.5t48 94.5t63 72.5t56 49t37 24.5q3 2 14.5 8.5t19.5 9.5t15 3q9 0 15 -5.5t6 -11.5q0 -11 -21 -32q-38 -33 -78.5 -97.5t-40.5 -128.5q0 -21 10 -37.5t23 -23.5q1 -1 13 -5.5t22 -9t24 -15t24 -22.5t17 -32t7 -43 q0 -44 -33 -75.5t-82 -31.5q-68 0 -124 53t-56 140z" />
<glyph unicode="&#x201d;" horiz-adv-x="782" d="M70 928q0 17 16 28q37 29 78 97t41 133q0 21 -8.5 37.5t-20.5 19.5q-3 2 -18.5 8t-28 14t-27.5 21.5t-23.5 36t-8.5 51.5q0 44 31.5 75.5t82.5 31.5q67 0 121.5 -53.5t54.5 -143.5q0 -58 -20 -113.5t-48 -94.5t-61 -72t-56 -49.5t-36 -22.5q-28 -21 -49 -21 q-9 0 -14.5 5.5t-5.5 11.5zM434 928q0 14 21 28q37 29 77.5 97t40.5 133q0 21 -9.5 37.5t-22.5 19.5q-2 1 -22.5 11t-36 21t-30 37.5t-14.5 61.5q0 44 31.5 75.5t79.5 31.5q68 0 124 -54t56 -143q0 -71 -29.5 -137.5t-71.5 -110.5t-74 -69.5t-50 -34.5q-28 -21 -49 -21 q-9 0 -15 5.5t-6 11.5z" />
<glyph unicode="&#x201e;" horiz-adv-x="782" d="M70 143q0 42 31.5 72.5t82.5 30.5q68 0 122 -52t54 -141q0 -58 -20 -113.5t-48 -94.5t-61 -72t-56 -49.5t-36 -22.5q-27 -20 -49 -20q-9 0 -14.5 5t-5.5 11q0 18 16 29q37 29 78 96.5t41 132.5q0 21 -8.5 37.5t-20.5 19.5q-3 2 -18.5 8t-28 14t-27.5 21.5t-23.5 36 t-8.5 51.5zM434 -303q0 15 21 29q37 29 77.5 96.5t40.5 132.5q0 21 -9.5 37.5t-22.5 19.5q-2 1 -22.5 11t-36 21t-30 37.5t-14.5 61.5q0 41 31.5 72t79.5 31q68 0 124 -52t56 -141q0 -71 -29.5 -137.5t-71.5 -110.5t-74 -69.5t-50 -34.5q-27 -20 -49 -20q-9 0 -15 5t-6 11z " />
<glyph unicode="&#x2022;" horiz-adv-x="696" d="M82 737q0 120 77.5 193.5t188.5 73.5q112 0 189 -72.5t77 -194.5q0 -113 -77.5 -181.5t-188.5 -68.5q-104 0 -185 70.5t-81 179.5z" />
<glyph unicode="&#x2026;" horiz-adv-x="2048" d="M199 119q0 47 37 91t108 44q60 0 100.5 -38.5t40.5 -104.5q0 -60 -39 -98t-98 -38q-60 0 -104.5 38.5t-44.5 105.5zM881 119q0 47 36.5 91t110.5 44q60 0 99.5 -38.5t39.5 -104.5q0 -61 -38.5 -98.5t-100.5 -37.5q-57 0 -102 39t-45 105zM1563 119q0 47 36.5 91t110.5 44 q58 0 98.5 -39t40.5 -104q0 -60 -39 -98t-96 -38q-60 0 -105.5 38.5t-45.5 105.5z" />
<glyph unicode="&#x202f;" horiz-adv-x="385" />
<glyph unicode="&#x2039;" horiz-adv-x="536" d="M57 434q0 8 13 21l319 311q8 8 12 8q5 0 9 -4l41 -33q4 -4 4 -8q0 -2 -2 -6t-2 -6l-168 -283l168 -282q4 -4 4 -13q0 -8 -4 -8l-41 -33l-9 -4l-16 8l-315 316q-13 6 -13 16z" />
<glyph unicode="&#x203a;" horiz-adv-x="536" d="M82 139q0 5 8 13l164 282l-168 283q-4 4 -4 12t4 8l45 33q0 4 8 4q5 0 13 -8l319 -315q12 -6 12 -17q0 -4 -2 -6.5t-7 -7t-7 -6.5l-315 -312q-8 -8 -13 -8q-4 0 -12 8l-41 29q0 2 -2 4t-2 4z" />
<glyph unicode="&#x205f;" horiz-adv-x="481" />
<glyph unicode="&#x20ac;" d="M29 532l16 54q1 1 2 4q3 8 10 8h109q0 12 -1 43t-1 43q0 38 4 96h-115q-15 0 -12 13l16 53q4 12 13 12h106q22 172 113 326q127 215 354 215q51 0 97 -17.5t66 -32t52 -42.5q9 -9 16.5 -11.5t12.5 0.5t6 11l10 47q4 12 29 12q12 0 18 -6.5t6 -26.5q0 -81 19 -274 q0 -2 1 -10.5t1 -14t-3 -11.5t-9 -7l-23 -6q-11 -3 -16.5 2.5t-12.5 29.5q-26 75 -46 118.5t-50.5 83.5t-71 56.5t-96.5 16.5q-206 0 -239 -459h442q9 0 13.5 -3.5t2.5 -8.5l-16 -53q-3 -13 -16 -13h-430v-96q0 -12 1 -43t1 -43h364q11 0 15.5 -3t3.5 -9l-17 -54 q-1 -1 -2.5 -4t-2.5 -4.5t-4 -2.5t-7 -1h-346q10 -235 72 -352t157 -117q65 0 113.5 21t79.5 62.5t50.5 90t35.5 117.5q6 23 20 18l23 -6q5 -1 8.5 -3t4.5 -5.5t1.5 -5.5t0 -7.5t-0.5 -6.5q-21 -278 -21 -293q0 -16 -3.5 -23.5t-7.5 -8.5t-13 -1h-6.5h-5.5t-4.5 0.5t-4.5 1 t-3 2t-3 3.5t-2 5l-8 49q-6 24 -35 2q-23 -18 -39 -29.5t-46 -29t-64.5 -26.5t-71.5 -9q-109 0 -199 56t-151 159q-88 145 -115 336h-133q-16 0 -12 12z" />
<glyph unicode="&#x2122;" horiz-adv-x="1863" d="M10 1274q39 189 39 192q3 17 14 17q9 0 17 -8q25 -25 76 -25q25 0 95.5 -2t117.5 -2q41 0 123 2t110 2q49 0 74 25q8 8 16 8q13 0 13 -17q1 -4 5 -41t10 -83t9 -70q0 -12 -8 -15l-25 -8q-6 -1 -8.5 1t-7.5 12q-14 28 -38 62.5t-48 47.5q-39 17 -139 17v-271 q0 -40 -1 -120.5t-1 -128t2 -54.5q3 -21 11 -31t26 -10h45q12 0 12 -12v-37q0 -12 -14 -12q-4 0 -33 1t-67.5 2t-65.5 1q-32 0 -99.5 -2t-68.5 -2q-13 0 -13 8v41q0 12 11 12h51q37 0 37 62v553q-87 0 -127 -13q-49 -15 -99 -114q-10 -15 -16 -13l-29 8q-9 3 -6 17zM762 725 v37q0 12 10 12h23q27 0 46.5 20.5t22.5 49.5q5 50 9 171.5t4 160.5v163q0 58 -58 58h-24q-13 0 -13 10v35q0 12 13 12q2 0 24 -1t50.5 -2t48.5 -1q38 0 89.5 2t61.5 2q18 0 25 -4t12 -16l176 -451l184 451q11 16 33 16h240q14 0 14 -8v-33q0 -12 -12 -12h-17 q-25 0 -33 -11.5t-8 -33.5q0 -8 -2 -134t-2 -137q0 -10 2 -125t2 -125q0 -57 37 -57h39q10 0 10 -12v-37q0 -12 -10 -12q-1 0 -63.5 2t-98.5 2q-32 0 -95 -2t-64 -2q-13 0 -13 12v37q0 12 11 12h39q38 0 45 37v258v291h-9l-254 -602q-11 -25 -28 -25q-18 0 -29 17l-242 606 h-12v-254q0 -201 4 -246q6 -82 66 -82h22q11 0 11 -14v-35q0 -12 -11 -12q-2 0 -53 1t-76 1q-26 0 -77.5 -1t-55.5 -1q-14 0 -14 12z" />
<glyph unicode="&#xe000;" horiz-adv-x="860" d="M0 0v860h860v-860h-860z" />
<glyph unicode="&#xfb01;" horiz-adv-x="1130" d="M41 10v47q0 13 20 13h91q45 0 45 69l-2 615h-134q-12 0 -12 16l10 72q3 14 27 14h109v35q0 283 170 446q156 144 364 144q103 0 168.5 -42.5t65.5 -105.5q0 -48 -36 -81t-83 -33t-79 22.5t-65 71.5q-51 65 -98 65q-32 0 -67 -14.5t-56 -38.5q-13 -15 -23 -32.5t-17 -40 t-12.5 -40t-8.5 -47t-5 -47t-2.5 -53.5t-0.5 -52.5v-58v-57.5v-41h280q110 -3 197 14q17 2 45.5 6.5t36.5 4.5q9 0 14 -7.5t2 -19.5q-8 -33 -8 -332v-223v-176q3 -29 11.5 -41t29.5 -12h74q12 0 16 -4t4 -15v-37q0 -12 -4 -16t-16 -4q-4 0 -32 1.5t-76.5 3t-100.5 1.5 q-49 0 -95.5 -1.5t-75 -3t-34.5 -1.5q-16 0 -16 16v43q0 17 20 17h39q34 0 39 45q2 33 2 180v330q0 70 -20 99.5t-91 29.5h-241v-181q0 -417 2 -446q3 -57 47 -57h49q15 0 19.5 -4t4.5 -15v-37q0 -20 -16 -20q-1 0 -27.5 1.5t-77.5 3t-112 1.5q-58 0 -114.5 -1.5t-90.5 -3 t-37 -1.5q-16 0 -16 16z" />
<glyph unicode="&#xfb02;" horiz-adv-x="1116" d="M39 10v47q0 13 20 13h86q50 0 50 65l-2 619h-134q-12 0 -12 16l12 70q3 16 25 16h109v35q0 162 35.5 263.5t105.5 174.5q145 152 364 152q138 0 242 -37q48 -17 45 -49q-10 -123 -10 -600v-295q0 -304 4 -365q2 -35 13 -50t38 -15h74q15 0 19.5 -4t4.5 -15v-37 q0 -20 -12 -20q-2 0 -33 1.5t-85.5 3t-114.5 1.5t-112 -1.5t-81.5 -3t-32.5 -1.5q-16 0 -16 20v39q0 17 25 17h45q51 0 51 69l-2 615h-352v-181q0 -417 2 -446q3 -57 39 -57h65q21 0 21 -19v-37q0 -20 -13 -20q-1 0 -29.5 1.5t-83.5 3t-120 1.5q-56 0 -110.5 -1.5t-87 -3 t-36.5 -1.5q-16 0 -16 16zM408 856h352v281q0 104 -11 149.5t-40 65.5q-40 26 -97 26q-98 0 -143 -61q-29 -38 -43 -111.5t-16 -132.5t-2 -176v-41z" />
</font>
</defs>
</svg>
